<svg
    xmlns="http://www.w3.org/2000/svg"
    viewBox="0 0 24 24"
    id="vector"
    width="24px"
    height="24px">
    <path
        id="a1"
        d="M 2.98 16.604 L 1.792 12.396 M 1.792 12.396 C 1.683 10.619 2.98 9.124 4.648 8.98 C 6.315 8.837 7.722 10.046 7.832 11.604 M 9.02 13.436 L 7.832 11.604"
        fill="#000000"
        fill-opacity="0"
        stroke="#000000"
        stroke-width="1"
        stroke-linecap="round"/>
    <path
        id="a2"
        d="M 8.562 13.597 L 2.465 12.549"
        fill="#000000"
        stroke="#000000"
        stroke-width="1"
        stroke-dasharray="1.4016922040997184,4.784286093264715"
        stroke-dashoffset="3.257485693309049"
        stroke-linecap="round"/>
    <path
        id="s"
        d="M 21.02 7.396 L 16.886 7.792 M 16.886 7.792 C 16.182 7.922 15.636 8.728 15.766 9.692 C 15.9 10.66 16.71 11.47 17.678 11.604 M 17.678 11.604 C 18.306 11.713 18.879 11.857 19.398 12 C 19.886 12.143 20.319 12.287 20.698 12.396 M 19.906 16.208 C 20.884 16.064 21.704 15.244 21.848 14.265 C 21.968 13.312 21.412 12.516 20.698 12.396 M 14.98 16.604 L 19.906 16.208"
        fill="#000000"
        fill-opacity="0"
        stroke="#000000"
        stroke-width="1"
        stroke-linecap="round"
        stroke-linejoin="round"/>
</svg>
