<svg
    xmlns="http://www.w3.org/2000/svg"
    viewBox="0 0 24 24"
    id="vector"
    width="24px"
    height="24px">
    <path
        id="a1"
        d="M 5.878 16.024 L 2.951 12.976 M 2.951 12.976 C 2.682 12.639 2.602 12.231 2.67 11.878 C 2.737 11.525 2.927 11.226 3.196 11.024 M 6.122 8.22 L 3.196 11.024"
        fill="#000000"
        fill-opacity="0"
        stroke="#000000"
        stroke-width="1"
        stroke-linecap="round"/>
    <path
        id="a2"
        d="M 14.907 4.944 L 10.209 19.075"
        fill="#000000"
        stroke="#000000"
        stroke-width="1"
        stroke-dasharray="9.679214704085831,5.211884840661609"
        stroke-dashoffset="13.029712101654008"
        stroke-linecap="round"/>
    <path
        id="s"
        d="M 18.122 7.976 L 18.914 8.951 M 18.914 8.951 C 19.2 9.271 19.493 9.618 19.813 9.972 C 20.143 10.336 20.501 10.694 20.865 11.024 M 20.865 11.024 C 21.156 11.294 21.311 11.647 21.332 12 C 21.352 12.353 21.237 12.706 20.988 12.976 M 19.037 15.049 C 19.426 14.694 19.808 14.311 20.163 13.922 C 20.459 13.593 20.726 13.271 20.988 12.976 M 17.878 16.024 L 19.037 15.049"
        fill="#000000"
        fill-opacity="0"
        stroke="#000000"
        stroke-width="1"
        stroke-linecap="round"
        stroke-linejoin="round"/>
</svg>
