<svg
    xmlns="http://www.w3.org/2000/svg"
    viewBox="0 0 24 24"
    id="vector"
    width="24px"
    height="24px">
    <path
        id="a1"
        d="M 4.273 16.345 L 2.309 12.655 M 2.309 12.655 C 2.128 11.52 2.812 10.509 3.766 10.273 C 4.719 10.036 5.583 10.572 5.764 11.345 M 7.727 11.109 L 5.764 11.345"
        fill="#000000"
        fill-opacity="0"
        stroke="#000000"
        stroke-width="1"
        stroke-linecap="round"/>
    <path
        id="a2"
        d="M 8.593 13.556 L 2.503 12.581"
        fill="#000000"
        stroke="#000000"
        stroke-width="1"
        stroke-dasharray="2.0043590736247694,4.1628996144514465"
        stroke-dashoffset="3.854536680047634"
        stroke-linecap="round"/>
    <path
        id="s"
        d="M 19.727 7.655 L 17.791 8.309 M 17.791 8.309 C 17.528 8.524 17.356 9.125 17.571 9.817 C 17.793 10.515 18.401 11.124 19.1 11.345 M 19.1 11.345 C 19.577 11.526 19.964 11.763 20.261 12 C 20.54 12.237 20.729 12.474 20.827 12.655 M 19.518 15.691 C 20.234 15.453 20.859 14.828 21.097 14.112 C 21.295 13.437 21.106 12.853 20.827 12.655 M 16.273 16.345 L 19.518 15.691"
        fill="#000000"
        fill-opacity="0"
        stroke="#000000"
        stroke-width="1"
        stroke-linecap="round"
        stroke-linejoin="round"/>
</svg>
