<svg
    xmlns="http://www.w3.org/2000/svg"
    viewBox="0 0 24 24"
    id="vector"
    width="24px"
    height="24px">
    <path
        id="a1"
        d="M 5.945 16.011 L 2.978 12.989 M 2.978 12.989 C 2.705 12.686 2.593 12.303 2.623 11.945 C 2.653 11.587 2.814 11.254 3.087 11.011 M 6.055 8.098 L 3.087 11.011"
        fill="#000000"
        fill-opacity="0"
        stroke="#000000"
        stroke-width="1"
        stroke-linecap="round"/>
    <path
        id="a2"
        d="M 15.108 4.671 L 10.454 19.281"
        fill="#000000"
        stroke="#000000"
        stroke-width="1"
        stroke-dasharray="10.609159635646348,4.724605294783181"
        stroke-dashoffset="13.789496065661362"
        stroke-linecap="round"/>
    <path
        id="s"
        d="M 18.055 7.989 L 18.962 8.978 M 18.962 8.978 C 19.271 9.302 19.583 9.639 19.907 9.978 C 20.242 10.329 20.59 10.676 20.94 11.011 M 20.94 11.011 C 21.222 11.284 21.368 11.642 21.378 12 C 21.386 12.358 21.259 12.716 20.995 12.989 M 19.016 15.022 C 19.392 14.662 19.764 14.289 20.124 13.914 C 20.423 13.6 20.71 13.288 20.995 12.989 M 17.945 16.011 L 19.016 15.022"
        fill="#000000"
        fill-opacity="0"
        stroke="#000000"
        stroke-width="1"
        stroke-linecap="round"
        stroke-linejoin="round"/>
</svg>
