<svg
    xmlns="http://www.w3.org/2000/svg"
    viewBox="0 0 24 24"
    id="vector"
    width="24px"
    height="24px">
    <path
        id="a1"
        d="M 1.272 16.946 L 1.109 12.054 M 1.109 12.054 C 1.094 9.429 3.203 7.292 5.814 7.272 C 8.424 7.253 10.549 9.35 10.564 11.946 M 10.728 16.51 L 10.564 11.946"
        fill="#000000"
        fill-opacity="0"
        stroke="#000000"
        stroke-width="1"
        stroke-linecap="round"/>
    <path
        id="a2"
        d="M 3 13 L 9 13"
        fill="#000000"
        stroke="#000000"
        stroke-width="1"
        stroke-dasharray="4.800000000000001,1.1999999999999997"
        stroke-dashoffset="5.550000000000001"
        stroke-linecap="round"/>
    <path
        id="s"
        d="M 22.728 7.054 L 15.691 7.109 M 15.691 7.109 C 14.403 7.127 13.363 8.203 13.381 9.526 C 13.399 10.851 14.476 11.927 15.8 11.946 M 15.8 11.946 C 16.627 11.961 17.446 11.98 18.258 12 C 19.022 12.02 19.778 12.039 20.527 12.054 M 20.418 16.891 C 21.744 16.871 22.822 15.793 22.842 14.468 C 22.858 13.145 21.816 12.071 20.527 12.054 M 13.272 16.946 L 20.418 16.891"
        fill="#000000"
        fill-opacity="0"
        stroke="#000000"
        stroke-width="1"
        stroke-linecap="round"
        stroke-linejoin="round"/>
</svg>
