<svg
    xmlns="http://www.w3.org/2000/svg"
    viewBox="0 0 24 24"
    id="vector"
    width="24px"
    height="24px">
    <path
        id="a1"
        d="M 1.403 16.919 L 1.161 12.081 M 1.161 12.081 C 1.139 9.52 3.186 7.433 5.725 7.403 C 8.263 7.374 10.332 9.403 10.355 11.919 M 10.597 16.274 L 10.355 11.919"
        fill="#000000"
        fill-opacity="0"
        stroke="#000000"
        stroke-width="1"
        stroke-linecap="round"/>
    <path
        id="a2"
        d="M 3 13 L 9 13"
        fill="#000000"
        stroke="#000000"
        stroke-width="1"
        stroke-dasharray="4.207407407407407,1.7925925925925923"
        stroke-dashoffset="5.3277777777777775"
        stroke-linecap="round"/>
    <path
        id="s"
        d="M 22.597 7.081 L 15.782 7.161 M 15.782 7.161 C 14.539 7.188 13.537 8.243 13.563 9.539 C 13.591 10.836 14.647 11.892 15.944 11.919 M 15.944 11.919 C 16.755 11.942 17.556 11.971 18.345 12 C 19.088 12.029 19.82 12.058 20.54 12.081 M 20.379 16.839 C 21.678 16.809 22.736 15.751 22.765 14.452 C 22.79 13.158 21.786 12.105 20.54 12.081 M 13.403 16.919 L 20.379 16.839"
        fill="#000000"
        fill-opacity="0"
        stroke="#000000"
        stroke-width="1"
        stroke-linecap="round"
        stroke-linejoin="round"/>
</svg>
