<svg
    xmlns="http://www.w3.org/2000/svg"
    viewBox="0 0 24 24"
    id="vector"
    width="24px"
    height="24px">
    <path
        id="a1"
        d="M 1 17 L 1 12 M 1 12 C 1 9.239 3.239 7 6 7 C 8.761 7 11 9.239 11 12 M 11 17 L 11 12"
        fill="#000000"
        fill-opacity="0"
        stroke="#000000"
        stroke-width="1"
        stroke-linecap="round"/>
    <path
        id="a2"
        d="M 3 13 L 9 13"
        fill="#000000"
        stroke="#000000"
        stroke-width="1"
        stroke-linecap="round"/>
    <path
        id="s"
        d="M 23 7 L 15.5 7 M 15.5 7 C 14.119 7 13 8.119 13 9.5 C 13 10.881 14.119 12 15.5 12 M 15.5 12 C 16.359 12 17.217 12 18.076 12 C 18.884 12 19.692 12 20.5 12 M 20.5 17 C 21.881 17 23 15.881 23 14.5 C 23 13.119 21.881 12 20.5 12 M 13 17 L 20.5 17"
        fill="#000000"
        fill-opacity="0"
        stroke="#000000"
        stroke-width="1"
        stroke-linecap="round"
        stroke-linejoin="round"/>
</svg>
