<svg
    xmlns="http://www.w3.org/2000/svg"
    viewBox="0 0 24 24"
    id="vector"
    width="24px"
    height="24px">
    <path
        id="a1"
        d="M 4.517 16.297 L 2.407 12.703 M 2.407 12.703 C 2.213 11.69 2.78 10.771 3.599 10.517 C 4.418 10.262 5.179 10.672 5.373 11.297 M 7.483 10.67 L 5.373 11.297"
        fill="#000000"
        fill-opacity="0"
        stroke="#000000"
        stroke-width="1"
        stroke-linecap="round"/>
    <path
        id="a2"
        d="M 8.944 13.076 L 2.932 12.943"
        fill="#000000"
        stroke="#000000"
        stroke-width="1"
        stroke-dasharray="2.1162926069438464,3.8975085236481344"
        stroke-dashoffset="3.9148646117412635"
        stroke-linecap="round"/>
    <path
        id="s"
        d="M 19.483 7.703 L 17.962 8.407 M 17.962 8.407 C 17.783 8.637 17.681 9.2 17.912 9.84 C 18.15 10.488 18.721 11.058 19.369 11.297 M 19.369 11.297 C 19.817 11.491 20.169 11.745 20.424 12 C 20.664 12.255 20.806 12.509 20.852 12.703 M 19.445 15.593 C 20.111 15.337 20.699 14.749 20.955 14.083 C 21.168 13.461 21.048 12.916 20.852 12.703 M 16.517 16.297 L 19.445 15.593"
        fill="#000000"
        fill-opacity="0"
        stroke="#000000"
        stroke-width="1"
        stroke-linecap="round"
        stroke-linejoin="round"/>
</svg>
