<svg
    xmlns="http://www.w3.org/2000/svg"
    viewBox="0 0 24 24"
    id="vector"
    width="24px"
    height="24px">
    <path
        id="a1"
        d="M 5.997 16.001 L 2.999 12.999 M 2.999 12.999 C 2.723 12.722 2.586 12.358 2.588 11.997 C 2.59 11.635 2.73 11.275 3.005 11.001 M 6.003 8.006 L 3.005 11.001"
        fill="#000000"
        fill-opacity="0"
        stroke="#000000"
        stroke-width="1"
        stroke-linecap="round"/>
    <path
        id="a2"
        d="M 15.185 4.566 L 10.548 19.36"
        fill="#000000"
        stroke="#000000"
        stroke-width="1"
        stroke-dasharray="11.694335914474582,3.8092842053967217"
        stroke-dashoffset="14.446946245942472"
        stroke-linecap="round"/>
    <path
        id="s"
        d="M 18.003 7.999 L 18.998 8.999 M 18.998 8.999 C 19.324 9.326 19.651 9.655 19.979 9.983 C 20.317 10.323 20.657 10.662 20.996 11.001 M 20.996 11.001 C 21.273 11.276 21.411 11.638 21.412 12 C 21.412 12.362 21.275 12.724 21 12.999 M 19.001 15.001 C 19.366 14.638 19.73 14.273 20.094 13.908 C 20.397 13.605 20.698 13.302 21 12.999 M 17.997 16.001 L 19.001 15.001"
        fill="#000000"
        fill-opacity="0"
        stroke="#000000"
        stroke-width="1"
        stroke-linecap="round"
        stroke-linejoin="round"/>
</svg>
