<svg
    xmlns="http://www.w3.org/2000/svg"
    viewBox="0 0 24 24"
    id="vector"
    width="24px"
    height="24px">
    <path
        id="a1"
        d="M 1.085 16.983 L 1.034 12.017 M 1.034 12.017 C 1.029 9.298 3.228 7.091 5.942 7.085 C 8.656 7.079 10.859 9.274 10.864 11.983 M 10.915 16.847 L 10.864 11.983"
        fill="#000000"
        fill-opacity="0"
        stroke="#000000"
        stroke-width="1"
        stroke-linecap="round"/>
    <path
        id="a2"
        d="M 3 13 L 9 13"
        fill="#000000"
        stroke="#000000"
        stroke-width="1"
        stroke-dasharray="5.62962962962963,0.37037037037037"
        stroke-dashoffset="5.861111111111111"
        stroke-linecap="round"/>
    <path
        id="s"
        d="M 22.915 7.017 L 15.56 7.034 M 15.56 7.034 C 14.208 7.04 13.113 8.145 13.119 9.508 C 13.125 10.871 14.23 11.977 15.594 11.983 M 15.594 11.983 C 16.442 11.988 17.289 11.994 18.133 12 C 18.927 12.006 19.719 12.012 20.509 12.017 M 20.474 16.966 C 21.838 16.96 22.944 15.854 22.95 14.49 C 22.956 13.127 21.861 12.022 20.509 12.017 M 13.085 16.983 L 20.474 16.966"
        fill="#000000"
        fill-opacity="0"
        stroke="#000000"
        stroke-width="1"
        stroke-linecap="round"
        stroke-linejoin="round"/>
</svg>
