<svg
    xmlns="http://www.w3.org/2000/svg"
    viewBox="0 0 24 24"
    id="vector"
    width="24px"
    height="24px">
    <path
        id="a1"
        d="M 1.927 16.815 L 1.371 12.185 M 1.371 12.185 C 1.32 9.885 3.118 7.994 5.367 7.927 C 7.617 7.86 9.466 9.617 9.517 11.815 M 10.073 15.332 L 9.517 11.815"
        fill="#000000"
        fill-opacity="0"
        stroke="#000000"
        stroke-width="1"
        stroke-linecap="round"/>
    <path
        id="a2"
        d="M 3 13 L 9 13"
        fill="#000000"
        stroke="#000000"
        stroke-width="1"
        stroke-dasharray="1.7185185185185188,4.281481481481481"
        stroke-dashoffset="4.394444444444444"
        stroke-linecap="round"/>
    <path
        id="s"
        d="M 22.073 7.185 L 16.149 7.371 M 16.149 7.371 C 15.084 7.431 14.234 8.404 14.294 9.59 C 14.357 10.777 15.332 11.752 16.519 11.815 M 16.519 11.815 C 17.27 11.866 17.995 11.933 18.695 12 C 19.353 12.067 19.986 12.134 20.593 12.185 M 20.222 16.629 C 21.415 16.562 22.394 15.583 22.461 14.39 C 22.517 13.209 21.662 12.241 20.593 12.185 M 13.927 16.815 L 20.222 16.629"
        fill="#000000"
        fill-opacity="0"
        stroke="#000000"
        stroke-width="1"
        stroke-linecap="round"
        stroke-linejoin="round"/>
</svg>
