<svg
    xmlns="http://www.w3.org/2000/svg"
    viewBox="0 0 24 24"
    id="vector"
    width="24px"
    height="24px">
    <path
        id="a1"
        d="M 6 16 L 3 13 M 3 13 C 2.724 12.724 2.586 12.362 2.586 12 C 2.586 11.638 2.724 11.276 3 11 M 6 8 L 3 11"
        fill="#000000"
        fill-opacity="0"
        stroke="#000000"
        stroke-width="1"
        stroke-linecap="round"/>
    <path
        id="a2"
        d="M 14.5 5.5 L 9.712 18.656"
        fill="#000000"
        stroke="#000000"
        stroke-opacity="0.7938926261462365"
        stroke-width="1"
        stroke-linecap="round"/>
    <path
        id="s"
        d="M 18 8 L 19 9 M 19 9 C 19.328 9.328 19.656 9.656 19.984 9.984 C 20.322 10.322 20.661 10.661 21 11 M 21 11 C 21.276 11.276 21.414 11.638 21.414 12 C 21.414 12.362 21.276 12.724 21 13 M 19 15 C 19.364 14.636 19.728 14.272 20.092 13.908 C 20.395 13.605 20.697 13.303 21 13 M 18 16 L 19 15"
        fill="#000000"
        fill-opacity="0"
        stroke="#000000"
        stroke-opacity="0.024471741852423234"
        stroke-width="1"
        stroke-linecap="round"
        stroke-linejoin="round"/>
</svg>
