<svg
    xmlns="http://www.w3.org/2000/svg"
    viewBox="0 0 24 24"
    id="vector"
    width="24px"
    height="24px">
    <path
        id="a1"
        d="M 3.891 16.422 L 2.156 12.578 M 2.156 12.578 C 1.997 11.254 2.861 10.1 4.026 9.891 C 5.191 9.682 6.215 10.417 6.374 11.422 M 8.109 11.796 L 6.374 11.422"
        fill="#000000"
        fill-opacity="0"
        stroke="#000000"
        stroke-width="1"
        stroke-linecap="round"/>
    <path
        id="a2"
        d="M 8.34 13.9 L 2.194 12.321"
        fill="#000000"
        stroke="#000000"
        stroke-width="1"
        stroke-dasharray="1.8356580889278213,4.509445383151619"
        stroke-dashoffset="3.7391891305516536"
        stroke-linecap="round"/>
    <path
        id="s"
        d="M 20.109 7.578 L 17.524 8.156 M 17.524 8.156 C 17.131 8.346 16.849 9.008 17.038 9.78 C 17.234 10.558 17.902 11.226 18.68 11.422 M 18.68 11.422 C 19.202 11.581 19.644 11.791 20.006 12 C 20.347 12.209 20.608 12.419 20.789 12.578 M 19.633 15.844 C 20.426 15.633 21.108 14.951 21.319 14.158 C 21.494 13.4 21.197 12.753 20.789 12.578 M 15.891 16.422 L 19.633 15.844"
        fill="#000000"
        fill-opacity="0"
        stroke="#000000"
        stroke-width="1"
        stroke-linecap="round"
        stroke-linejoin="round"/>
</svg>
