<svg
    xmlns="http://www.w3.org/2000/svg"
    viewBox="0 0 24 24"
    id="vector"
    width="24px"
    height="24px">
    <path
        id="a1"
        d="M 5.073 16.185 L 2.629 12.815 M 2.629 12.815 C 2.404 12.078 2.707 11.368 3.219 11.073 C 3.73 10.778 4.258 10.898 4.483 11.185 M 6.927 9.668 L 4.483 11.185"
        fill="#000000"
        fill-opacity="0"
        stroke="#000000"
        stroke-width="1"
        stroke-linecap="round"/>
    <path
        id="a2"
        d="M 10.659 10.738 L 5.025 14.706"
        fill="#000000"
        stroke="#000000"
        stroke-width="1"
        stroke-dasharray="2.979432772661105,3.9123075016393174"
        stroke-dashoffset="4.96878465276588"
        stroke-linecap="round"/>
    <path
        id="s"
        d="M 18.927 7.815 L 18.351 8.629 M 18.351 8.629 C 18.362 8.896 18.422 9.371 18.689 9.894 C 18.965 10.426 19.449 10.909 19.981 11.185 M 19.981 11.185 C 20.365 11.41 20.636 11.705 20.795 12 C 20.945 12.295 20.982 12.59 20.907 12.815 M 19.278 15.371 C 19.831 15.074 20.335 14.57 20.631 14.018 C 20.878 13.515 20.917 13.061 20.907 12.815 M 17.073 16.185 L 19.278 15.371"
        fill="#000000"
        fill-opacity="0"
        stroke="#000000"
        stroke-width="1"
        stroke-linecap="round"
        stroke-linejoin="round"/>
</svg>
