<svg
    xmlns="http://www.w3.org/2000/svg"
    viewBox="0 0 24 24"
    id="vector"
    width="24px"
    height="24px">
    <path
        id="a1"
        d="M 5.969 16.006 L 2.988 12.994 M 2.988 12.994 C 2.713 12.703 2.59 12.329 2.607 11.969 C 2.624 11.609 2.775 11.263 3.049 11.006 M 6.031 8.055 L 3.049 11.006"
        fill="#000000"
        fill-opacity="0"
        stroke="#000000"
        stroke-width="1"
        stroke-linecap="round"/>
    <path
        id="a2"
        d="M 15.16 4.6 L 10.518 19.335"
        fill="#000000"
        stroke="#000000"
        stroke-width="1"
        stroke-dasharray="11.011835606766796,4.437295912856771"
        stroke-dashoffset="14.069476220025626"
        stroke-linecap="round"/>
    <path
        id="s"
        d="M 18.031 7.994 L 18.978 8.988 M 18.978 8.988 C 19.296 9.314 19.615 9.646 19.941 9.981 C 20.277 10.326 20.621 10.669 20.966 11.006 M 20.966 11.006 C 21.246 11.28 21.388 11.64 21.393 12 C 21.398 12.36 21.266 12.72 20.997 12.994 M 19.009 15.012 C 19.38 14.65 19.748 14.282 20.11 13.911 C 20.411 13.602 20.705 13.295 20.997 12.994 M 17.969 16.006 L 19.009 15.012"
        fill="#000000"
        fill-opacity="0"
        stroke="#000000"
        stroke-width="1"
        stroke-linecap="round"
        stroke-linejoin="round"/>
</svg>
