<svg
    xmlns="http://www.w3.org/2000/svg"
    viewBox="0 0 24 24"
    id="vector"
    width="24px"
    height="24px">
    <path
        id="a1"
        d="M 2.138 16.772 L 1.455 12.228 M 1.455 12.228 C 1.393 10.032 3.09 8.221 5.223 8.138 C 7.355 8.056 9.116 9.703 9.179 11.772 M 9.862 14.951 L 9.179 11.772"
        fill="#000000"
        fill-opacity="0"
        stroke="#000000"
        stroke-width="1"
        stroke-linecap="round"/>
    <path
        id="a2"
        d="M 8.989 13.015 L 2.987 12.989"
        fill="#000000"
        stroke="#000000"
        stroke-width="1"
        stroke-dasharray="1.203023955857815,4.799401880302221"
        stroke-dashoffset="3.003751706705826"
        stroke-linecap="round"/>
    <path
        id="s"
        d="M 21.862 7.228 L 16.297 7.455 M 16.297 7.455 C 15.305 7.53 14.515 8.469 14.59 9.61 C 14.667 10.754 15.609 11.695 16.752 11.772 M 16.752 11.772 C 17.478 11.835 18.173 11.918 18.836 12 C 19.46 12.082 20.053 12.165 20.614 12.228 M 20.158 16.545 C 21.308 16.462 22.255 15.515 22.338 14.365 C 22.407 13.23 21.612 12.297 20.614 12.228 M 14.138 16.772 L 20.158 16.545"
        fill="#000000"
        fill-opacity="0"
        stroke="#000000"
        stroke-width="1"
        stroke-linecap="round"
        stroke-linejoin="round"/>
</svg>
