<svg
    xmlns="http://www.w3.org/2000/svg"
    viewBox="0 0 24 24"
    id="vector"
    width="24px"
    height="24px">
    <path
        id="a1"
        d="M 2.365 16.727 L 1.546 12.273 M 1.546 12.273 C 1.471 10.19 3.061 8.464 5.068 8.365 C 7.075 8.266 8.741 9.795 8.816 11.727 M 9.635 14.543 L 8.816 11.727"
        fill="#000000"
        fill-opacity="0"
        stroke="#000000"
        stroke-width="1"
        stroke-linecap="round"/>
    <path
        id="a2"
        d="M 8.913 13.118 L 2.894 12.911"
        fill="#000000"
        stroke="#000000"
        stroke-width="1"
        stroke-dasharray="1.227413803042064,4.795282352754156"
        stroke-dashoffset="3.03422264978093"
        stroke-linecap="round"/>
    <path
        id="s"
        d="M 21.635 7.273 L 16.456 7.546 M 16.456 7.546 C 15.541 7.636 14.817 8.539 14.907 9.632 C 14.999 10.729 15.905 11.635 17.002 11.727 M 17.002 11.727 C 17.701 11.802 18.363 11.901 18.987 12 C 19.575 12.099 20.124 12.198 20.637 12.273 M 20.09 16.454 C 21.194 16.355 22.107 15.442 22.206 14.338 C 22.289 13.252 21.558 12.356 20.637 12.273 M 14.365 16.727 L 20.09 16.454"
        fill="#000000"
        fill-opacity="0"
        stroke="#000000"
        stroke-width="1"
        stroke-linecap="round"
        stroke-linejoin="round"/>
</svg>
