<svg
    xmlns="http://www.w3.org/2000/svg"
    viewBox="0 0 24 24"
    id="vector"
    width="24px"
    height="24px">
    <path
        id="a1"
        d="M 5.728 16.054 L 2.891 12.946 M 2.891 12.946 C 2.63 12.534 2.622 12.07 2.772 11.728 C 2.923 11.385 3.175 11.165 3.436 11.054 M 6.272 8.49 L 3.436 11.054"
        fill="#000000"
        fill-opacity="0"
        stroke="#000000"
        stroke-width="1"
        stroke-linecap="round"/>
    <path
        id="a2"
        d="M 14.315 5.752 L 9.486 18.466"
        fill="#000000"
        stroke="#000000"
        stroke-width="1"
        stroke-dasharray="7.991176461145872,5.608780380248434"
        stroke-dashoffset="11.362832428074878"
        stroke-linecap="round"/>
    <path
        id="s"
        d="M 18.272 7.946 L 18.809 8.891 M 18.809 8.891 C 19.044 9.201 19.293 9.572 19.603 9.957 C 19.923 10.353 20.305 10.734 20.7 11.054 M 20.7 11.054 C 21.008 11.315 21.185 11.658 21.232 12 C 21.276 12.342 21.19 12.685 20.973 12.946 M 19.082 15.109 C 19.501 14.765 19.906 14.36 20.251 13.94 C 20.537 13.579 20.762 13.232 20.973 12.946 M 17.728 16.054 L 19.082 15.109"
        fill="#000000"
        fill-opacity="0"
        stroke="#000000"
        stroke-width="1"
        stroke-linecap="round"
        stroke-linejoin="round"/>
</svg>
