<svg
    xmlns="http://www.w3.org/2000/svg"
    viewBox="0 0 24 24"
    id="vector"
    width="24px"
    height="24px">
    <path
        id="a1"
        d="M 5.915 16.017 L 2.966 12.983 M 2.966 12.983 C 2.695 12.665 2.597 12.271 2.644 11.915 C 2.691 11.559 2.865 11.241 3.136 11.017 M 6.085 8.153 L 3.136 11.017"
        fill="#000000"
        fill-opacity="0"
        stroke="#000000"
        stroke-width="1"
        stroke-linecap="round"/>
    <path
        id="a2"
        d="M 15.025 4.784 L 10.353 19.196"
        fill="#000000"
        stroke="#000000"
        stroke-width="1"
        stroke-dasharray="10.164810945372857,4.985246804003108"
        stroke-dashoffset="13.443816499925292"
        stroke-linecap="round"/>
    <path
        id="s"
        d="M 18.085 7.983 L 18.94 8.966 M 18.94 8.966 C 19.239 9.288 19.542 9.63 19.865 9.975 C 20.198 10.332 20.55 10.684 20.906 11.017 M 20.906 11.017 C 21.192 11.288 21.343 11.644 21.357 12 C 21.371 12.356 21.249 12.712 20.991 12.983 M 19.026 15.034 C 19.407 14.676 19.784 14.299 20.142 13.918 C 20.439 13.597 20.718 13.28 20.991 12.983 M 17.915 16.017 L 19.026 15.034"
        fill="#000000"
        fill-opacity="0"
        stroke="#000000"
        stroke-width="1"
        stroke-linecap="round"
        stroke-linejoin="round"/>
</svg>
