<svg
    xmlns="http://www.w3.org/2000/svg"
    viewBox="0 0 24 24"
    id="vector"
    width="24px"
    height="24px">
    <path
        id="a1"
        d="M 2.604 16.679 L 1.642 12.321 M 1.642 12.321 C 1.553 10.357 3.03 8.72 4.905 8.604 C 6.78 8.488 8.345 9.893 8.433 11.679 M 9.396 14.113 L 8.433 11.679"
        fill="#000000"
        fill-opacity="0"
        stroke="#000000"
        stroke-width="1"
        stroke-linecap="round"/>
    <path
        id="a2"
        d="M 8.787 13.291 L 2.74 12.781"
        fill="#000000"
        stroke="#000000"
        stroke-width="1"
        stroke-dasharray="1.2774121978408914,4.790978714266225"
        stroke-dashoffset="3.0979294714730266"
        stroke-linecap="round"/>
    <path
        id="s"
        d="M 21.396 7.321 L 16.623 7.642 M 16.623 7.642 C 15.79 7.747 15.135 8.612 15.24 9.655 C 15.349 10.702 16.218 11.571 17.264 11.679 M 17.264 11.679 C 17.936 11.768 18.564 11.884 19.147 12 C 19.696 12.116 20.2 12.232 20.66 12.321 M 20.019 16.358 C 21.074 16.242 21.95 15.365 22.067 14.31 C 22.164 13.275 21.501 12.418 20.66 12.321 M 14.604 16.679 L 20.019 16.358"
        fill="#000000"
        fill-opacity="0"
        stroke="#000000"
        stroke-width="1"
        stroke-linecap="round"
        stroke-linejoin="round"/>
</svg>
