<svg
    xmlns="http://www.w3.org/2000/svg"
    viewBox="0 0 24 24"
    id="vector"
    width="24px"
    height="24px">
    <path
        id="a1"
        d="M 1.055 16.989 L 1.022 12.011 M 1.022 12.011 C 1.019 9.277 3.232 7.059 5.963 7.055 C 8.694 7.051 10.91 9.261 10.913 11.989 M 10.945 16.902 L 10.913 11.989"
        fill="#000000"
        fill-opacity="0"
        stroke="#000000"
        stroke-width="1"
        stroke-linecap="round"/>
    <path
        id="a2"
        d="M 3 13 L 9 13"
        fill="#000000"
        stroke="#000000"
        stroke-width="1"
        stroke-dasharray="5.762962962962963,0.23703703703703716"
        stroke-dashoffset="5.911111111111111"
        stroke-linecap="round"/>
    <path
        id="s"
        d="M 22.945 7.011 L 15.538 7.022 M 15.538 7.022 C 14.176 7.025 13.073 8.136 13.076 9.505 C 13.08 10.875 14.19 11.985 15.56 11.989 M 15.56 11.989 C 16.412 11.992 17.263 11.996 18.112 12 C 18.912 12.004 19.709 12.008 20.505 12.011 M 20.484 16.978 C 21.853 16.974 22.964 15.863 22.968 14.494 C 22.972 13.124 21.868 12.014 20.505 12.011 M 13.055 16.989 L 20.484 16.978"
        fill="#000000"
        fill-opacity="0"
        stroke="#000000"
        stroke-width="1"
        stroke-linecap="round"
        stroke-linejoin="round"/>
</svg>
