<svg
    xmlns="http://www.w3.org/2000/svg"
    viewBox="0 0 24 24"
    id="vector"
    width="24px"
    height="24px">
    <path
        id="a1"
        d="M 5.358 16.128 L 2.743 12.872 M 2.743 12.872 C 2.503 12.276 2.67 11.673 3.024 11.358 C 3.379 11.042 3.787 11.014 4.027 11.128 M 6.642 9.156 L 4.027 11.128"
        fill="#000000"
        fill-opacity="0"
        stroke="#000000"
        stroke-width="1"
        stroke-linecap="round"/>
    <path
        id="a2"
        d="M 12.328 8.462 L 7.061 16.422"
        fill="#000000"
        stroke="#000000"
        stroke-width="1"
        stroke-dasharray="4.654719769555638,4.889813940099896"
        stroke-dashoffset="7.297141602136198"
        stroke-linecap="round"/>
    <path
        id="s"
        d="M 18.642 7.872 L 18.551 8.743 M 18.551 8.743 C 18.659 9.029 18.801 9.458 19.087 9.922 C 19.382 10.394 19.821 10.833 20.294 11.128 M 20.294 11.128 C 20.644 11.369 20.875 11.684 20.985 12 C 21.089 12.316 21.073 12.631 20.936 12.872 M 19.193 15.257 C 19.687 14.94 20.148 14.479 20.466 13.984 C 20.729 13.543 20.849 13.135 20.936 12.872 M 17.358 16.128 L 19.193 15.257"
        fill="#000000"
        fill-opacity="0"
        stroke="#000000"
        stroke-width="1"
        stroke-linecap="round"
        stroke-linejoin="round"/>
</svg>
