<svg
    xmlns="http://www.w3.org/2000/svg"
    viewBox="0 0 24 24"
    id="vector"
    width="24px"
    height="24px">
    <path
        id="a1"
        d="M 1.166 16.967 L 1.066 12.033 M 1.066 12.033 C 1.057 9.355 3.217 7.178 5.887 7.166 C 8.556 7.154 10.725 9.307 10.734 11.967 M 10.834 16.701 L 10.734 11.967"
        fill="#000000"
        fill-opacity="0"
        stroke="#000000"
        stroke-width="1"
        stroke-linecap="round"/>
    <path
        id="a2"
        d="M 3 13 L 9 13"
        fill="#000000"
        stroke="#000000"
        stroke-width="1"
        stroke-dasharray="5.274074074074074,0.7259259259259261"
        stroke-dashoffset="5.727777777777778"
        stroke-linecap="round"/>
    <path
        id="s"
        d="M 22.834 7.033 L 15.616 7.066 M 15.616 7.066 C 14.292 7.077 13.221 8.17 13.232 9.516 C 13.243 10.862 14.336 11.956 15.683 11.967 M 15.683 11.967 C 16.522 11.976 17.357 11.988 18.187 12 C 18.968 12.012 19.745 12.024 20.517 12.033 M 20.45 16.934 C 21.797 16.921 22.891 15.828 22.903 14.48 C 22.913 13.135 21.842 12.043 20.517 12.033 M 13.166 16.967 L 20.45 16.934"
        fill="#000000"
        fill-opacity="0"
        stroke="#000000"
        stroke-width="1"
        stroke-linecap="round"
        stroke-linejoin="round"/>
</svg>
