<svg
    xmlns="http://www.w3.org/2000/svg"
    viewBox="0 0 24 24"
    id="vector"
    width="24px"
    height="24px">
    <path
        id="a1"
        d="M 3.5 16.5 L 2 12.5 M 2 12.5 C 1.862 10.982 2.913 9.681 4.293 9.5 C 5.673 9.319 6.862 10.258 7 11.5 M 8.5 12.5 L 7 11.5"
        fill="#000000"
        fill-opacity="0"
        stroke="#000000"
        stroke-width="1"
        stroke-linecap="round"/>
    <path
        id="a2"
        d="M 8.336 13.905 L 2.19 12.317"
        fill="#000000"
        stroke="#000000"
        stroke-width="1"
        stroke-dasharray="1.6409288079855244,4.70723111848353"
        stroke-dashoffset="3.545376785926241"
        stroke-linecap="round"/>
    <path
        id="s"
        d="M 20.5 7.5 L 17.25 8 M 17.25 8 C 16.723 8.164 16.328 8.887 16.492 9.742 C 16.661 10.602 17.39 11.331 18.25 11.5 M 18.25 11.5 C 18.817 11.638 19.316 11.819 19.745 12 C 20.149 12.181 20.484 12.362 20.75 12.5 M 19.75 16 C 20.623 15.818 21.364 15.076 21.546 14.204 C 21.697 13.362 21.289 12.651 20.75 12.5 M 15.5 16.5 L 19.75 16"
        fill="#000000"
        fill-opacity="0"
        stroke="#000000"
        stroke-width="1"
        stroke-linecap="round"
        stroke-linejoin="round"/>
</svg>
