<svg
    xmlns="http://www.w3.org/2000/svg"
    viewBox="0 0 24 24"
    id="vector"
    width="24px"
    height="24px">
    <path
        id="a1"
        d="M 4.396 16.321 L 2.358 12.679 M 2.358 12.679 C 2.171 11.606 2.795 10.642 3.681 10.396 C 4.567 10.15 5.379 10.622 5.567 11.321 M 7.604 10.887 L 5.567 11.321"
        fill="#000000"
        fill-opacity="0"
        stroke="#000000"
        stroke-width="1"
        stroke-linecap="round"/>
    <path
        id="a2"
        d="M 8.748 13.344 L 2.692 12.741"
        fill="#000000"
        stroke="#000000"
        stroke-width="1"
        stroke-dasharray="2.057106465613897,4.028436837533138"
        stroke-dashoffset="3.8813607659785756"
        stroke-linecap="round"/>
    <path
        id="s"
        d="M 19.604 7.679 L 17.877 8.358 M 17.877 8.358 C 17.657 8.581 17.521 9.163 17.743 9.829 C 17.973 10.502 18.562 11.091 19.236 11.321 M 19.236 11.321 C 19.698 11.508 20.068 11.754 20.343 12 C 20.602 12.246 20.768 12.492 20.84 12.679 M 19.481 15.642 C 20.172 15.394 20.778 14.788 21.025 14.098 C 21.231 13.449 21.077 12.885 20.84 12.679 M 16.396 16.321 L 19.481 15.642"
        fill="#000000"
        fill-opacity="0"
        stroke="#000000"
        stroke-width="1"
        stroke-linecap="round"
        stroke-linejoin="round"/>
</svg>
