<svg
    xmlns="http://www.w3.org/2000/svg"
    viewBox="0 0 24 24"
    id="vector"
    width="24px"
    height="24px">
    <path
        id="a1"
        d="M 5.597 16.081 L 2.839 12.919 M 2.839 12.919 C 2.585 12.443 2.639 11.929 2.861 11.597 C 3.084 11.264 3.392 11.112 3.645 11.081 M 6.403 8.726 L 3.645 11.081"
        fill="#000000"
        fill-opacity="0"
        stroke="#000000"
        stroke-width="1"
        stroke-linecap="round"/>
    <path
        id="a2"
        d="M 13.687 6.609 L 8.72 17.82"
        fill="#000000"
        stroke="#000000"
        stroke-width="1"
        stroke-dasharray="6.704756603206931,5.557626863883431"
        stroke-dashoffset="9.903762660477959"
        stroke-linecap="round"/>
    <path
        id="s"
        d="M 18.403 7.919 L 18.718 8.839 M 18.718 8.839 C 18.908 9.14 19.119 9.532 19.42 9.945 C 19.732 10.368 20.134 10.769 20.556 11.081 M 20.556 11.081 C 20.879 11.334 21.075 11.667 21.145 12 C 21.21 12.333 21.148 12.666 20.96 12.919 M 19.121 15.161 C 19.567 14.827 19.992 14.402 20.327 13.956 C 20.605 13.566 20.793 13.198 20.96 12.919 M 17.597 16.081 L 19.121 15.161"
        fill="#000000"
        fill-opacity="0"
        stroke="#000000"
        stroke-width="1"
        stroke-linecap="round"
        stroke-linejoin="round"/>
</svg>
