<svg
    xmlns="http://www.w3.org/2000/svg"
    viewBox="0 0 24 24"
    id="vector"
    width="24px"
    height="24px">
    <path
        id="a1"
        d="M 5.665 16.067 L 2.866 12.933 M 2.866 12.933 C 2.609 12.491 2.63 12.003 2.815 11.665 C 3 11.327 3.278 11.14 3.536 11.067 M 6.335 8.603 L 3.536 11.067"
        fill="#000000"
        fill-opacity="0"
        stroke="#000000"
        stroke-width="1"
        stroke-linecap="round"/>
    <path
        id="a2"
        d="M 14.027 6.145 L 9.134 18.169"
        fill="#000000"
        stroke="#000000"
        stroke-width="1"
        stroke-dasharray="7.361121887319247,5.619826829146523"
        stroke-dashoffset="10.666456051234142"
        stroke-linecap="round"/>
    <path
        id="s"
        d="M 18.335 7.933 L 18.766 8.866 M 18.766 8.866 C 18.979 9.172 19.21 9.553 19.516 9.951 C 19.832 10.36 20.223 10.751 20.632 11.067 M 20.632 11.067 C 20.947 11.324 21.133 11.662 21.19 12 C 21.245 12.338 21.17 12.676 20.967 12.933 M 19.1 15.134 C 19.533 14.794 19.947 14.38 20.287 13.947 C 20.569 13.573 20.777 13.215 20.967 12.933 M 17.665 16.067 L 19.1 15.134"
        fill="#000000"
        fill-opacity="0"
        stroke="#000000"
        stroke-width="1"
        stroke-linecap="round"
        stroke-linejoin="round"/>
</svg>
