<svg
    xmlns="http://www.w3.org/2000/svg"
    viewBox="0 0 24 24"
    id="vector"
    width="24px"
    height="24px">
    <path
        id="a1"
        d="M 1.031 16.994 L 1.012 12.006 M 1.012 12.006 C 1.011 9.26 3.235 7.033 5.979 7.031 C 8.723 7.029 10.949 9.252 10.951 11.994 M 10.969 16.945 L 10.951 11.994"
        fill="#000000"
        fill-opacity="0"
        stroke="#000000"
        stroke-width="1"
        stroke-linecap="round"/>
    <path
        id="a2"
        d="M 3 13 L 9 13"
        fill="#000000"
        stroke="#000000"
        stroke-width="1"
        stroke-dasharray="5.866666666666667,0.13333333333333286"
        stroke-dashoffset="5.95"
        stroke-linecap="round"/>
    <path
        id="s"
        d="M 22.969 7.006 L 15.522 7.012 M 15.522 7.012 C 14.151 7.014 13.041 8.128 13.043 9.503 C 13.045 10.878 14.159 11.992 15.534 11.994 M 15.534 11.994 C 16.389 11.996 17.243 11.998 18.096 12 C 18.9 12.002 19.702 12.004 20.503 12.006 M 20.491 16.988 C 21.866 16.985 22.98 15.871 22.982 14.496 C 22.984 13.122 21.874 12.008 20.503 12.006 M 13.031 16.994 L 20.491 16.988"
        fill="#000000"
        fill-opacity="0"
        stroke="#000000"
        stroke-width="1"
        stroke-linecap="round"
        stroke-linejoin="round"/>
</svg>
