<svg
    xmlns="http://www.w3.org/2000/svg"
    viewBox="0 0 24 24"
    id="vector"
    width="24px"
    height="24px">
    <path
        id="a1"
        d="M 5.834 16.033 L 2.934 12.967 M 2.934 12.967 C 2.667 12.608 2.608 12.184 2.699 11.834 C 2.791 11.484 2.999 11.208 3.266 11.033 M 6.166 8.299 L 3.266 11.033"
        fill="#000000"
        fill-opacity="0"
        stroke="#000000"
        stroke-width="1"
        stroke-linecap="round"/>
    <path
        id="a2"
        d="M 14.752 5.156 L 10.02 18.915"
        fill="#000000"
        stroke="#000000"
        stroke-width="1"
        stroke-dasharray="9.153583939585225,5.3967480692104575"
        stroke-dashoffset="12.545293275894771"
        stroke-linecap="round"/>
    <path
        id="s"
        d="M 18.166 7.967 L 18.884 8.934 M 18.884 8.934 C 19.155 9.251 19.435 9.605 19.752 9.968 C 20.079 10.341 20.444 10.706 20.817 11.033 M 20.817 11.033 C 21.113 11.3 21.275 11.65 21.303 12 C 21.33 12.35 21.223 12.7 20.983 12.967 M 19.05 15.066 C 19.448 14.714 19.837 14.325 20.189 13.927 C 20.481 13.589 20.737 13.259 20.983 12.967 M 17.834 16.033 L 19.05 15.066"
        fill="#000000"
        fill-opacity="0"
        stroke="#000000"
        stroke-width="1"
        stroke-linecap="round"
        stroke-linejoin="round"/>
</svg>
