<svg
    xmlns="http://www.w3.org/2000/svg"
    viewBox="0 0 24 24"
    id="vector"
    width="24px"
    height="24px">
    <path
        id="a1"
        d="M 4.862 16.228 L 2.545 12.772 M 2.545 12.772 C 2.331 11.931 2.735 11.141 3.363 10.862 C 3.992 10.582 4.608 10.812 4.821 11.228 M 7.138 10.049 L 4.821 11.228"
        fill="#000000"
        fill-opacity="0"
        stroke="#000000"
        stroke-width="1"
        stroke-linecap="round"/>
    <path
        id="a2"
        d="M 9.813 11.891 L 3.992 13.836"
        fill="#000000"
        stroke="#000000"
        stroke-width="1"
        stroke-dasharray="2.4433845780446672,3.693720742106277"
        stroke-dashoffset="4.24900051830204"
        stroke-linecap="round"/>
    <path
        id="s"
        d="M 19.138 7.772 L 18.203 8.545 M 18.203 8.545 C 18.142 8.798 18.14 9.306 18.394 9.874 C 18.655 10.45 19.172 10.966 19.748 11.228 M 19.748 11.228 C 20.156 11.441 20.458 11.72 20.654 12 C 20.838 12.28 20.915 12.559 20.886 12.772 M 19.342 15.455 C 19.937 15.174 20.473 14.638 20.754 14.043 C 20.988 13.494 20.967 13.006 20.886 12.772 M 16.862 16.228 L 19.342 15.455"
        fill="#000000"
        fill-opacity="0"
        stroke="#000000"
        stroke-width="1"
        stroke-linecap="round"
        stroke-linejoin="round"/>
</svg>
