<svg
    xmlns="http://www.w3.org/2000/svg"
    viewBox="0 0 24 24"
    id="vector"
    width="24px"
    height="24px">
    <path
        id="a1"
        d="M 3.631 16.474 L 2.052 12.526 M 2.052 12.526 C 1.907 11.073 2.895 9.821 4.204 9.631 C 5.512 9.44 6.645 10.311 6.791 11.474 M 8.369 12.264 L 6.791 11.474"
        fill="#000000"
        fill-opacity="0"
        stroke="#000000"
        stroke-width="1"
        stroke-linecap="round"/>
    <path
        id="a2"
        d="M 8.315 13.934 L 2.164 12.296"
        fill="#000000"
        stroke="#000000"
        stroke-width="1"
        stroke-dasharray="1.7068790808055352,4.6583535741470845"
        stroke-dashoffset="3.6164488772913215"
        stroke-linecap="round"/>
    <path
        id="s"
        d="M 20.369 7.526 L 17.342 8.052 M 17.342 8.052 C 16.86 8.225 16.502 8.928 16.675 9.755 C 16.853 10.587 17.561 11.296 18.394 11.474 M 18.394 11.474 C 18.946 11.619 19.425 11.81 19.832 12 C 20.215 12.19 20.525 12.381 20.763 12.526 M 19.711 15.948 C 20.557 15.756 21.278 15.034 21.47 14.188 C 21.629 13.375 21.258 12.685 20.763 12.526 M 15.631 16.474 L 19.711 15.948"
        fill="#000000"
        fill-opacity="0"
        stroke="#000000"
        stroke-width="1"
        stroke-linecap="round"
        stroke-linejoin="round"/>
</svg>
