<svg
    xmlns="http://www.w3.org/2000/svg"
    viewBox="0 0 24 24"
    id="vector"
    width="24px"
    height="24px">
    <path
        id="a1"
        d="M 2.727 16.655 L 1.691 12.345 M 1.691 12.345 C 1.596 10.443 3.013 8.853 4.82 8.727 C 6.628 8.602 8.141 9.943 8.236 11.655 M 9.273 13.891 L 8.236 11.655"
        fill="#000000"
        fill-opacity="0"
        stroke="#000000"
        stroke-width="1"
        stroke-linecap="round"/>
    <path
        id="a2"
        d="M 8.713 13.391 L 2.65 12.705"
        fill="#000000"
        stroke="#000000"
        stroke-width="1"
        stroke-dasharray="1.3123635612200117,4.789472098582804"
        stroke-dashoffset="3.142914259160857"
        stroke-linecap="round"/>
    <path
        id="s"
        d="M 21.273 7.345 L 16.709 7.691 M 16.709 7.691 C 15.919 7.804 15.3 8.65 15.413 9.667 C 15.53 10.688 16.379 11.537 17.4 11.655 M 17.4 11.655 C 18.058 11.75 18.667 11.875 19.229 12 C 19.758 12.125 20.239 12.25 20.673 12.345 M 19.982 16.309 C 21.011 16.183 21.87 15.325 21.995 14.295 C 22.1 13.287 21.472 12.45 20.673 12.345 M 14.727 16.655 L 19.982 16.309"
        fill="#000000"
        fill-opacity="0"
        stroke="#000000"
        stroke-width="1"
        stroke-linecap="round"
        stroke-linejoin="round"/>
</svg>
