<svg
    xmlns="http://www.w3.org/2000/svg"
    viewBox="0 0 24 24"
    id="vector"
    width="24px"
    height="24px">
    <path
        id="a1"
        d="M 5.268 16.146 L 2.707 12.854 M 2.707 12.854 C 2.472 12.214 2.682 11.577 3.086 11.268 C 3.49 10.959 3.936 10.978 4.172 11.146 M 6.732 9.318 L 4.172 11.146"
        fill="#000000"
        fill-opacity="0"
        stroke="#000000"
        stroke-width="1"
        stroke-linecap="round"/>
    <path
        id="a2"
        d="M 11.75 9.25 L 6.356 15.828"
        fill="#000000"
        stroke="#000000"
        stroke-width="1"
        stroke-dasharray="3.9875535115923513,4.519227313137999"
        stroke-dashoffset="6.3800856185477635"
        stroke-linecap="round"/>
    <path
        id="s"
        d="M 18.732 7.854 L 18.487 8.707 M 18.487 8.707 C 18.565 8.987 18.681 9.431 18.961 9.913 C 19.25 10.404 19.703 10.857 20.195 11.146 M 20.195 11.146 C 20.556 11.382 20.799 11.691 20.925 12 C 21.043 12.309 21.044 12.618 20.927 12.854 M 19.22 15.293 C 19.733 14.982 20.207 14.508 20.518 13.995 C 20.776 13.534 20.871 13.112 20.927 12.854 M 17.268 16.146 L 19.22 15.293"
        fill="#000000"
        fill-opacity="0"
        stroke="#000000"
        stroke-width="1"
        stroke-linecap="round"
        stroke-linejoin="round"/>
</svg>
