<svg
    xmlns="http://www.w3.org/2000/svg"
    viewBox="0 0 24 24"
    id="vector"
    width="24px"
    height="24px">
    <path
        id="a1"
        d="M 3.369 16.526 L 1.948 12.474 M 1.948 12.474 C 1.817 10.89 2.93 9.541 4.382 9.369 C 5.835 9.198 7.079 10.204 7.209 11.526 M 8.631 12.736 L 7.209 11.526"
        fill="#000000"
        fill-opacity="0"
        stroke="#000000"
        stroke-width="1"
        stroke-linecap="round"/>
    <path
        id="a2"
        d="M 8.374 13.853 L 2.237 12.357"
        fill="#000000"
        stroke="#000000"
        stroke-width="1"
        stroke-dasharray="1.576038694537138,4.7415294986286405"
        stroke-dashoffset="3.4713091524868718"
        stroke-linecap="round"/>
    <path
        id="s"
        d="M 20.631 7.474 L 17.158 7.948 M 17.158 7.948 C 16.587 8.103 16.154 8.847 16.309 9.729 C 16.47 10.616 17.219 11.366 18.106 11.526 M 18.106 11.526 C 18.689 11.657 19.206 11.828 19.658 12 C 20.083 12.172 20.443 12.343 20.737 12.474 M 19.789 16.052 C 20.688 15.88 21.45 15.119 21.622 14.219 C 21.766 13.349 21.32 12.617 20.737 12.474 M 15.369 16.526 L 19.789 16.052"
        fill="#000000"
        fill-opacity="0"
        stroke="#000000"
        stroke-width="1"
        stroke-linecap="round"
        stroke-linejoin="round"/>
</svg>
