<svg
    xmlns="http://www.w3.org/2000/svg"
    viewBox="0 0 24 24"
    id="vector"
    width="24px"
    height="24px">
    <path
        id="a1"
        d="M 1.827 16.835 L 1.331 12.165 M 1.331 12.165 C 1.285 9.816 3.131 7.887 5.435 7.827 C 7.739 7.767 9.631 9.576 9.677 11.835 M 10.173 15.511 L 9.677 11.835"
        fill="#000000"
        fill-opacity="0"
        stroke="#000000"
        stroke-width="1"
        stroke-linecap="round"/>
    <path
        id="a2"
        d="M 3 13 L 9 13"
        fill="#000000"
        stroke="#000000"
        stroke-width="1"
        stroke-dasharray="2.2074074074074073,3.7925925925925927"
        stroke-dashoffset="4.5777777777777775"
        stroke-linecap="round"/>
    <path
        id="s"
        d="M 22.173 7.165 L 16.079 7.331 M 16.079 7.331 C 14.981 7.385 14.101 8.373 14.155 9.58 C 14.211 10.789 15.201 11.779 16.41 11.835 M 16.41 11.835 C 17.172 11.88 17.912 11.94 18.628 12 C 19.303 12.06 19.954 12.12 20.583 12.165 M 20.252 16.669 C 21.465 16.609 22.459 15.615 22.519 14.402 C 22.569 13.199 21.685 12.215 20.583 12.165 M 13.827 16.835 L 20.252 16.669"
        fill="#000000"
        fill-opacity="0"
        stroke="#000000"
        stroke-width="1"
        stroke-linecap="round"
        stroke-linejoin="round"/>
</svg>
