<svg
    xmlns="http://www.w3.org/2000/svg"
    viewBox="0 0 24 24"
    id="vector"
    width="24px"
    height="24px">
    <path
        id="a1"
        d="M 2.853 16.629 L 1.741 12.371 M 1.741 12.371 C 1.639 10.531 2.997 8.987 4.735 8.853 C 6.473 8.719 7.933 9.994 8.035 11.629 M 9.147 13.665 L 8.035 11.629"
        fill="#000000"
        fill-opacity="0"
        stroke="#000000"
        stroke-width="1"
        stroke-linecap="round"/>
    <path
        id="a2"
        d="M 8.637 13.495 L 2.557 12.627"
        fill="#000000"
        stroke="#000000"
        stroke-width="1"
        stroke-dasharray="1.3538889537466563,4.78770181156722"
        stroke-dashoffset="3.1963661833408197"
        stroke-linecap="round"/>
    <path
        id="s"
        d="M 21.147 7.371 L 16.797 7.741 M 16.797 7.741 C 16.049 7.863 15.467 8.689 15.588 9.679 C 15.714 10.674 16.543 11.504 17.538 11.629 M 17.538 11.629 C 18.181 11.732 18.773 11.866 19.313 12 C 19.822 12.134 20.279 12.268 20.685 12.371 M 19.944 16.259 C 20.948 16.124 21.787 15.285 21.922 14.281 C 22.035 13.299 21.442 12.483 20.685 12.371 M 14.853 16.629 L 19.944 16.259"
        fill="#000000"
        fill-opacity="0"
        stroke="#000000"
        stroke-width="1"
        stroke-linecap="round"
        stroke-linejoin="round"/>
</svg>
