<svg
    xmlns="http://www.w3.org/2000/svg"
    viewBox="0 0 24 24"
    id="vector"
    width="24px"
    height="24px">
    <path
        id="a1"
        d="M 3.239 16.552 L 1.895 12.448 M 1.895 12.448 C 1.772 10.799 2.947 9.401 4.471 9.239 C 5.996 9.077 7.295 10.151 7.418 11.552 M 8.761 12.97 L 7.418 11.552"
        fill="#000000"
        fill-opacity="0"
        stroke="#000000"
        stroke-width="1"
        stroke-linecap="round"/>
    <path
        id="a2"
        d="M 8.427 13.781 L 2.301 12.411"
        fill="#000000"
        stroke="#000000"
        stroke-width="1"
        stroke-dasharray="1.5137037181716027,4.763889187685039"
        stroke-dashoffset="3.3969815899285956"
        stroke-linecap="round"/>
    <path
        id="s"
        d="M 20.761 7.448 L 17.067 7.895 M 17.067 7.895 C 16.451 8.042 15.98 8.807 16.127 9.717 C 16.279 10.631 17.048 11.401 17.963 11.552 M 17.963 11.552 C 18.56 11.676 19.096 11.838 19.571 12 C 20.017 12.162 20.401 12.324 20.724 12.448 M 19.828 16.105 C 20.754 15.942 21.535 15.161 21.698 14.235 C 21.834 13.337 21.351 12.583 20.724 12.448 M 15.239 16.552 L 19.828 16.105"
        fill="#000000"
        fill-opacity="0"
        stroke="#000000"
        stroke-width="1"
        stroke-linecap="round"
        stroke-linejoin="round"/>
</svg>
