<svg
    xmlns="http://www.w3.org/2000/svg"
    viewBox="0 0 24 24"
    id="vector"
    width="24px"
    height="24px">
    <path
        id="a1"
        d="M 5.443 16.111 L 2.777 12.889 M 2.777 12.889 C 2.532 12.336 2.659 11.765 2.966 11.443 C 3.274 11.121 3.646 11.049 3.891 11.111 M 6.557 9.003 L 3.891 11.111"
        fill="#000000"
        fill-opacity="0"
        stroke="#000000"
        stroke-width="1"
        stroke-linecap="round"/>
    <path
        id="a2"
        d="M 12.841 7.762 L 7.687 16.95"
        fill="#000000"
        stroke="#000000"
        stroke-width="1"
        stroke-dasharray="5.341152955026006,5.1929904847770185"
        stroke-dashoffset="8.206342432287247"
        stroke-linecap="round"/>
    <path
        id="s"
        d="M 18.557 7.889 L 18.61 8.777 M 18.61 8.777 C 18.747 9.069 18.914 9.485 19.206 9.93 C 19.507 10.385 19.932 10.81 20.387 11.111 M 20.387 11.111 C 20.728 11.357 20.946 11.678 21.042 12 C 21.132 12.322 21.099 12.643 20.944 12.889 M 19.167 15.223 C 19.645 14.899 20.093 14.451 20.416 13.974 C 20.685 13.551 20.829 13.157 20.944 12.889 M 17.443 16.111 L 19.167 15.223"
        fill="#000000"
        fill-opacity="0"
        stroke="#000000"
        stroke-width="1"
        stroke-linecap="round"
        stroke-linejoin="round"/>
</svg>
