<svg
    xmlns="http://www.w3.org/2000/svg"
    viewBox="0 0 24 24"
    id="vector"
    width="24px"
    height="24px">
    <path
        id="a1"
        d="M 1.557 16.889 L 1.223 12.111 M 1.223 12.111 C 1.192 9.627 3.166 7.597 5.62 7.557 C 8.073 7.517 10.078 9.466 10.109 11.889 M 10.443 15.997 L 10.109 11.889"
        fill="#000000"
        fill-opacity="0"
        stroke="#000000"
        stroke-width="1"
        stroke-linecap="round"/>
    <path
        id="a2"
        d="M 3 13 L 9 13"
        fill="#000000"
        stroke="#000000"
        stroke-width="1"
        stroke-dasharray="3.496296296296297,2.503703703703703"
        stroke-dashoffset="5.061111111111112"
        stroke-linecap="round"/>
    <path
        id="s"
        d="M 22.443 7.111 L 15.89 7.223 M 15.89 7.223 C 14.699 7.259 13.742 8.29 13.778 9.554 C 13.816 10.819 14.848 11.851 16.113 11.889 M 16.113 11.889 C 16.907 11.919 17.685 11.96 18.448 12 C 19.166 12.04 19.868 12.081 20.556 12.111 M 20.333 16.777 C 21.601 16.737 22.635 15.702 22.676 14.434 C 22.71 13.173 21.749 12.145 20.556 12.111 M 13.557 16.889 L 20.333 16.777"
        fill="#000000"
        fill-opacity="0"
        stroke="#000000"
        stroke-width="1"
        stroke-linecap="round"
        stroke-linejoin="round"/>
</svg>
