<svg
    xmlns="http://www.w3.org/2000/svg"
    viewBox="0 0 24 24"
    id="vector"
    width="24px"
    height="24px">
    <path
        id="a1"
        d="M 3.761 16.448 L 2.105 12.552 M 2.105 12.552 C 1.952 11.164 2.878 9.961 4.115 9.761 C 5.351 9.561 6.429 10.364 6.582 11.448 M 8.239 12.03 L 6.582 11.448"
        fill="#000000"
        fill-opacity="0"
        stroke="#000000"
        stroke-width="1"
        stroke-linecap="round"/>
    <path
        id="a2"
        d="M 8.315 13.934 L 2.165 12.296"
        fill="#000000"
        stroke="#000000"
        stroke-width="1"
        stroke-dasharray="1.7723005477937548,4.592816368239325"
        stroke-dashoffset="3.6818356226036792"
        stroke-linecap="round"/>
    <path
        id="s"
        d="M 20.239 7.552 L 17.433 8.105 M 17.433 8.105 C 16.996 8.286 16.676 8.968 16.857 9.767 C 17.044 10.573 17.732 11.261 18.537 11.448 M 18.537 11.448 C 19.074 11.6 19.535 11.8 19.919 12 C 20.281 12.2 20.567 12.4 20.776 12.552 M 19.672 15.895 C 20.491 15.694 21.193 14.992 21.394 14.173 C 21.561 13.388 21.227 12.719 20.776 12.552 M 15.761 16.448 L 19.672 15.895"
        fill="#000000"
        fill-opacity="0"
        stroke="#000000"
        stroke-width="1"
        stroke-linecap="round"
        stroke-linejoin="round"/>
</svg>
