<svg
    xmlns="http://www.w3.org/2000/svg"
    viewBox="0 0 24 24"
    id="vector"
    width="24px"
    height="24px">
    <path
        id="a1"
        d="M 3.109 16.578 L 1.844 12.422 M 1.844 12.422 C 1.727 10.709 2.964 9.262 4.56 9.109 C 6.156 8.956 7.509 10.098 7.626 11.578 M 8.891 13.204 L 7.626 11.578"
        fill="#000000"
        fill-opacity="0"
        stroke="#000000"
        stroke-width="1"
        stroke-linecap="round"/>
    <path
        id="a2"
        d="M 8.491 13.694 L 2.379 12.476"
        fill="#000000"
        stroke="#000000"
        stroke-width="1"
        stroke-dasharray="1.4552321057269264,4.777194821615577"
        stroke-dashoffset="3.324960183929678"
        stroke-linecap="round"/>
    <path
        id="s"
        d="M 20.891 7.422 L 16.976 7.844 M 16.976 7.844 C 16.316 7.982 15.807 8.767 15.946 9.704 C 16.088 10.645 16.878 11.435 17.82 11.578 M 17.82 11.578 C 18.433 11.695 18.987 11.847 19.484 12 C 19.951 12.153 20.36 12.305 20.711 12.422 M 19.867 16.156 C 20.819 16.003 21.62 15.202 21.774 14.25 C 21.901 13.324 21.382 12.549 20.711 12.422 M 15.109 16.578 L 19.867 16.156"
        fill="#000000"
        fill-opacity="0"
        stroke="#000000"
        stroke-width="1"
        stroke-linecap="round"
        stroke-linejoin="round"/>
</svg>
