<svg
    xmlns="http://www.w3.org/2000/svg"
    viewBox="0 0 24 24"
    id="vector"
    width="24px"
    height="24px">
    <path
        id="a1"
        d="M 4.147 16.371 L 2.259 12.629 M 2.259 12.629 C 2.085 11.432 2.828 10.375 3.851 10.147 C 4.874 9.919 5.791 10.521 5.965 11.371 M 7.853 11.335 L 5.965 11.371"
        fill="#000000"
        fill-opacity="0"
        stroke="#000000"
        stroke-width="1"
        stroke-linecap="round"/>
    <path
        id="a2"
        d="M 8.475 13.716 L 2.359 12.46"
        fill="#000000"
        stroke="#000000"
        stroke-width="1"
        stroke-dasharray="1.9517752951238123,4.291453199592489"
        stroke-dashoffset="3.824743843538703"
        stroke-linecap="round"/>
    <path
        id="s"
        d="M 19.853 7.629 L 17.703 8.259 M 17.703 8.259 C 17.398 8.465 17.189 9.086 17.396 9.804 C 17.609 10.529 18.237 11.157 18.962 11.371 M 18.962 11.371 C 19.454 11.544 19.859 11.772 20.177 12 C 20.476 12.228 20.689 12.456 20.815 12.629 M 19.556 15.741 C 20.297 15.512 20.941 14.868 21.17 14.127 C 21.36 13.425 21.136 12.82 20.815 12.629 M 16.147 16.371 L 19.556 15.741"
        fill="#000000"
        fill-opacity="0"
        stroke="#000000"
        stroke-width="1"
        stroke-linecap="round"
        stroke-linejoin="round"/>
</svg>
