<svg
    xmlns="http://www.w3.org/2000/svg"
    viewBox="0 0 24 24"
    id="vector"
    width="24px"
    height="24px">
    <path
        id="a1"
        d="M 1.003 16.999 L 1.001 12.001 M 1.001 12.001 C 1.001 9.241 3.239 7.004 5.998 7.003 C 8.757 7.003 10.994 9.24 10.995 11.999 M 10.997 16.994 L 10.995 11.999"
        fill="#000000"
        fill-opacity="0"
        stroke="#000000"
        stroke-width="1"
        stroke-linecap="round"/>
    <path
        id="a2"
        d="M 3 13 L 9 13"
        fill="#000000"
        stroke="#000000"
        stroke-width="1"
        stroke-dasharray="5.985185185185186,0.014814814814814614"
        stroke-dashoffset="5.9944444444444445"
        stroke-linecap="round"/>
    <path
        id="s"
        d="M 22.997 7.001 L 15.502 7.001 M 15.502 7.001 C 14.123 7.002 13.005 8.12 13.005 9.5 C 13.005 10.881 14.123 11.999 15.504 11.999 M 15.504 11.999 C 16.362 12 17.22 12 18.078 12 C 18.886 12 19.693 12 20.5 12.001 M 20.499 16.999 C 21.879 16.998 22.998 15.88 22.998 14.5 C 22.998 13.119 21.88 12.001 20.5 12.001 M 13.003 16.999 L 20.499 16.999"
        fill="#000000"
        fill-opacity="0"
        stroke="#000000"
        stroke-width="1"
        stroke-linecap="round"
        stroke-linejoin="round"/>
</svg>
