<svg
    xmlns="http://www.w3.org/2000/svg"
    viewBox="0 0 24 24"
    id="vector"
    width="24px"
    height="24px">
    <path
        id="a1"
        d="M 2.031 16.794 L 1.412 12.206 M 1.412 12.206 C 1.355 9.957 3.104 8.105 5.296 8.031 C 7.488 7.956 9.294 9.659 9.351 11.794 M 9.969 15.145 L 9.351 11.794"
        fill="#000000"
        fill-opacity="0"
        stroke="#000000"
        stroke-width="1"
        stroke-linecap="round"/>
    <path
        id="a2"
        d="M 9 13 L 3 13"
        fill="#000000"
        stroke="#000000"
        stroke-width="1"
        stroke-dasharray="1.1999999999999997,4.800000000000001"
        stroke-dashoffset="3"
        stroke-linecap="round"/>
    <path
        id="s"
        d="M 21.969 7.206 L 16.221 7.412 M 16.221 7.412 C 15.193 7.48 14.372 8.436 14.439 9.6 C 14.509 10.766 15.467 11.724 16.634 11.794 M 16.634 11.794 C 17.372 11.851 18.082 11.925 18.764 12 C 19.405 12.075 20.018 12.149 20.603 12.206 M 20.191 16.588 C 21.362 16.513 22.326 15.549 22.401 14.378 C 22.463 13.219 21.637 12.268 20.603 12.206 M 14.031 16.794 L 20.191 16.588"
        fill="#000000"
        fill-opacity="0"
        stroke="#000000"
        stroke-width="1"
        stroke-linecap="round"
        stroke-linejoin="round"/>
</svg>
