<svg
    xmlns="http://www.w3.org/2000/svg"
    viewBox="0 0 24 24"
    id="vector"
    width="24px"
    height="24px">
    <path
        id="a1"
        d="M 4.635 16.273 L 2.454 12.727 M 2.454 12.727 C 2.253 11.773 2.764 10.898 3.518 10.635 C 4.272 10.372 4.983 10.72 5.184 11.273 M 7.365 10.457 L 5.184 11.273"
        fill="#000000"
        fill-opacity="0"
        stroke="#000000"
        stroke-width="1"
        stroke-linecap="round"/>
    <path
        id="a2"
        d="M 9.185 12.748 L 3.226 13.19"
        fill="#000000"
        stroke="#000000"
        stroke-width="1"
        stroke-dasharray="2.1905425674752927,3.785104606410782"
        stroke-dashoffset="3.9707874546955195"
        stroke-linecap="round"/>
    <path
        id="s"
        d="M 19.365 7.727 L 18.044 8.454 M 18.044 8.454 C 17.906 8.692 17.839 9.236 18.077 9.852 C 18.323 10.475 18.875 11.027 19.498 11.273 M 19.498 11.273 C 19.934 11.474 20.268 11.737 20.503 12 C 20.723 12.263 20.844 12.526 20.863 12.727 M 19.41 15.546 C 20.051 15.281 20.621 14.711 20.886 14.069 C 21.106 13.472 21.021 12.947 20.863 12.727 M 16.635 16.273 L 19.41 15.546"
        fill="#000000"
        fill-opacity="0"
        stroke="#000000"
        stroke-width="1"
        stroke-linecap="round"
        stroke-linejoin="round"/>
</svg>
