<svg
    xmlns="http://www.w3.org/2000/svg"
    viewBox="0 0 24 24"
    id="vector"
    width="24px"
    height="24px">
    <path
        id="a1"
        d="M 5.523 16.095 L 2.809 12.905 M 2.809 12.905 C 2.559 12.391 2.648 11.85 2.912 11.523 C 3.176 11.195 3.514 11.081 3.764 11.095 M 6.477 8.859 L 3.764 11.095"
        fill="#000000"
        fill-opacity="0"
        stroke="#000000"
        stroke-width="1"
        stroke-linecap="round"/>
    <path
        id="a2"
        d="M 13.293 7.146 L 8.239 17.415"
        fill="#000000"
        stroke="#000000"
        stroke-width="1"
        stroke-dasharray="6.0285511688591304,5.416354517089961"
        stroke-dashoffset="9.080526018445555"
        stroke-linecap="round"/>
    <path
        id="s"
        d="M 18.477 7.905 L 18.666 8.809 M 18.666 8.809 C 18.831 9.106 19.02 9.509 19.317 9.938 C 19.623 10.376 20.037 10.789 20.475 11.095 M 20.475 11.095 C 20.806 11.345 21.013 11.673 21.095 12 C 21.172 12.327 21.125 12.655 20.952 12.905 M 19.143 15.191 C 19.604 14.862 20.041 14.426 20.37 13.964 C 20.644 13.559 20.81 13.178 20.952 12.905 M 17.523 16.095 L 19.143 15.191"
        fill="#000000"
        fill-opacity="0"
        stroke="#000000"
        stroke-width="1"
        stroke-linecap="round"
        stroke-linejoin="round"/>
</svg>
