<svg
    xmlns="http://www.w3.org/2000/svg"
    viewBox="0 0 24 24"
    id="vector"
    width="24px"
    height="24px">
    <path
        id="a1"
        d="M 5.784 16.043 L 2.914 12.957 M 2.914 12.957 C 2.649 12.573 2.614 12.13 2.734 11.784 C 2.853 11.438 3.082 11.188 3.346 11.043 M 6.216 8.389 L 3.346 11.043"
        fill="#000000"
        fill-opacity="0"
        stroke="#000000"
        stroke-width="1"
        stroke-linecap="round"/>
    <path
        id="a2"
        d="M 14.556 5.424 L 9.78 18.713"
        fill="#000000"
        stroke="#000000"
        stroke-width="1"
        stroke-dasharray="8.589943223377508,5.531768011393022"
        stroke-dashoffset="11.989614446563007"
        stroke-linecap="round"/>
    <path
        id="s"
        d="M 18.216 7.957 L 18.849 8.914 M 18.849 8.914 C 19.103 9.227 19.368 9.589 19.682 9.963 C 20.006 10.347 20.378 10.719 20.762 11.043 M 20.762 11.043 C 21.063 11.307 21.233 11.654 21.27 12 C 21.305 12.346 21.208 12.693 20.978 12.957 M 19.065 15.086 C 19.473 14.738 19.87 14.341 20.218 13.933 C 20.507 13.584 20.749 13.246 20.978 12.957 M 17.784 16.043 L 19.065 15.086"
        fill="#000000"
        fill-opacity="0"
        stroke="#000000"
        stroke-width="1"
        stroke-linecap="round"
        stroke-linejoin="round"/>
</svg>
