<svg
    xmlns="http://www.w3.org/2000/svg"
    viewBox="0 0 24 24"
    id="vector"
    width="24px"
    height="24px">
    <path
        id="a1"
        d="M 4.02 16.396 L 2.208 12.604 M 2.208 12.604 C 2.041 11.344 2.845 10.238 3.938 10.02 C 5.032 9.801 6.002 10.469 6.168 11.396 M 7.98 11.564 L 6.168 11.396"
        fill="#000000"
        fill-opacity="0"
        stroke="#000000"
        stroke-width="1"
        stroke-linecap="round"/>
    <path
        id="a2"
        d="M 8.392 13.829 L 2.258 12.375"
        fill="#000000"
        stroke="#000000"
        stroke-width="1"
        stroke-dasharray="1.895696245152489,4.4083642305709265"
        stroke-dashoffset="3.786914387869514"
        stroke-linecap="round"/>
    <path
        id="s"
        d="M 19.98 7.604 L 17.614 8.208 M 17.614 8.208 C 17.265 8.406 17.02 9.047 17.218 9.792 C 17.422 10.544 18.07 11.191 18.822 11.396 M 18.822 11.396 C 19.329 11.563 19.752 11.781 20.092 12 C 20.412 12.219 20.649 12.437 20.802 12.604 M 19.594 15.792 C 20.361 15.572 21.024 14.909 21.244 14.142 C 21.427 13.413 21.166 12.787 20.802 12.604 M 16.02 16.396 L 19.594 15.792"
        fill="#000000"
        fill-opacity="0"
        stroke="#000000"
        stroke-width="1"
        stroke-linecap="round"
        stroke-linejoin="round"/>
</svg>
