<svg
    xmlns="http://www.w3.org/2000/svg"
    viewBox="0 0 24 24"
    id="vector"
    width="24px"
    height="24px">
    <path
        id="a1"
        d="M 4.969 16.206 L 2.588 12.794 M 2.588 12.794 C 2.369 12.006 2.721 11.257 3.29 10.969 C 3.859 10.682 4.43 10.856 4.649 11.206 M 7.031 9.855 L 4.649 11.206"
        fill="#000000"
        fill-opacity="0"
        stroke="#000000"
        stroke-width="1"
        stroke-linecap="round"/>
    <path
        id="a2"
        d="M 10.207 11.354 L 4.473 14.241"
        fill="#000000"
        stroke="#000000"
        stroke-width="1"
        stroke-dasharray="2.6637849808846656,3.7561916557445705"
        stroke-dashoffset="4.536278166568194"
        stroke-linecap="round"/>
    <path
        id="s"
        d="M 19.031 7.794 L 18.279 8.588 M 18.279 8.588 C 18.254 8.848 18.284 9.339 18.544 9.884 C 18.813 10.438 19.313 10.937 19.866 11.206 M 19.866 11.206 C 20.262 11.425 20.549 11.713 20.726 12 C 20.893 12.287 20.95 12.575 20.897 12.794 M 19.309 15.412 C 19.883 15.123 20.403 14.604 20.692 14.03 C 20.932 13.505 20.941 13.034 20.897 12.794 M 16.969 16.206 L 19.309 15.412"
        fill="#000000"
        fill-opacity="0"
        stroke="#000000"
        stroke-width="1"
        stroke-linecap="round"
        stroke-linejoin="round"/>
</svg>
