<svg
    xmlns="http://www.w3.org/2000/svg"
    viewBox="0 0 24 24"
    id="vector"
    width="24px"
    height="24px">
    <path
        id="a1"
        d="M 1.477 16.905 L 1.191 12.095 M 1.191 12.095 C 1.165 9.572 3.177 7.512 5.674 7.477 C 8.171 7.443 10.21 9.434 10.236 11.905 M 10.523 16.141 L 10.236 11.905"
        fill="#000000"
        fill-opacity="0"
        stroke="#000000"
        stroke-width="1"
        stroke-linecap="round"/>
    <path
        id="a2"
        d="M 3 13 L 9 13"
        fill="#000000"
        stroke="#000000"
        stroke-width="1"
        stroke-dasharray="3.866666666666667,2.133333333333333"
        stroke-dashoffset="5.2"
        stroke-linecap="round"/>
    <path
        id="s"
        d="M 22.523 7.095 L 15.834 7.191 M 15.834 7.191 C 14.616 7.222 13.636 8.266 13.667 9.546 C 13.699 10.828 14.744 11.872 16.025 11.905 M 16.025 11.905 C 16.828 11.931 17.618 11.965 18.395 12 C 19.126 12.035 19.843 12.069 20.548 12.095 M 20.357 16.809 C 21.641 16.774 22.688 15.727 22.722 14.443 C 22.751 13.165 21.768 12.124 20.548 12.095 M 13.477 16.905 L 20.357 16.809"
        fill="#000000"
        fill-opacity="0"
        stroke="#000000"
        stroke-width="1"
        stroke-linecap="round"
        stroke-linejoin="round"/>
</svg>
