<svg
    xmlns="http://www.w3.org/2000/svg"
    viewBox="0 0 24 24"
    id="vector"
    width="24px"
    height="24px">
    <path
        id="a1"
        d="M 1.122 16.976 L 1.049 12.024 M 1.049 12.024 C 1.042 9.324 3.223 7.131 5.916 7.122 C 8.61 7.113 10.797 9.289 10.804 11.976 M 10.878 16.78 L 10.804 11.976"
        fill="#000000"
        fill-opacity="0"
        stroke="#000000"
        stroke-width="1"
        stroke-linecap="round"/>
    <path
        id="a2"
        d="M 3 13 L 9 13"
        fill="#000000"
        stroke="#000000"
        stroke-width="1"
        stroke-dasharray="5.466666666666667,0.5333333333333334"
        stroke-dashoffset="5.8"
        stroke-linecap="round"/>
    <path
        id="s"
        d="M 22.878 7.024 L 15.586 7.049 M 15.586 7.049 C 14.246 7.057 13.163 8.157 13.171 9.512 C 13.179 10.867 14.279 11.967 15.635 11.976 M 15.635 11.976 C 16.479 11.982 17.32 11.991 18.158 12 C 18.946 12.009 19.731 12.018 20.512 12.024 M 20.463 16.951 C 21.819 16.942 22.92 15.842 22.929 14.486 C 22.936 13.131 21.852 12.032 20.512 12.024 M 13.122 16.976 L 20.463 16.951"
        fill="#000000"
        fill-opacity="0"
        stroke="#000000"
        stroke-width="1"
        stroke-linecap="round"
        stroke-linejoin="round"/>
</svg>
