<svg
    xmlns="http://www.w3.org/2000/svg"
    viewBox="0 0 24 24"
    id="vector"
    width="24px"
    height="24px">
    <path
        id="a1"
        d="M 5.173 16.165 L 2.669 12.835 M 2.669 12.835 C 2.439 12.147 2.694 11.475 3.151 11.173 C 3.608 10.871 4.093 10.939 4.323 11.165 M 6.827 9.489 L 4.323 11.165"
        fill="#000000"
        fill-opacity="0"
        stroke="#000000"
        stroke-width="1"
        stroke-linecap="round"/>
    <path
        id="a2"
        d="M 11.172 10.038 L 5.651 15.234"
        fill="#000000"
        stroke="#000000"
        stroke-width="1"
        stroke-dasharray="3.4139390054379892,4.167897990397718"
        stroke-dashoffset="5.576166593139284"
        stroke-linecap="round"/>
    <path
        id="s"
        d="M 18.827 7.835 L 18.421 8.669 M 18.421 8.669 C 18.466 8.943 18.555 9.402 18.828 9.904 C 19.111 10.415 19.579 10.883 20.09 11.165 M 20.09 11.165 C 20.462 11.396 20.72 11.698 20.862 12 C 20.995 12.302 21.014 12.604 20.917 12.835 M 19.248 15.331 C 19.78 15.027 20.269 14.538 20.573 14.006 C 20.826 13.525 20.893 13.087 20.917 12.835 M 17.173 16.165 L 19.248 15.331"
        fill="#000000"
        fill-opacity="0"
        stroke="#000000"
        stroke-width="1"
        stroke-linecap="round"
        stroke-linejoin="round"/>
</svg>
