<svg
    xmlns="http://www.w3.org/2000/svg"
    viewBox="0 0 24 24"
    id="vector"
    width="24px"
    height="24px">
    <path
        id="a1"
        d="M 1.642 16.872 L 1.257 12.128 M 1.257 12.128 C 1.221 9.687 3.155 7.689 5.562 7.642 C 7.968 7.596 9.937 9.501 9.973 11.872 M 10.358 15.844 L 9.973 11.872"
        fill="#000000"
        fill-opacity="0"
        stroke="#000000"
        stroke-width="1"
        stroke-linecap="round"/>
    <path
        id="a2"
        d="M 3 13 L 9 13"
        fill="#000000"
        stroke="#000000"
        stroke-width="1"
        stroke-dasharray="3.0962962962962965,2.9037037037037035"
        stroke-dashoffset="4.911111111111111"
        stroke-linecap="round"/>
    <path
        id="s"
        d="M 22.358 7.128 L 15.949 7.257 M 15.949 7.257 C 14.788 7.299 13.855 8.316 13.897 9.562 C 13.94 10.809 14.959 11.828 16.206 11.872 M 16.206 11.872 C 16.99 11.907 17.756 11.954 18.505 12 C 19.209 12.046 19.895 12.093 20.564 12.128 M 20.307 16.743 C 21.558 16.696 22.58 15.674 22.627 14.424 C 22.665 13.181 21.729 12.167 20.564 12.128 M 13.642 16.872 L 20.307 16.743"
        fill="#000000"
        fill-opacity="0"
        stroke="#000000"
        stroke-width="1"
        stroke-linecap="round"
        stroke-linejoin="round"/>
</svg>
