<svg
    xmlns="http://www.w3.org/2000/svg"
    viewBox="0 0 24 24"
    id="vector"
    width="24px"
    height="24px">
    <path
        id="a1"
        d="M 1.216 16.957 L 1.086 12.043 M 1.086 12.043 C 1.075 9.39 3.211 7.232 5.852 7.216 C 8.494 7.2 10.642 9.327 10.654 11.957 M 10.784 16.611 L 10.654 11.957"
        fill="#000000"
        fill-opacity="0"
        stroke="#000000"
        stroke-width="1"
        stroke-linecap="round"/>
    <path
        id="a2"
        d="M 3 13 L 9 13"
        fill="#000000"
        stroke="#000000"
        stroke-width="1"
        stroke-dasharray="5.051851851851852,0.948148148148148"
        stroke-dashoffset="5.644444444444445"
        stroke-linecap="round"/>
    <path
        id="s"
        d="M 22.784 7.043 L 15.651 7.086 M 15.651 7.086 C 14.344 7.101 13.288 8.185 13.302 9.521 C 13.317 10.857 14.402 11.942 15.738 11.957 M 15.738 11.957 C 16.571 11.969 17.399 11.984 18.22 12 C 18.993 12.016 19.76 12.031 20.522 12.043 M 20.435 16.914 C 21.772 16.898 22.859 15.811 22.874 14.474 C 22.887 13.14 21.83 12.056 20.522 12.043 M 13.216 16.957 L 20.435 16.914"
        fill="#000000"
        fill-opacity="0"
        stroke="#000000"
        stroke-width="1"
        stroke-linecap="round"
        stroke-linejoin="round"/>
</svg>
