<svg
    xmlns="http://www.w3.org/2000/svg"
    viewBox="0 0 24 24"
    id="vector"
    width="24px"
    height="24px">
    <path
        id="a1"
        d="M 2.483 16.703 L 1.593 12.297 M 1.593 12.297 C 1.511 10.273 3.045 8.591 4.987 8.483 C 6.929 8.376 8.545 9.843 8.627 11.703 M 9.517 14.33 L 8.627 11.703"
        fill="#000000"
        fill-opacity="0"
        stroke="#000000"
        stroke-width="1"
        stroke-linecap="round"/>
    <path
        id="a2"
        d="M 8.855 13.198 L 2.823 12.851"
        fill="#000000"
        stroke="#000000"
        stroke-width="1"
        stroke-dasharray="1.249120799437776,4.792903755454841"
        stroke-dashoffset="3.0617281659055613"
        stroke-linecap="round"/>
    <path
        id="s"
        d="M 21.517 7.297 L 16.538 7.593 M 16.538 7.593 C 15.664 7.691 14.974 8.575 15.072 9.643 C 15.172 10.715 16.06 11.603 17.131 11.703 M 17.131 11.703 C 17.817 11.785 18.462 11.893 19.066 12 C 19.634 12.107 20.162 12.215 20.648 12.297 M 20.055 16.407 C 21.134 16.299 22.029 15.404 22.137 14.324 C 22.227 13.263 21.53 12.386 20.648 12.297 M 14.483 16.703 L 20.055 16.407"
        fill="#000000"
        fill-opacity="0"
        stroke="#000000"
        stroke-width="1"
        stroke-linecap="round"
        stroke-linejoin="round"/>
</svg>
