<svg
    xmlns="http://www.w3.org/2000/svg"
    viewBox="0 0 24 24"
    id="vector"
    width="24px"
    height="24px">
    <path
        id="a1"
        d="M 1.014 16.997 L 1.005 12.003 M 1.005 12.003 C 1.005 9.249 3.237 7.015 5.991 7.014 C 8.744 7.013 10.977 9.245 10.978 11.997 M 10.986 16.975 L 10.978 11.997"
        fill="#000000"
        fill-opacity="0"
        stroke="#000000"
        stroke-width="1"
        stroke-linecap="round"/>
    <path
        id="a2"
        d="M 3 13 L 9 13"
        fill="#000000"
        stroke="#000000"
        stroke-width="1"
        stroke-dasharray="5.940740740740741,0.05925925925925912"
        stroke-dashoffset="5.977777777777778"
        stroke-linecap="round"/>
    <path
        id="s"
        d="M 22.986 7.003 L 15.51 7.005 M 15.51 7.005 C 14.133 7.006 13.018 8.123 13.019 9.501 C 13.02 10.879 14.137 11.996 15.515 11.997 M 15.515 11.997 C 16.372 11.998 17.229 11.999 18.085 12 C 18.891 12.001 19.696 12.002 20.501 12.003 M 20.496 16.995 C 21.874 16.994 22.991 15.877 22.992 14.498 C 22.993 13.12 21.878 12.004 20.501 12.003 M 13.014 16.997 L 20.496 16.995"
        fill="#000000"
        fill-opacity="0"
        stroke="#000000"
        stroke-width="1"
        stroke-linecap="round"
        stroke-linejoin="round"/>
</svg>
