<svg
    xmlns="http://www.w3.org/2000/svg"
    viewBox="0 0 24 24"
    id="vector"
    width="24px"
    height="24px">
    <path
        id="a1"
        d="M 5.986 16.003 L 2.995 12.997 M 2.995 12.997 C 2.719 12.714 2.588 12.347 2.595 11.986 C 2.603 11.625 2.747 11.27 3.022 11.003 M 6.014 8.025 L 3.022 11.003"
        fill="#000000"
        fill-opacity="0"
        stroke="#000000"
        stroke-width="1"
        stroke-linecap="round"/>
    <path
        id="a2"
        d="M 15.185 4.566 L 10.547 19.36"
        fill="#000000"
        stroke="#000000"
        stroke-width="1"
        stroke-dasharray="11.373188944402374,4.130121486404778"
        stroke-dashoffset="14.287237108711494"
        stroke-linecap="round"/>
    <path
        id="s"
        d="M 18.014 7.997 L 18.99 8.995 M 18.99 8.995 C 19.314 9.322 19.638 9.652 19.965 9.982 C 20.302 10.324 20.643 10.665 20.985 11.003 M 20.985 11.003 C 21.263 11.278 21.403 11.639 21.405 12 C 21.407 12.361 21.272 12.722 20.999 12.997 M 19.004 15.005 C 19.371 14.642 19.737 14.276 20.1 13.909 C 20.402 13.604 20.701 13.299 20.999 12.997 M 17.986 16.003 L 19.004 15.005"
        fill="#000000"
        fill-opacity="0"
        stroke="#000000"
        stroke-width="1"
        stroke-linecap="round"
        stroke-linejoin="round"/>
</svg>
