<svg
    xmlns="http://www.w3.org/2000/svg"
    viewBox="0 0 24 24"
    id="vector"
    width="24px"
    height="24px">
    <path
        id="a1"
        d="M 1.335 16.933 L 1.134 12.067 M 1.134 12.067 C 1.115 9.472 3.195 7.359 5.771 7.335 C 8.347 7.311 10.446 9.375 10.464 11.933 M 10.665 16.397 L 10.464 11.933"
        fill="#000000"
        fill-opacity="0"
        stroke="#000000"
        stroke-width="1"
        stroke-linecap="round"/>
    <path
        id="a2"
        d="M 3 13 L 9 13"
        fill="#000000"
        stroke="#000000"
        stroke-width="1"
        stroke-dasharray="4.518518518518519,1.4814814814814814"
        stroke-dashoffset="5.444444444444445"
        stroke-linecap="round"/>
    <path
        id="s"
        d="M 22.665 7.067 L 15.734 7.134 M 15.734 7.134 C 14.468 7.156 13.446 8.222 13.468 9.532 C 13.491 10.844 14.557 11.91 15.868 11.933 M 15.868 11.933 C 16.688 11.952 17.498 11.976 18.3 12 C 19.053 12.024 19.798 12.048 20.533 12.067 M 20.4 16.866 C 21.712 16.842 22.781 15.773 22.805 14.46 C 22.825 13.152 21.802 12.087 20.533 12.067 M 13.335 16.933 L 20.4 16.866"
        fill="#000000"
        fill-opacity="0"
        stroke="#000000"
        stroke-width="1"
        stroke-linecap="round"
        stroke-linejoin="round"/>
</svg>
