<svg width="24" height="24" viewBox="0 0 24 24" fill="none" xmlns="http://www.w3.org/2000/svg">
<rect width="24" height="24" fill="white"/>
<path d="M14.5 5.5L9.71172 18.6557" stroke="black" stroke-linecap="round"/>
<path d="M2.70711 12.9497L3.06066 12.5962L3.06066 12.5962L2.70711 12.9497ZM2.70711 11.5355L2.35355 11.182L2.35355 11.182L2.70711 11.5355ZM6.59619 8.35355C6.79146 8.15829 6.79146 7.84171 6.59619 7.64645C6.40093 7.45118 6.08435 7.45118 5.88909 7.64645L6.59619 8.35355ZM5.88909 16.8388C6.08435 17.0341 6.40093 17.0341 6.5962 16.8388C6.79146 16.6436 6.79146 16.327 6.5962 16.1317L5.88909 16.8388ZM3.06066 12.5962C2.8654 12.4009 2.8654 12.0843 3.06066 11.8891L2.35355 11.182C1.76777 11.7678 1.76777 12.7175 2.35356 13.3033L3.06066 12.5962ZM3.06066 11.8891L6.59619 8.35355L5.88909 7.64645L2.35355 11.182L3.06066 11.8891ZM2.35356 13.3033L5.88909 16.8388L6.5962 16.1317L3.06066 12.5962L2.35356 13.3033Z" fill="black"/>
<path d="M21.2929 11.5355L20.9393 11.8891L20.9393 11.8891L21.2929 11.5355ZM21.2929 12.9497L21.6464 13.3033L21.6464 13.3033L21.2929 12.9497ZM17.4038 16.1317C17.2085 16.327 17.2085 16.6436 17.4038 16.8388C17.5991 17.0341 17.9156 17.0341 18.1109 16.8388L17.4038 16.1317ZM18.1109 7.64645C17.9156 7.45118 17.5991 7.45118 17.4038 7.64645C17.2085 7.84171 17.2085 8.15829 17.4038 8.35355L18.1109 7.64645ZM20.9393 11.8891C21.1346 12.0843 21.1346 12.4009 20.9393 12.5962L21.6464 13.3033C22.2322 12.7175 22.2322 11.7678 21.6464 11.182L20.9393 11.8891ZM20.9393 12.5962L17.4038 16.1317L18.1109 16.8388L21.6464 13.3033L20.9393 12.5962ZM21.6464 11.182L18.1109 7.64645L17.4038 8.35355L20.9393 11.8891L21.6464 11.182Z" fill="black"/>
</svg>
