<svg xmlns="http://www.w3.org/2000/svg" viewBox="0 0 4344 24" width="4344" height="24"><g stroke="#000000" stroke-linecap="round"><path d="M1 17v-5m0 0c0-2.761 2.239-5 5-5s5 2.239 5 5m0 5v-5" fill="none"/><path d="M3 13h6" fill="#000000"/><path d="M23 7h-7.5m0 0C14.119 7 13 8.119 13 9.5s1.119 2.5 2.5 2.5m0 0h5m0 5c1.381 0 2.5-1.119 2.5-2.5S21.881 12 20.5 12M13 17h7.5" fill="none" stroke-linejoin="round"/></g><g stroke="#000000" stroke-linecap="round"><path d="M25.003 16.999l-.002-4.998m0 0c0-2.76 2.238-4.997 4.997-4.998 2.759 0 4.996 2.237 4.997 4.996m.002 4.995l-.002-4.995" fill="none"/><path d="M27 13h6" fill="#000000" stroke-dasharray="5.985185185185186,0.014814814814814614" stroke-dashoffset="5.994444"/><path d="M46.997 7.001h-7.495m0 0c-1.379.001-2.497 1.119-2.497 2.499 0 1.381 1.118 2.499 2.499 2.499m0 0c.858.001 1.716.001 2.574.001.808 0 1.615 0 2.422.001m-.001 4.998c1.38-.001 2.499-1.119 2.499-2.499 0-1.381-1.118-2.499-2.498-2.499m-7.497 4.998h7.496" fill="none" stroke-linejoin="round"/></g><g stroke="#000000" stroke-linecap="round"><path d="M49.014 16.997l-.009-4.994m0 0c0-2.754 2.232-4.988 4.986-4.989 2.753-.001 4.986 2.231 4.987 4.983m.008 4.978l-.008-4.978" fill="none"/><path d="M51 13h6" fill="#000000" stroke-dasharray="5.940740740740741,0.05925925925925912" stroke-dashoffset="5.977778"/><path d="M70.986 7.003l-7.476.002m0 0c-1.377.001-2.492 1.118-2.491 2.496.001 1.378 1.118 2.495 2.496 2.496m0 0l2.57.003 2.416.003m-.005 4.992c1.378-.001 2.495-1.118 2.496-2.497.001-1.378-1.114-2.494-2.491-2.495m-7.487 4.994l7.482-.002" fill="none" stroke-linejoin="round"/></g><g stroke="#000000" stroke-linecap="round"><path d="M73.031 16.994l-.019-4.988m0 0c-.001-2.746 2.223-4.973 4.967-4.975 2.744-.002 4.97 2.221 4.972 4.963m.018 4.951l-.018-4.951" fill="none"/><path d="M75 13h6" fill="#000000" stroke-dasharray="5.866666666666667,0.13333333333333286" stroke-dashoffset="5.95"/><path d="M94.969 7.006l-7.447.006m0 0c-1.371.002-2.481 1.116-2.479 2.491.002 1.375 1.116 2.489 2.491 2.491m0 0c.855.002 1.709.004 2.562.006.804.002 1.606.004 2.407.006m-.012 4.982c1.375-.003 2.489-1.117 2.491-2.492.002-1.374-1.108-2.488-2.479-2.49m-7.472 4.988l7.46-.006" fill="none" stroke-linejoin="round"/></g><g stroke="#000000" stroke-linecap="round"><path d="M97.055 16.989l-.033-4.978m0 0c-.003-2.734 2.21-4.952 4.941-4.956 2.731-.004 4.947 2.206 4.95 4.934m.032 4.913l-.032-4.913" fill="none"/><path d="M99 13h6" fill="#000000" stroke-dasharray="5.762962962962963,0.23703703703703716" stroke-dashoffset="5.911111"/><path d="M118.945 7.011l-7.407.011m0 0c-1.362.003-2.465 1.114-2.462 2.483.004 1.37 1.114 2.48 2.484 2.484m0 0c.852.003 1.703.007 2.552.011.8.004 1.597.008 2.393.011m-.021 4.967c1.369-.004 2.48-1.115 2.484-2.484.004-1.37-1.1-2.48-2.463-2.483m-7.45 4.978l7.429-.011" fill="none" stroke-linejoin="round"/></g><g stroke="#000000" stroke-linecap="round"><path d="M121.085 16.983l-.051-4.966m0 0c-.005-2.719 2.194-4.926 4.908-4.932 2.714-.006 4.917 2.189 4.922 4.898m.051 4.864l-.051-4.864" fill="none"/><path d="M123 13h6" fill="#000000" stroke-dasharray="5.62962962962963,0.37037037037037" stroke-dashoffset="5.861111"/><path d="M142.915 7.017l-7.355.017m0 0c-1.352.006-2.447 1.111-2.441 2.474.006 1.363 1.111 2.469 2.475 2.475m0 0c.848.005 1.695.011 2.539.017.794.006 1.586.012 2.376.017m-.035 4.949c1.364-.006 2.47-1.112 2.476-2.476.006-1.363-1.089-2.468-2.441-2.473m-7.424 4.966l7.389-.017" fill="none" stroke-linejoin="round"/></g><g stroke="#000000" stroke-linecap="round"><path d="M145.122 16.976l-.073-4.952m0 0c-.007-2.7 2.174-4.893 4.867-4.902 2.694-.009 4.881 2.167 4.888 4.854m.074 4.804l-.074-4.804" fill="none"/><path d="M147 13h6" fill="#000000" stroke-dasharray="5.466666666666667,0.5333333333333334" stroke-dashoffset="5.8"/><path d="M166.878 7.024l-7.292.025m0 0c-1.34.008-2.423 1.108-2.415 2.463.008 1.355 1.108 2.455 2.464 2.464m0 0c.844.006 1.685.015 2.523.024.788.009 1.573.018 2.354.024m-.049 4.927c1.356-.009 2.457-1.109 2.466-2.465.007-1.355-1.077-2.454-2.417-2.462m-7.39 4.952l7.341-.025" fill="none" stroke-linejoin="round"/></g><g stroke="#000000" stroke-linecap="round"><path d="M169.166 16.967l-.1-4.934m0 0c-.009-2.678 2.151-4.855 4.821-4.867 2.669-.012 4.838 2.141 4.847 4.801m.1 4.734l-.1-4.734" fill="none"/><path d="M171 13h6" fill="#000000" stroke-dasharray="5.274074074074074,0.7259259259259261" stroke-dashoffset="5.727778"/><path d="M190.834 7.033l-7.218.033m0 0c-1.324.011-2.395 1.104-2.384 2.45.011 1.346 1.104 2.44 2.451 2.451m0 0c.839.009 1.674.021 2.504.033.781.012 1.558.024 2.33.033m-.067 4.901c1.347-.013 2.441-1.106 2.453-2.454.01-1.345-1.061-2.437-2.386-2.447m-7.351 4.934l7.284-.033" fill="none" stroke-linejoin="round"/></g><g stroke="#000000" stroke-linecap="round"><path d="M193.216 16.957l-.13-4.914m0 0c-.011-2.653 2.125-4.811 4.766-4.827 2.642-.016 4.79 2.111 4.802 4.741m.13 4.654l-.13-4.654" fill="none"/><path d="M195 13h6" fill="#000000" stroke-dasharray="5.051851851851852,0.948148148148148" stroke-dashoffset="5.644444"/><path d="M214.784 7.043l-7.133.043m0 0c-1.307.015-2.363 1.099-2.349 2.435.015 1.336 1.1 2.421 2.436 2.436m0 0c.833.012 1.661.027 2.482.043.773.016 1.54.031 2.302.043m-.087 4.871c1.337-.016 2.424-1.103 2.439-2.44.013-1.334-1.044-2.418-2.352-2.431m-7.306 4.914l7.219-.043" fill="none" stroke-linejoin="round"/></g><g stroke="#000000" stroke-linecap="round"><path d="M217.272 16.946l-.163-4.892m0 0c-.015-2.625 2.094-4.762 4.705-4.782 2.61-.019 4.735 2.078 4.75 4.674m.164 4.564l-.164-4.564" fill="none"/><path d="M219 13h6" fill="#000000" stroke-dasharray="4.800000000000001,1.1999999999999997" stroke-dashoffset="5.55"/><path d="M238.728 7.054l-7.037.055m0 0c-1.288.018-2.328 1.094-2.31 2.417.018 1.325 1.095 2.401 2.419 2.42m0 0c.827.015 1.646.034 2.458.054.764.02 1.52.039 2.269.054m-.109 4.837c1.326-.02 2.404-1.098 2.424-2.423.016-1.323-1.026-2.397-2.315-2.414m-7.255 4.892l7.146-.055" fill="none" stroke-linejoin="round"/></g><g stroke="#000000" stroke-linecap="round"><path d="M241.335 16.933l-.201-4.866m0 0c-.019-2.595 2.061-4.708 4.637-4.732 2.576-.024 4.675 2.04 4.693 4.598m.201 4.464l-.201-4.464" fill="none"/><path d="M243 13h6" fill="#000000" stroke-dasharray="4.518518518518519,1.4814814814814814" stroke-dashoffset="5.444444"/><path d="M262.665 7.067l-6.931.067m0 0c-1.266.022-2.288 1.088-2.266 2.398.023 1.312 1.089 2.378 2.4 2.401m0 0c.82.019 1.63.043 2.432.067.753.024 1.498.048 2.233.067m-.133 4.799c1.312-.024 2.381-1.093 2.405-2.406.02-1.308-1.003-2.373-2.272-2.393m-7.198 4.866l7.065-.067" fill="none" stroke-linejoin="round"/></g><g stroke="#000000" stroke-linecap="round"><path d="M265.403 16.919l-.242-4.838m0 0c-.022-2.561 2.025-4.648 4.564-4.678 2.538-.029 4.607 2 4.63 4.516m.242 4.355l-.242-4.355" fill="none"/><path d="M267 13h6" fill="#000000" stroke-dasharray="4.207407407407407,1.7925925925925923" stroke-dashoffset="5.327778"/><path d="M286.597 7.081l-6.815.08m0 0c-1.243.027-2.245 1.082-2.219 2.378.028 1.297 1.084 2.353 2.381 2.38m0 0c.811.023 1.612.052 2.401.081.743.029 1.475.058 2.195.081m-.161 4.758c1.299-.03 2.357-1.088 2.386-2.387.025-1.294-.979-2.347-2.225-2.371m-7.137 4.838l6.976-.08" fill="none" stroke-linejoin="round"/></g><g stroke="#000000" stroke-linecap="round"><path d="M289.477 16.905l-.286-4.81m0 0c-.026-2.523 1.986-4.583 4.483-4.618 2.497-.034 4.536 1.957 4.562 4.428m.287 4.236l-.287-4.236" fill="none"/><path d="M291 13h6" fill="#000000" stroke-dasharray="3.866666666666667,2.133333333333333" stroke-dashoffset="5.2"/><path d="M310.523 7.095l-6.689.096m0 0c-1.218.031-2.198 1.075-2.167 2.355.032 1.282 1.077 2.326 2.358 2.359m0 0c.803.026 1.593.06 2.37.095.731.035 1.448.069 2.153.095m-.191 4.714c1.284-.035 2.331-1.082 2.365-2.366.029-1.278-.954-2.319-2.174-2.348m-7.071 4.81l6.88-.096" fill="none" stroke-linejoin="round"/></g><g stroke="#000000" stroke-linecap="round"><path d="M313.557 16.889l-.334-4.778m0 0c-.031-2.484 1.943-4.514 4.397-4.554 2.453-.04 4.458 1.909 4.489 4.332m.334 4.108l-.334-4.108" fill="none"/><path d="M315 13h6" fill="#000000" stroke-dasharray="3.496296296296297,2.503703703703703" stroke-dashoffset="5.061111"/><path d="M334.443 7.111l-6.553.112m0 0c-1.191.036-2.148 1.067-2.112 2.331.038 1.265 1.07 2.297 2.335 2.335m0 0c.794.03 1.572.071 2.335.111.718.04 1.42.081 2.108.111m-.223 4.666c1.268-.04 2.302-1.075 2.343-2.343.034-1.261-.927-2.289-2.12-2.323m-6.999 4.778l6.776-.112" fill="none" stroke-linejoin="round"/></g><g stroke="#000000" stroke-linecap="round"><path d="M337.642 16.872l-.385-4.744m0 0c-.036-2.441 1.898-4.439 4.305-4.486 2.406-.046 4.375 1.859 4.411 4.23m.385 3.972l-.385-3.972" fill="none"/><path d="M339 13h6" fill="#000000" stroke-dasharray="3.0962962962962965,2.9037037037037035" stroke-dashoffset="4.911111"/><path d="M358.358 7.128l-6.409.129m0 0c-1.161.042-2.094 1.059-2.052 2.305.043 1.247 1.062 2.266 2.309 2.31m0 0c.784.035 1.55.082 2.299.128.704.046 1.39.093 2.059.128m-.257 4.615c1.251-.047 2.273-1.069 2.32-2.319.038-1.243-.898-2.257-2.063-2.296m-6.922 4.744l6.665-.129" fill="none" stroke-linejoin="round"/></g><g stroke="#000000" stroke-linecap="round"><path d="M361.732 16.854l-.439-4.708m0 0c-.041-2.397 1.85-4.361 4.207-4.414 2.357-.053 4.288 1.805 4.328 4.122m.44 3.828l-.44-3.828" fill="none"/><path d="M363 13h6" fill="#000000" stroke-dasharray="2.666666666666666,3.333333333333334" stroke-dashoffset="4.75"/><path d="M382.268 7.146l-6.255.147m0 0c-1.131.048-2.038 1.051-1.99 2.278.049 1.228 1.054 2.233 2.282 2.283m0 0c.774.04 1.527.093 2.26.146.689.053 1.359.106 2.008.146m-.293 4.561c1.232-.053 2.241-1.062 2.294-2.294.044-1.223-.866-2.222-2.001-2.267m-6.841 4.708l6.548-.147" fill="none" stroke-linejoin="round"/></g><g stroke="#000000" stroke-linecap="round"><path d="M385.827 16.835l-.496-4.67m0 0c-.046-2.349 1.8-4.278 4.104-4.338 2.304-.06 4.196 1.749 4.242 4.008m.496 3.676l-.496-3.676" fill="none"/><path d="M387 13h6" fill="#000000" stroke-dasharray="2.2074074074074073,3.7925925925925927" stroke-dashoffset="4.577778"/><path d="M406.173 7.165l-6.094.166m0 0c-1.098.054-1.978 1.042-1.924 2.249.056 1.209 1.046 2.199 2.255 2.255m0 0c.762.045 1.502.105 2.218.165.675.06 1.326.12 1.955.165m-.331 4.504c1.213-.06 2.207-1.054 2.267-2.267.05-1.203-.834-2.187-1.936-2.237m-6.756 4.67l6.425-.166" fill="none" stroke-linejoin="round"/></g><g stroke="#000000" stroke-linecap="round"><path d="M409.927 16.815l-.556-4.63m0 0c-.051-2.3 1.747-4.191 3.996-4.258 2.25-.067 4.099 1.69 4.15 3.888m.556 3.517l-.556-3.517" fill="none"/><path d="M411 13h6" fill="#000000" stroke-dasharray="1.7185185185185188,4.281481481481481" stroke-dashoffset="4.394444"/><path d="M430.073 7.185l-5.924.186m0 0c-1.065.06-1.915 1.033-1.855 2.219.063 1.187 1.038 2.162 2.225 2.225m0 0c.751.051 1.476.118 2.176.185.658.067 1.291.134 1.898.185m-.371 4.444c1.193-.067 2.172-1.046 2.239-2.239.056-1.181-.799-2.149-1.868-2.205m-6.666 4.63l6.295-.186" fill="none" stroke-linejoin="round"/></g><g stroke="#000000" stroke-linecap="round"><path d="M434.031 16.794l-.619-4.588m0 0c-.057-2.249 1.692-4.101 3.884-4.175 2.192-.075 3.998 1.628 4.055 3.763m.618 3.351l-.618-3.351" fill="none"/><path d="M441 13h-6" fill="#000000" stroke-dasharray="1.1999999999999997,4.800000000000001" stroke-dashoffset="3"/><path d="M453.969 7.206l-5.748.206m0 0c-1.028.068-1.849 1.024-1.782 2.188.07 1.166 1.028 2.124 2.195 2.194m0 0c.738.057 1.448.131 2.13.206.641.075 1.254.149 1.839.206m-.412 4.382c1.171-.075 2.135-1.039 2.21-2.21.062-1.159-.764-2.11-1.798-2.172m-6.572 4.588l6.16-.206" fill="none" stroke-linejoin="round"/></g><g stroke="#000000" stroke-linecap="round"><path d="M458.138 16.772l-.683-4.544m0 0c-.062-2.196 1.635-4.007 3.768-4.09 2.132-.082 3.893 1.565 3.956 3.634m.683 3.179l-.683-3.179" fill="none"/><path d="M464.989 13.015l-6.002-.026" fill="#000000" stroke-dasharray="1.203023955857815,4.799401880302221" stroke-dashoffset="3.003752"/><path d="M477.862 7.228l-5.565.227m0 0c-.992.075-1.782 1.014-1.707 2.155.077 1.144 1.019 2.085 2.162 2.162m0 0c.726.063 1.421.146 2.084.228.624.082 1.217.165 1.778.228m-.456 4.317c1.15-.083 2.097-1.03 2.18-2.18.069-1.135-.726-2.068-1.724-2.137m-6.476 4.544l6.02-.227" fill="none" stroke-linejoin="round"/></g><g stroke="#000000" stroke-linecap="round"><path d="M482.25 16.75l-.75-4.5m0 0c-.069-2.14 1.576-3.909 3.646-4 2.071-.091 3.785 1.498 3.854 3.5m.75 3l-.75-3" fill="none"/><path d="M488.959 13.056l-6.009-.098" fill="#000000" stroke-dasharray="1.2121154860006182,4.797666945439779" stroke-dashoffset="3.01505"/><path d="M501.75 7.25l-5.375.25m0 0c-.954.082-1.711 1.003-1.629 2.121.085 1.12 1.009 2.044 2.129 2.129m0 0c.713.069 1.391.159 2.035.25.606.091 1.178.181 1.715.25m-.5 4.25c1.127-.091 2.057-1.021 2.148-2.148.076-1.111-.688-2.026-1.648-2.102m-6.375 4.5l5.875-.25" fill="none" stroke-linejoin="round"/></g><g stroke="#000000" stroke-linecap="round"><path d="M506.365 16.727l-.819-4.454m0 0c-.075-2.083 1.515-3.809 3.522-3.908 2.007-.099 3.673 1.43 3.748 3.362m.819 2.816l-.819-2.816" fill="none"/><path d="M512.913 13.118l-6.019-.207" fill="#000000" stroke-dasharray="1.227413803042064,4.795282352754156" stroke-dashoffset="3.034223"/><path d="M525.635 7.273l-5.179.273m0 0c-.915.09-1.639.993-1.549 2.086.092 1.097.998 2.003 2.095 2.095m0 0c.699.075 1.361.174 1.985.273.588.099 1.137.198 1.65.273m-.547 4.181c1.104-.099 2.017-1.012 2.116-2.116.083-1.086-.648-1.982-1.569-2.065m-6.272 4.454l5.725-.273" fill="none" stroke-linejoin="round"/></g><g stroke="#000000" stroke-linecap="round"><path d="M530.483 16.703l-.89-4.406m0 0c-.082-2.024 1.452-3.706 3.394-3.814 1.942-.107 3.558 1.36 3.64 3.22m.89 2.627l-.89-2.627" fill="none"/><path d="M536.855 13.198l-6.032-.347" fill="#000000" stroke-dasharray="1.249120799437776,4.792903755454841" stroke-dashoffset="3.061728"/><path d="M549.517 7.297l-4.979.296m0 0c-.874.098-1.564.982-1.466 2.05.1 1.072.988 1.96 2.059 2.06m0 0c.686.082 1.331.19 1.935.297.568.107 1.096.215 1.582.297m-.593 4.11c1.079-.108 1.974-1.003 2.082-2.083.09-1.061-.607-1.938-1.489-2.027m-6.165 4.406l5.572-.296" fill="none" stroke-linejoin="round"/></g><g stroke="#000000" stroke-linecap="round"><path d="M554.604 16.679l-.962-4.358m0 0c-.089-1.964 1.388-3.601 3.263-3.717 1.875-.116 3.44 1.289 3.528 3.075m.963 2.434l-.963-2.434" fill="none"/><path d="M560.787 13.291l-6.047-.51" fill="#000000" stroke-dasharray="1.2774121978408914,4.790978714266225" stroke-dashoffset="3.097929"/><path d="M573.396 7.321l-4.773.321m0 0c-.833.105-1.488.97-1.383 2.013.109 1.047.978 1.916 2.024 2.024m0 0c.672.089 1.3.205 1.883.321.549.116 1.053.232 1.513.321m-.641 4.037c1.055-.116 1.931-.993 2.048-2.048.097-1.035-.566-1.892-1.407-1.989m-6.056 4.358l5.415-.321" fill="none" stroke-linejoin="round"/></g><g stroke="#000000" stroke-linecap="round"><path d="M578.727 16.655l-1.036-4.31m0 0c-.095-1.902 1.322-3.492 3.129-3.618 1.808-.125 3.321 1.216 3.416 2.928m1.037 2.236l-1.037-2.236" fill="none"/><path d="M584.713 13.391l-6.063-.686" fill="#000000" stroke-dasharray="1.3123635612200117,4.789472098582804" stroke-dashoffset="3.142914"/><path d="M597.273 7.345l-4.564.346m0 0c-.79.113-1.409.959-1.296 1.976.117 1.021.966 1.87 1.987 1.988m0 0c.658.095 1.267.22 1.829.345.529.125 1.01.25 1.444.345m-.691 3.964c1.029-.126 1.888-.984 2.013-2.014.105-1.008-.523-1.845-1.322-1.95m-5.946 4.31l5.255-.346" fill="none" stroke-linejoin="round"/></g><g stroke="#000000" stroke-linecap="round"><path d="M602.853 16.629l-1.112-4.258m0 0c-.102-1.84 1.256-3.384 2.994-3.518 1.738-.134 3.198 1.141 3.3 2.776m1.112 2.036l-1.112-2.036" fill="none"/><path d="M608.637 13.495l-6.08-.868" fill="#000000" stroke-dasharray="1.3538889537466563,4.78770181156722" stroke-dashoffset="3.196366"/><path d="M621.147 7.371l-4.35.37m0 0c-.748.122-1.33.948-1.209 1.938.126.995.955 1.825 1.95 1.95m0 0c.643.103 1.235.237 1.775.371.509.134.966.268 1.372.371m-.741 3.888c1.004-.135 1.843-.974 1.978-1.978.113-.982-.48-1.798-1.237-1.91m-5.832 4.258l5.091-.37" fill="none" stroke-linejoin="round"/></g><g stroke="#000000" stroke-linecap="round"><path d="M626.98 16.604l-1.188-4.208m0 0c-.109-1.777 1.188-3.272 2.856-3.416 1.667-.143 3.074 1.066 3.184 2.624m1.188 1.832l-1.188-1.832" fill="none"/><path d="M632.562 13.597l-6.097-1.048" fill="#000000" stroke-dasharray="1.4016922040997184,4.784286093264715" stroke-dashoffset="3.257486"/><path d="M645.02 7.396l-4.134.396m0 0c-.704.13-1.25.936-1.12 1.9.134.968.944 1.778 1.912 1.912m0 0c.628.109 1.201.253 1.72.396.488.143.921.287 1.3.396m-.792 3.812c.978-.144 1.798-.964 1.942-1.943.12-.953-.436-1.749-1.15-1.869m-5.718 4.208l4.926-.396" fill="none" stroke-linejoin="round"/></g><g stroke="#000000" stroke-linecap="round"><path d="M651.109 16.578l-1.265-4.156m0 0c-.117-1.713 1.12-3.16 2.716-3.313 1.596-.153 2.949.989 3.066 2.469m1.265 1.626l-1.265-1.626" fill="none"/><path d="M656.491 13.694l-6.112-1.218" fill="#000000" stroke-dasharray="1.4552321057269264,4.777194821615577" stroke-dashoffset="3.32496"/><path d="M668.891 7.422l-3.915.422m0 0c-.66.138-1.169.923-1.03 1.86.142.941.932 1.731 1.874 1.874m0 0c.613.117 1.167.269 1.664.422.467.153.876.305 1.227.422m-.844 3.734c.952-.153 1.753-.954 1.907-1.906.127-.926-.392-1.701-1.063-1.828m-5.602 4.156l4.758-.422" fill="none" stroke-linejoin="round"/></g><g stroke="#000000" stroke-linecap="round"><path d="M675.239 16.552l-1.344-4.104m0 0c-.123-1.649 1.052-3.047 2.576-3.209 1.525-.162 2.824.912 2.947 2.313m1.343 1.418l-1.343-1.418" fill="none"/><path d="M680.427 13.781l-6.126-1.37" fill="#000000" stroke-dasharray="1.5137037181716027,4.763889187685039" stroke-dashoffset="3.396982"/><path d="M692.761 7.448l-3.694.447m0 0c-.616.147-1.087.912-.94 1.822.152.914.921 1.684 1.836 1.835m0 0c.597.124 1.133.286 1.608.448.446.162.83.324 1.153.448m-.896 3.657c.926-.163 1.707-.944 1.87-1.87.136-.898-.347-1.652-.974-1.787m-5.485 4.104l4.589-.447" fill="none" stroke-linejoin="round"/></g><g stroke="#000000" stroke-linecap="round"><path d="M699.369 16.526l-1.421-4.052m0 0c-.131-1.584.982-2.933 2.434-3.105 1.453-.171 2.697.835 2.827 2.157m1.422 1.21l-1.422-1.21" fill="none"/><path d="M704.374 13.853l-6.137-1.496" fill="#000000" stroke-dasharray="1.576038694537138,4.7415294986286405" stroke-dashoffset="3.471309"/><path d="M716.631 7.474l-3.473.474m0 0c-.571.155-1.004.899-.849 1.781.161.887.91 1.637 1.797 1.797m0 0c.583.131 1.1.302 1.552.474.425.172.785.343 1.079.474m-.948 3.578c.899-.172 1.661-.933 1.833-1.833.144-.87-.302-1.602-.885-1.745m-5.368 4.052l4.42-.474" fill="none" stroke-linejoin="round"/></g><g stroke="#000000" stroke-linecap="round"><path d="M723.5 16.5l-1.5-4m0 0c-.138-1.518.913-2.819 2.293-3 1.38-.181 2.569.758 2.707 2m1.5 1l-1.5-1" fill="none"/><path d="M728.336 13.905l-6.146-1.588" fill="#000000" stroke-dasharray="1.6409288079855244,4.70723111848353" stroke-dashoffset="3.545377"/><path d="M740.5 7.5l-3.25.5m0 0c-.527.164-.922.887-.758 1.742.169.86.898 1.589 1.758 1.758m0 0c.567.138 1.066.319 1.495.5.404.181.739.362 1.005.5m-1 3.5c.873-.182 1.614-.924 1.796-1.796.151-.842-.257-1.553-.796-1.704m-5.25 4l4.25-.5" fill="none" stroke-linejoin="round"/></g><g stroke="#000000" stroke-linecap="round"><path d="M747.631 16.474l-1.579-3.948m0 0c-.145-1.453.843-2.705 2.152-2.895 1.308-.191 2.441.68 2.587 1.843m1.578.79l-1.578-.79" fill="none"/><path d="M752.315 13.934l-6.151-1.638" fill="#000000" stroke-dasharray="1.7068790808055352,4.6583535741470845" stroke-dashoffset="3.616449"/><path d="M764.369 7.526l-3.027.526m0 0c-.482.173-.84.876-.667 1.703.178.832.886 1.541 1.719 1.719m0 0c.552.145 1.031.336 1.438.526.383.19.693.381.931.526m-1.052 3.422c.846-.192 1.567-.914 1.759-1.76.159-.813-.212-1.503-.707-1.662m-5.132 3.948l4.08-.526" fill="none" stroke-linejoin="round"/></g><g stroke="#000000" stroke-linecap="round"><path d="M771.761 16.448l-1.656-3.896m0 0c-.153-1.388.773-2.591 2.01-2.791 1.236-.2 2.314.603 2.467 1.687m1.657.582l-1.657-.582" fill="none"/><path d="M776.315 13.934l-6.15-1.638" fill="#000000" stroke-dasharray="1.7723005477937548,4.592816368239325" stroke-dashoffset="3.681836"/><path d="M788.239 7.552l-2.806.553m0 0c-.437.181-.757.863-.576 1.662.187.806.875 1.494 1.68 1.681m0 0c.537.152.998.352 1.382.552.362.2.648.4.857.552m-1.104 3.343c.819-.201 1.521-.903 1.722-1.722.167-.785-.167-1.454-.618-1.621m-5.015 3.896l3.911-.553" fill="none" stroke-linejoin="round"/></g><g stroke="#000000" stroke-linecap="round"><path d="M795.891 16.422l-1.735-3.844m0 0c-.159-1.324.705-2.478 1.87-2.687 1.165-.209 2.189.526 2.348 1.531m1.735.374l-1.735-.374" fill="none"/><path d="M800.34 13.9l-6.146-1.579" fill="#000000" stroke-dasharray="1.8356580889278213,4.509445383151619" stroke-dashoffset="3.739189"/><path d="M812.109 7.578l-2.585.578m0 0c-.393.19-.675.852-.486 1.624.196.778.864 1.446 1.642 1.642m0 0c.522.159.964.369 1.326.578.341.209.602.419.783.578m-1.156 3.266c.793-.211 1.475-.893 1.686-1.686.175-.758-.122-1.405-.53-1.58m-4.898 3.844l3.742-.578" fill="none" stroke-linejoin="round"/></g><g stroke="#000000" stroke-linecap="round"><path d="M820.02 16.396l-1.812-3.792m0 0c-.167-1.26.637-2.366 1.73-2.584 1.094-.219 2.064.449 2.23 1.376m1.812.168l-1.812-.168" fill="none"/><path d="M824.392 13.829l-6.134-1.454" fill="#000000" stroke-dasharray="1.895696245152489,4.4083642305709265" stroke-dashoffset="3.786914"/><path d="M835.98 7.604l-2.366.604m0 0c-.349.198-.594.839-.396 1.584.204.752.852 1.399 1.604 1.604m0 0c.507.167.93.385 1.27.604.32.219.557.437.71.604m-1.208 3.188c.767-.22 1.43-.883 1.65-1.65.183-.729-.078-1.355-.442-1.538m-4.782 3.792l3.574-.604" fill="none" stroke-linejoin="round"/></g><g stroke="#000000" stroke-linecap="round"><path d="M844.147 16.371l-1.888-3.742m0 0c-.174-1.197.569-2.254 1.592-2.482 1.023-.228 1.94.374 2.114 1.224m1.888-.036l-1.888.036" fill="none"/><path d="M848.475 13.716l-6.116-1.256" fill="#000000" stroke-dasharray="1.9517752951238123,4.291453199592489" stroke-dashoffset="3.824744"/><path d="M859.853 7.629l-2.15.63m0 0c-.305.206-.514.827-.307 1.545.213.725.841 1.353 1.566 1.567m0 0c.492.173.897.401 1.215.629.299.228.512.456.638.629m-1.259 3.112c.741-.229 1.385-.873 1.614-1.614.19-.702-.034-1.307-.355-1.498m-4.668 3.742l3.409-.63" fill="none" stroke-linejoin="round"/></g><g stroke="#000000" stroke-linecap="round"><path d="M868.273 16.345l-1.964-3.69m0 0c-.181-1.135.503-2.146 1.457-2.382.953-.237 1.817.299 1.998 1.072m1.963-.236l-1.963.236" fill="none"/><path d="M872.593 13.556l-6.09-.975" fill="#000000" stroke-dasharray="2.0043590736247694,4.1628996144514465" stroke-dashoffset="3.854537"/><path d="M883.727 7.655l-1.936.654m0 0c-.263.215-.435.816-.22 1.508.222.698.83 1.307 1.529 1.528m0 0c.477.181.864.418 1.161.655.279.237.468.474.566.655m-1.309 3.036c.716-.238 1.341-.863 1.579-1.579.198-.675.009-1.259-.27-1.457m-4.554 3.69l3.245-.654" fill="none" stroke-linejoin="round"/></g><g stroke="#000000" stroke-linecap="round"><path d="M892.396 16.321l-2.038-3.642m0 0c-.187-1.073.437-2.037 1.323-2.283.886-.246 1.698.226 1.886.925m2.037-.434l-2.037.434" fill="none"/><path d="M896.748 13.344l-6.056-.603" fill="#000000" stroke-dasharray="2.057106465613897,4.028436837533138" stroke-dashoffset="3.881361"/><path d="M907.604 7.679l-1.727.679m0 0c-.22.223-.356.805-.134 1.471.23.673.819 1.262 1.493 1.492m0 0c.462.187.832.433 1.107.679.259.246.425.492.497.679m-1.359 2.963c.691-.248 1.297-.854 1.544-1.544.206-.649.052-1.213-.185-1.419m-4.444 3.642l3.085-.679" fill="none" stroke-linejoin="round"/></g><g stroke="#000000" stroke-linecap="round"><path d="M916.517 16.297l-2.11-3.594m0 0c-.194-1.013.373-1.932 1.192-2.186.819-.255 1.58.155 1.774.78m2.11-.627l-2.11.627" fill="none"/><path d="M920.944 13.076l-6.012-.133" fill="#000000" stroke-dasharray="2.1162926069438464,3.8975085236481344" stroke-dashoffset="3.914865"/><path d="M931.483 7.703l-1.521.704m0 0c-.179.23-.281.793-.05 1.433.238.648.809 1.218 1.457 1.457m0 0c.448.194.8.448 1.055.703.24.255.382.509.428.703m-1.407 2.89c.666-.256 1.254-.844 1.51-1.51.213-.622.093-1.167-.103-1.38m-4.335 3.594l2.928-.704" fill="none" stroke-linejoin="round"/></g><g stroke="#000000" stroke-linecap="round"><path d="M940.635 16.273l-2.181-3.546m0 0c-.201-.954.31-1.829 1.064-2.092.754-.263 1.465.085 1.666.638m2.181-.816l-2.181.816" fill="none"/><path d="M945.185 12.748l-5.959.442" fill="#000000" stroke-dasharray="2.1905425674752927,3.785104606410782" stroke-dashoffset="3.970787"/><path d="M955.365 7.727l-1.321.727m0 0c-.138.238-.205.782.033 1.398.246.623.798 1.175 1.421 1.421m0 0c.436.201.77.464 1.005.727.22.263.341.526.36.727m-1.453 2.819c.641-.265 1.211-.835 1.476-1.477.22-.597.135-1.122-.023-1.342m-4.228 3.546l2.775-.727" fill="none" stroke-linejoin="round"/></g><g stroke="#000000" stroke-linecap="round"><path d="M964.75 16.25l-2.25-3.5m0 0c-.207-.897.249-1.729.939-2 .691-.271 1.354.017 1.561.5m2.25-1l-2.25 1" fill="none"/><path d="M969.473 12.355l-5.895 1.132" fill="#000000" stroke-dasharray="2.293327765553042,3.7101025550356335" stroke-dashoffset="4.072122"/><path d="M979.25 7.75l-1.125.75m0 0c-.099.246-.133.772.113 1.363.254.599.788 1.133 1.387 1.387m0 0c.422.207.74.479.954.75.202.271.301.543.296.75m-1.5 2.75c.618-.273 1.171-.826 1.444-1.444.227-.572.174-1.079.056-1.306m-4.125 3.5l2.625-.75" fill="none" stroke-linejoin="round"/></g><g stroke="#000000" stroke-linecap="round"><path d="M988.862 16.228l-2.317-3.456m0 0c-.214-.841.19-1.631.818-1.91.629-.28 1.245-.05 1.458.366m2.317-1.179l-2.317 1.179" fill="none"/><path d="M993.813 11.891l-5.821 1.945" fill="#000000" stroke-dasharray="2.4433845780446672,3.693720742106277" stroke-dashoffset="4.249001"/><path d="M1003.138 7.772l-.935.773m0 0c-.061.253-.063.761.191 1.329.261.576.778 1.092 1.354 1.354m0 0c.408.213.71.492.906.772.184.28.261.559.232.772m-1.544 2.683c.595-.281 1.131-.817 1.412-1.412.234-.549.213-1.037.132-1.271m-4.024 3.456l2.48-.773" fill="none" stroke-linejoin="round"/></g><g stroke="#000000" stroke-linecap="round"><path d="M1012.969 16.206l-2.381-3.412m0 0c-.219-.788.133-1.537.702-1.825.569-.287 1.14-.113 1.359.237m2.382-1.351l-2.382 1.351" fill="none"/><path d="M1018.207 11.354l-5.734 2.887" fill="#000000" stroke-dasharray="2.6637849808846656,3.7561916557445705" stroke-dashoffset="4.536278"/><path d="M1027.031 7.794l-.752.794m0 0c-.025.26.005.751.265 1.296.269.554.769 1.053 1.322 1.322m0 0c.396.219.683.507.86.794.167.287.224.575.171.794m-1.588 2.618c.574-.289 1.094-.808 1.383-1.382.24-.525.249-.996.205-1.236m-3.928 3.412l2.34-.794" fill="none" stroke-linejoin="round"/></g><g stroke="#000000" stroke-linecap="round"><path d="M1037.073 16.185l-2.444-3.37m0 0c-.225-.737.078-1.447.59-1.742.511-.295 1.039-.175 1.264.112m2.444-1.517l-2.444 1.517" fill="none"/><path d="M1042.659 10.738l-5.634 3.968" fill="#000000" stroke-dasharray="2.979432772661105,3.9123075016393174" stroke-dashoffset="4.968785"/><path d="M1050.927 7.815l-.576.814m0 0c.011.267.071.742.338 1.265.276.532.76 1.015 1.292 1.291m0 0c.384.225.655.52.814.815.15.295.187.59.112.815m-1.629 2.556c.553-.297 1.057-.801 1.353-1.353.247-.503.286-.957.276-1.203m-3.834 3.37l2.205-.814" fill="none" stroke-linejoin="round"/></g><g stroke="#000000" stroke-linecap="round"><path d="M1061.173 16.165l-2.504-3.33m0 0c-.23-.688.025-1.36.482-1.662.457-.302.942-.234 1.172-.008m2.504-1.676l-2.504 1.676" fill="none"/><path d="M1067.172 10.038l-5.521 5.196" fill="#000000" stroke-dasharray="3.4139390054379892,4.167897990397718" stroke-dashoffset="5.576167"/><path d="M1074.827 7.835l-.406.834m0 0c.045.274.134.733.407 1.235.283.511.751.979 1.262 1.261m0 0c.372.231.63.533.772.835.133.302.152.604.055.835m-1.669 2.496c.532-.304 1.021-.793 1.325-1.325.253-.481.32-.919.344-1.171m-3.744 3.33l2.075-.834" fill="none" stroke-linejoin="round"/></g><g stroke="#000000" stroke-linecap="round"><path d="M1085.268 16.146l-2.561-3.292m0 0c-.235-.64-.025-1.277.379-1.586.404-.309.85-.29 1.086-.122m2.56-1.828l-2.56 1.828" fill="none"/><path d="M1091.75 9.25l-5.394 6.578" fill="#000000" stroke-dasharray="3.9875535115923513,4.519227313137999" stroke-dashoffset="6.380086"/><path d="M1098.732 7.854l-.245.853m0 0c.078.28.194.724.474 1.206.289.491.742.944 1.234 1.233m0 0c.361.236.604.545.73.854.118.309.119.618.002.854m-1.707 2.439c.513-.311.987-.785 1.298-1.298.258-.461.353-.883.409-1.141m-3.659 3.292l1.952-.853" fill="none" stroke-linejoin="round"/></g><g stroke="#000000" stroke-linecap="round"><path d="M1109.358 16.128l-2.615-3.256m0 0c-.24-.596-.073-1.199.281-1.514.355-.316.763-.344 1.003-.23m2.615-1.972l-2.615 1.972" fill="none"/><path d="M1116.328 8.462l-5.267 7.96" fill="#000000" stroke-dasharray="4.654719769555638,4.889813940099896" stroke-dashoffset="7.297142"/><path d="M1122.642 7.872l-.091.871m0 0c.108.286.25.715.536 1.179.295.472.734.911 1.207 1.206m0 0c.35.241.581.556.691.872.104.316.088.631-.049.872m-1.743 2.385c.494-.317.955-.778 1.273-1.273.263-.441.383-.849.47-1.112m-3.578 3.256l1.835-.871" fill="none" stroke-linejoin="round"/></g><g stroke="#000000" stroke-linecap="round"><path d="M1133.443 16.111l-2.666-3.222m0 0c-.245-.553-.118-1.124.189-1.446.308-.322.68-.394.925-.332m2.666-2.108l-2.666 2.108" fill="none"/><path d="M1140.841 7.762l-5.154 9.188" fill="#000000" stroke-dasharray="5.341152955026006,5.1929904847770185" stroke-dashoffset="8.206342"/><path d="M1146.557 7.889l.053.888m0 0c.137.292.304.708.596 1.153.301.455.726.88 1.181 1.181m0 0c.341.246.559.567.655.889.09.322.057.643-.098.889m-1.777 2.334c.478-.324.926-.772 1.249-1.249.269-.423.413-.817.528-1.085m-3.501 3.222l1.724-.888" fill="none" stroke-linejoin="round"/></g><g stroke="#000000" stroke-linecap="round"><path d="M1157.523 16.095l-2.714-3.19m0 0c-.25-.514-.161-1.055.103-1.382.264-.328.602-.442.852-.428m2.713-2.236l-2.713 2.236" fill="none"/><path d="M1165.293 7.146l-5.054 10.269" fill="#000000" stroke-dasharray="6.0285511688591304,5.416354517089961" stroke-dashoffset="9.080526"/><path d="M1170.477 7.905l.189.904m0 0c.165.297.354.7.651 1.129.306.438.72.851 1.158 1.157m0 0c.331.25.538.578.62.905.077.327.03.655-.143.905m-1.809 2.286c.461-.329.898-.765 1.227-1.227.274-.405.44-.786.582-1.059m-3.429 3.19l1.62-.904" fill="none" stroke-linejoin="round"/></g><g stroke="#000000" stroke-linecap="round"><path d="M1181.597 16.081l-2.758-3.162m0 0c-.254-.476-.2-.99.022-1.322.223-.333.531-.485.784-.516m2.758-2.355l-2.758 2.355" fill="none"/><path d="M1189.687 6.609l-4.967 11.211" fill="#000000" stroke-dasharray="6.704756603206931,5.557626863883431" stroke-dashoffset="9.903763"/><path d="M1194.403 7.919l.315.92m0 0c.19.301.401.693.702 1.106.312.423.714.824 1.136 1.136m0 0c.323.253.519.586.589.919.065.333.003.666-.185.919m-1.839 2.242c.446-.334.871-.759 1.206-1.205.278-.39.466-.758.633-1.037m-3.363 3.162l1.524-.92" fill="none" stroke-linejoin="round"/></g><g stroke="#000000" stroke-linecap="round"><path d="M1205.665 16.067l-2.799-3.134m0 0c-.257-.442-.236-.93-.051-1.268.185-.338.463-.525.721-.598m2.799-2.464l-2.799 2.464" fill="none"/><path d="M1214.027 6.145l-4.893 12.024" fill="#000000" stroke-dasharray="7.361121887319247,5.619826829146523" stroke-dashoffset="10.666456"/><path d="M1218.335 7.933l.431.933m0 0c.213.306.444.687.75 1.085.316.409.707.8 1.116 1.116m0 0c.315.257.501.595.558.933.055.338-.02.676-.223.933m-1.867 2.201c.433-.34.847-.754 1.187-1.187.282-.374.49-.732.68-1.014m-3.302 3.134l1.435-.933" fill="none" stroke-linejoin="round"/></g><g stroke="#000000" stroke-linecap="round"><path d="M1229.728 16.054l-2.837-3.108m0 0c-.261-.412-.269-.876-.119-1.218.151-.343.403-.563.664-.674m2.836-2.564l-2.836 2.564" fill="none"/><path d="M1238.315 5.752l-4.829 12.714" fill="#000000" stroke-dasharray="7.991176461145872,5.608780380248434" stroke-dashoffset="11.362832"/><path d="M1242.272 7.946l.537.945m0 0c.235.31.484.681.794 1.066.32.396.702.777 1.097 1.097m0 0c.308.261.485.604.532.946.044.342-.042.685-.259.946m-1.891 2.163c.419-.344.824-.749 1.169-1.169.286-.361.511-.708.722-.994m-3.245 3.108l1.354-.945" fill="none" stroke-linejoin="round"/></g><g stroke="#000000" stroke-linecap="round"><path d="M1253.784 16.043l-2.87-3.086m0 0c-.265-.384-.3-.827-.18-1.173.119-.346.348-.596.612-.741m2.87-2.654l-2.87 2.654" fill="none"/><path d="M1262.556 5.424l-4.776 13.289" fill="#000000" stroke-dasharray="8.589943223377508,5.531768011393022" stroke-dashoffset="11.989614"/><path d="M1266.216 7.957l.633.957m0 0c.254.313.519.675.833 1.049.324.384.696.756 1.08 1.08m0 0c.301.264.471.611.508.957.035.346-.062.693-.292.957m-1.913 2.129c.408-.348.805-.745 1.153-1.153.289-.349.531-.687.76-.976m-3.194 3.086l1.281-.957" fill="none" stroke-linejoin="round"/></g><g stroke="#000000" stroke-linecap="round"><path d="M1277.834 16.033l-2.9-3.066m0 0c-.267-.359-.326-.783-.235-1.133.092-.35.3-.626.567-.801m2.9-2.734l-2.9 2.734" fill="none"/><path d="M1286.752 5.156l-4.732 13.759" fill="#000000" stroke-dasharray="9.153583939585225,5.3967480692104575" stroke-dashoffset="12.545293"/><path d="M1290.166 7.967l.718.967m0 0c.271.317.551.671.868 1.034.327.373.692.738 1.065 1.065m0 0c.296.267.458.617.486.967.027.35-.08.7-.32.967m-1.933 2.099c.398-.352.787-.741 1.139-1.139.292-.338.548-.668.794-.96m-3.149 3.066l1.216-.967" fill="none" stroke-linejoin="round"/></g><g stroke="#000000" stroke-linecap="round"><path d="M1301.878 16.024l-2.927-3.048m0 0c-.269-.337-.349-.745-.281-1.098.067-.353.257-.652.526-.854m2.926-2.804l-2.926 2.804" fill="none"/><path d="M1310.907 4.944l-4.698 14.131" fill="#000000" stroke-dasharray="9.679214704085831,5.211884840661609" stroke-dashoffset="13.029712"/><path d="M1314.122 7.976l.792.975m0 0c.286.32.579.667.899 1.021.33.364.688.722 1.052 1.052m0 0c.291.27.446.623.467.976.02.353-.095.706-.344.976m-1.951 2.073c.389-.355.771-.738 1.126-1.127.296-.329.563-.651.825-.946m-3.11 3.048l1.159-.975" fill="none" stroke-linejoin="round"/></g><g stroke="#000000" stroke-linecap="round"><path d="M1325.915 16.017l-2.949-3.034m0 0c-.271-.318-.369-.712-.322-1.068.047-.356.221-.674.492-.898m2.949-2.864l-2.949 2.864" fill="none"/><path d="M1335.025 4.784l-4.672 14.412" fill="#000000" stroke-dasharray="10.164810945372857,4.985246804003108" stroke-dashoffset="13.443816"/><path d="M1338.085 7.983l.855.983m0 0c.299.322.602.664.925 1.009.333.357.685.709 1.041 1.042m0 0c.286.271.437.627.451.983.014.356-.108.712-.366.983m-1.965 2.051c.381-.358.758-.735 1.116-1.116.297-.321.576-.638.849-.935m-3.076 3.034l1.111-.983" fill="none" stroke-linejoin="round"/></g><g stroke="#000000" stroke-linecap="round"><path d="M1349.945 16.011l-2.967-3.022m0 0c-.273-.303-.385-.686-.355-1.044.03-.358.191-.691.464-.934m2.968-2.913l-2.968 2.913" fill="none"/><path d="M1359.108 4.671l-4.654 14.61" fill="#000000" stroke-dasharray="10.609159635646348,4.724605294783181" stroke-dashoffset="13.789496"/><path d="M1362.055 7.989l.907.989m0 0c.309.324.621.661.945 1 .335.351.683.698 1.033 1.033m0 0c.282.273.428.631.438.989.008.358-.119.716-.383.989m-1.979 2.033c.376-.36.748-.733 1.108-1.108.299-.314.586-.626.871-.925m-3.05 3.022l1.071-.989" fill="none" stroke-linejoin="round"/></g><g stroke="#000000" stroke-linecap="round"><path d="M1373.969 16.006l-2.981-3.012m0 0c-.275-.291-.398-.665-.381-1.025.017-.36.168-.706.442-.963m2.982-2.951l-2.982 2.951" fill="none"/><path d="M1383.16 4.6l-4.642 14.735" fill="#000000" stroke-dasharray="11.011835606766796,4.437295912856771" stroke-dashoffset="14.069476"/><path d="M1386.031 7.994l.947.994m0 0c.318.326.637.658.963.993.336.345.68.688 1.025 1.025m0 0c.28.274.422.634.427.994.005.36-.127.72-.396.994m-1.988 2.018c.371-.362.739-.73 1.101-1.101.301-.309.595-.616.887-.917m-3.028 3.012l1.04-.994" fill="none" stroke-linejoin="round"/></g><g stroke="#000000" stroke-linecap="round"><path d="M1397.986 16.003l-2.991-3.006m0 0c-.276-.283-.407-.65-.4-1.011.008-.361.152-.716.427-.983m2.992-2.978l-2.992 2.978" fill="none"/><path d="M1407.185 4.566l-4.638 14.794" fill="#000000" stroke-dasharray="11.373188944402374,4.130121486404778" stroke-dashoffset="14.287237"/><path d="M1410.014 7.997l.976.998m0 0c.324.327.648.657.975.987.337.342.678.683 1.02 1.021m0 0c.278.275.418.636.42.997.002.361-.133.722-.406.997m-1.995 2.008c.367-.363.733-.729 1.096-1.096.302-.305.601-.61.899-.912m-3.013 3.006l1.018-.998" fill="none" stroke-linejoin="round"/></g><g stroke="#000000" stroke-linecap="round"><path d="M1421.997 16.001l-2.998-3.002m0 0c-.276-.277-.413-.641-.411-1.002.002-.362.142-.722.417-.996m2.998-2.995l-2.998 2.995" fill="none"/><path d="M1431.185 4.566l-4.637 14.794" fill="#000000" stroke-dasharray="11.694335914474582,3.8092842053967217" stroke-dashoffset="14.446946"/><path d="M1434.003 7.999l.995 1m0 0c.326.327.653.656.981.984.338.34.678.679 1.017 1.018m0 0c.277.275.415.637.416.999 0 .362-.137.724-.412.999m-1.999 2.002c.365-.363.729-.728 1.093-1.093.303-.303.604-.606.906-.909m-3.003 3.002l1.004-1" fill="none" stroke-linejoin="round"/></g><g stroke="#000000" stroke-linecap="round"><path d="M1446 16l-3-3m0 0c-.276-.276-.414-.638-.414-1s.138-.724.414-1m3-3l-3 3" fill="none"/><path d="M1455.164 4.595l-4.642 14.744" fill="#000000" stroke-dasharray="11.977148992544414,3.480339389209429" stroke-dashoffset="14.553397"/><path d="M1458 8l1 1m0 0l.984.984L1461 11m0 0c.276.276.414.638.414 1s-.138.724-.414 1m-2 2l1.092-1.092L1461 13m-3 3l1-1" fill="none" stroke-linejoin="round"/></g><g stroke="#000000" stroke-linecap="round"><path d="M1470 16l-3-3m0 0c-.276-.276-.414-.638-.414-1s.138-.724.414-1m3-3l-3 3" fill="none" stroke-opacity=".997261"/><path d="M1479.126 4.647l-4.651 14.652" fill="#000000" stroke-dasharray="12.224243433860424,3.1481661084127737" stroke-dashoffset="14.611949"/><path d="M1482 8l1 1m0 0l.984.984L1485 11m0 0c.276.276.414.638.414 1s-.138.724-.414 1m-2 2l1.092-1.092L1485 13m-3 3l1-1" fill="none" stroke-linejoin="round"/></g><g stroke="#000000" stroke-linecap="round"><path d="M1494 16l-3-3m0 0c-.276-.276-.414-.638-.414-1s.138-.724.414-1m3-3l-3 3" fill="none" stroke-opacity=".989074"/><path d="M1503.073 4.719l-4.662 14.526" fill="#000000" stroke-dasharray="12.438959024005854,2.816951480811452" stroke-dashoffset="14.628465"/><path d="M1506 8l1 1m0 0l.984.984L1509 11m0 0c.276.276.414.638.414 1s-.138.724-.414 1m-2 2l1.092-1.092L1509 13m-3 3l1-1" fill="none" stroke-linejoin="round"/></g><g stroke="#000000" stroke-linecap="round"><path d="M1518 16l-3-3m0 0c-.276-.276-.414-.638-.414-1s.138-.724.414-1m3-3l-3 3" fill="none" stroke-opacity=".975528"/><path d="M1527.009 4.806l-4.676 14.374" fill="#000000" stroke-dasharray="12.625336507601713,2.4901864013839794" stroke-dashoffset="14.609249"/><path d="M1530 8l1 1m0 0l.984.984L1533 11m0 0c.276.276.414.638.414 1s-.138.724-.414 1m-2 2l1.092-1.092L1533 13m-3 3l1-1" fill="none" stroke-linejoin="round"/></g><g stroke="#000000" stroke-linecap="round"><path d="M1542 16l-3-3m0 0c-.276-.276-.414-.638-.414-1s.138-.724.414-1m3-3l-3 3" fill="none" stroke-opacity=".956773"/><path d="M1550.938 4.903l-4.691 14.204" fill="#000000" stroke-dasharray="12.788088888085207,2.1706710106949667" stroke-dashoffset="14.560979"/><path d="M1554 8l1 1m0 0l.984.984L1557 11m0 0c.276.276.414.638.414 1s-.138.724-.414 1m-2 2l1.092-1.092L1557 13m-3 3l1-1" fill="none" stroke-linejoin="round"/></g><g stroke="#000000" stroke-linecap="round"><path d="M1566 16l-3-3m0 0c-.276-.276-.414-.638-.414-1s.138-.724.414-1m3-3l-3 3" fill="none" stroke-opacity=".933013"/><path d="M1574.863 5.005l-4.708 14.024" fill="#000000" stroke-dasharray="12.932568430273685,1.8605285016390638" stroke-dashoffset="14.490638"/><path d="M1578 8l1 1m0 0l.984.984L1581 11m0 0c.276.276.414.638.414 1s-.138.724-.414 1m-2 2l1.092-1.092L1581 13m-3 3l1-1" fill="none" stroke-linejoin="round"/></g><g stroke="#000000" stroke-linecap="round"><path d="M1590 16l-3-3m0 0c-.276-.276-.414-.638-.414-1s.138-.724.414-1m3-3l-3 3" fill="none" stroke-opacity=".904508"/><path d="M1598.787 5.109l-4.725 13.842" fill="#000000" stroke-dasharray="13.064730832229701,1.561225989794208" stroke-dashoffset="14.405444"/><path d="M1602 8l1 1m0 0l.984.984L1605 11m0 0c.276.276.414.638.414 1s-.138.724-.414 1m-2 2l1.092-1.092L1605 13m-3 3l1-1" fill="none" stroke-linejoin="round"/></g><g stroke="#000000" stroke-linecap="round"><path d="M1614 16l-3-3m0 0c-.276-.276-.414-.638-.414-1s.138-.724.414-1m3-3l-3 3" fill="none" stroke-opacity=".871572"/><path d="M1622.713 5.209l-4.741 13.666" fill="#000000" stroke-dasharray="13.191098671810908,1.273601173740547" stroke-dashoffset="14.312783"/><path d="M1626 8l1 1m0 0l.984.984L1629 11m0 0c.276.276.414.638.414 1s-.138.724-.414 1m-2 2l1.092-1.092L1629 13m-3 3l1-1" fill="none" stroke-linejoin="round"/></g><g stroke="#000000" stroke-linecap="round"><path d="M1638 16l-3-3m0 0c-.276-.276-.414-.638-.414-1s.138-.724.414-1m3-3l-3 3" fill="none" stroke-opacity=".834565"/><path d="M1646.645 5.302l-4.756 13.503" fill="#000000" stroke-dasharray="13.318726836557351,0.9978934188575513" stroke-dashoffset="14.220144"/><path d="M1650 8l1 1m0 0l.984.984L1653 11m0 0c.276.276.414.638.414 1s-.138.724-.414 1m-2 2l1.092-1.092L1653 13m-3 3l1-1" fill="none" stroke-linejoin="round"/></g><g stroke="#000000" stroke-linecap="round"><path d="M1662 16l-3-3m0 0c-.276-.276-.414-.638-.414-1s.138-.724.414-1m3-3l-3 3" fill="none" stroke-opacity=".793893"/><path d="M1670.587 5.382l-4.769 13.363" fill="#000000" stroke-dasharray="13.455173120998843,0.7337777402643503" stroke-dashoffset="14.13506"/><path d="M1674 8l1 1m0 0l.984.984L1677 11m0 0c.276.276.414.638.414 1s-.138.724-.414 1m-2 2l1.092-1.092L1677 13m-3 3l1-1" fill="none" stroke-linejoin="round"/></g><g stroke="#000000" stroke-linecap="round"><path d="M1686 16l-3-3m0 0c-.276-.276-.414-.638-.414-1s.138-.724.414-1m3-3l-3 3" fill="none" stroke-opacity=".75"/><path d="M1694.541 5.444l-4.779 13.254" fill="#000000" stroke-dasharray="13.608477379032703,0.4803999754622985" stroke-dashoffset="14.065061"/><path d="M1698 8l1 1m0 0l.984.984L1701 11m0 0c.276.276.414.638.414 1s-.138.724-.414 1m-2 2l1.092-1.092L1701 13m-3 3l1-1" fill="none" stroke-linejoin="round"/></g><g stroke="#000000" stroke-linecap="round"><path d="M1710 16l-3-3m0 0c-.276-.276-.414-.638-.414-1s.138-.724.414-1m3-3l-3 3" fill="none" stroke-opacity=".703368"/><path d="M1718.511 5.485l-4.786 13.182" fill="#000000" stroke-dasharray="13.787152370995042,0.23641127807037463" stroke-dashoffset="14.017632"/><path d="M1722 8l1 1m0 0l.984.984L1725 11m0 0c.276.276.414.638.414 1s-.138.724-.414 1m-2 2l1.092-1.092L1725 13m-3 3l1-1" fill="none" stroke-linejoin="round"/></g><g stroke="#000000" stroke-linecap="round"><path d="M1734 16l-3-3m0 0c-.276-.276-.414-.638-.414-1s.138-.724.414-1m3-3l-3 3" fill="none" stroke-opacity=".654508"/><path d="M1742.5 5.5l-4.788 13.156" fill="#000000"/><path d="M1746 8l1 1m0 0l.984.984L1749 11m0 0c.276.276.414.638.414 1s-.138.724-.414 1m-2 2l1.092-1.092L1749 13m-3 3l1-1" fill="none" stroke-linejoin="round"/></g><g stroke="#000000" stroke-linecap="round"><path d="M1758 16l-3-3m0 0c-.276-.276-.414-.638-.414-1s.138-.724.414-1m3-3l-3 3" fill="none" stroke-opacity=".603956"/><path d="M1766.5 5.5l-4.788 13.156" fill="#000000"/><path d="M1770 8l1 1m0 0l.984.984L1773 11m0 0c.276.276.414.638.414 1s-.138.724-.414 1m-2 2l1.092-1.092L1773 13m-3 3l1-1" fill="none" stroke-linejoin="round"/></g><g stroke="#000000" stroke-linecap="round"><path d="M1782 16l-3-3m0 0c-.276-.276-.414-.638-.414-1s.138-.724.414-1m3-3l-3 3" fill="none" stroke-opacity=".552264"/><path d="M1790.5 5.5l-4.788 13.156" fill="#000000"/><path d="M1794 8l1 1m0 0l.984.984L1797 11m0 0c.276.276.414.638.414 1s-.138.724-.414 1m-2 2l1.092-1.092L1797 13m-3 3l1-1" fill="none" stroke-linejoin="round"/></g><g stroke="#000000" stroke-linecap="round"><path d="M1806 16l-3-3m0 0c-.276-.276-.414-.638-.414-1s.138-.724.414-1m3-3l-3 3" fill="none" stroke-opacity=".5"/><path d="M1814.5 5.5l-4.788 13.156" fill="#000000"/><path d="M1818 8l1 1m0 0l.984.984L1821 11m0 0c.276.276.414.638.414 1s-.138.724-.414 1m-2 2l1.092-1.092L1821 13m-3 3l1-1" fill="none" stroke-linejoin="round"/></g><g stroke="#000000" stroke-linecap="round"><path d="M1830 16l-3-3m0 0c-.276-.276-.414-.638-.414-1s.138-.724.414-1m3-3l-3 3" fill="none" stroke-opacity=".447736"/><path d="M1838.5 5.5l-4.788 13.156" fill="#000000"/><path d="M1842 8l1 1m0 0l.984.984L1845 11m0 0c.276.276.414.638.414 1s-.138.724-.414 1m-2 2l1.092-1.092L1845 13m-3 3l1-1" fill="none" stroke-linejoin="round"/></g><g stroke="#000000" stroke-linecap="round"><path d="M1854 16l-3-3m0 0c-.276-.276-.414-.638-.414-1s.138-.724.414-1m3-3l-3 3" fill="none" stroke-opacity=".396044"/><path d="M1862.5 5.5l-4.788 13.156" fill="#000000"/><path d="M1866 8l1 1m0 0l.984.984L1869 11m0 0c.276.276.414.638.414 1s-.138.724-.414 1m-2 2l1.092-1.092L1869 13m-3 3l1-1" fill="none" stroke-linejoin="round"/></g><g stroke="#000000" stroke-linecap="round"><path d="M1878 16l-3-3m0 0c-.276-.276-.414-.638-.414-1s.138-.724.414-1m3-3l-3 3" fill="none" stroke-opacity=".345492"/><path d="M1886.5 5.5l-4.788 13.156" fill="#000000"/><path d="M1890 8l1 1m0 0l.984.984L1893 11m0 0c.276.276.414.638.414 1s-.138.724-.414 1m-2 2l1.092-1.092L1893 13m-3 3l1-1" fill="none" stroke-linejoin="round"/></g><g stroke="#000000" stroke-linecap="round"><path d="M1902 16l-3-3m0 0c-.276-.276-.414-.638-.414-1s.138-.724.414-1m3-3l-3 3" fill="none" stroke-opacity=".296632"/><path d="M1910.5 5.5l-4.788 13.156" fill="#000000" stroke-opacity=".997261"/><path d="M1914 8l1 1m0 0l.984.984L1917 11m0 0c.276.276.414.638.414 1s-.138.724-.414 1m-2 2l1.092-1.092L1917 13m-3 3l1-1" fill="none" stroke-linejoin="round"/></g><g stroke="#000000" stroke-linecap="round"><path d="M1926 16l-3-3m0 0c-.276-.276-.414-.638-.414-1s.138-.724.414-1m3-3l-3 3" fill="none" stroke-opacity=".25"/><path d="M1934.5 5.5l-4.788 13.156" fill="#000000" stroke-opacity=".989074"/><path d="M1938 8l1 1m0 0l.984.984L1941 11m0 0c.276.276.414.638.414 1s-.138.724-.414 1m-2 2l1.092-1.092L1941 13m-3 3l1-1" fill="none" stroke-linejoin="round"/></g><g stroke="#000000" stroke-linecap="round"><path d="M1950 16l-3-3m0 0c-.276-.276-.414-.638-.414-1s.138-.724.414-1m3-3l-3 3" fill="none" stroke-opacity=".206107"/><path d="M1958.5 5.5l-4.788 13.156" fill="#000000" stroke-opacity=".975528"/><path d="M1962 8l1 1m0 0l.984.984L1965 11m0 0c.276.276.414.638.414 1s-.138.724-.414 1m-2 2l1.092-1.092L1965 13m-3 3l1-1" fill="none" stroke-linejoin="round"/></g><g stroke="#000000" stroke-linecap="round"><path d="M1974 16l-3-3m0 0c-.276-.276-.414-.638-.414-1s.138-.724.414-1m3-3l-3 3" fill="none" stroke-opacity=".165435"/><path d="M1982.5 5.5l-4.788 13.156" fill="#000000" stroke-opacity=".956773"/><path d="M1986 8l1 1m0 0l.984.984L1989 11m0 0c.276.276.414.638.414 1s-.138.724-.414 1m-2 2l1.092-1.092L1989 13m-3 3l1-1" fill="none" stroke-linejoin="round"/></g><g stroke="#000000" stroke-linecap="round"><path d="M1998 16l-3-3m0 0c-.276-.276-.414-.638-.414-1s.138-.724.414-1m3-3l-3 3" fill="none" stroke-opacity=".128428"/><path d="M2006.5 5.5l-4.788 13.156" fill="#000000" stroke-opacity=".933013"/><path d="M2010 8l1 1m0 0l.984.984L2013 11m0 0c.276.276.414.638.414 1s-.138.724-.414 1m-2 2l1.092-1.092L2013 13m-3 3l1-1" fill="none" stroke-linejoin="round"/></g><g stroke="#000000" stroke-linecap="round"><path d="M2022 16l-3-3m0 0c-.276-.276-.414-.638-.414-1s.138-.724.414-1m3-3l-3 3" fill="none" stroke-opacity=".095492"/><path d="M2030.5 5.5l-4.788 13.156" fill="#000000" stroke-opacity=".904508"/><path d="M2034 8l1 1m0 0l.984.984L2037 11m0 0c.276.276.414.638.414 1s-.138.724-.414 1m-2 2l1.092-1.092L2037 13m-3 3l1-1" fill="none" stroke-linejoin="round"/></g><g stroke="#000000" stroke-linecap="round"><path d="M2046 16l-3-3m0 0c-.276-.276-.414-.638-.414-1s.138-.724.414-1m3-3l-3 3" fill="none" stroke-opacity=".066987"/><path d="M2054.5 5.5l-4.788 13.156" fill="#000000" stroke-opacity=".871572"/><path d="M2058 8l1 1m0 0l.984.984L2061 11m0 0c.276.276.414.638.414 1s-.138.724-.414 1m-2 2l1.092-1.092L2061 13m-3 3l1-1" fill="none" stroke-linejoin="round"/></g><g stroke="#000000" stroke-linecap="round"><path d="M2070 16l-3-3m0 0c-.276-.276-.414-.638-.414-1s.138-.724.414-1m3-3l-3 3" fill="none" stroke-opacity=".043227"/><path d="M2078.5 5.5l-4.788 13.156" fill="#000000" stroke-opacity=".834565"/><path d="M2082 8l1 1m0 0l.984.984L2085 11m0 0c.276.276.414.638.414 1s-.138.724-.414 1m-2 2l1.092-1.092L2085 13m-3 3l1-1" fill="none" stroke-linejoin="round"/></g><g stroke="#000000" stroke-linecap="round"><path d="M2094 16l-3-3m0 0c-.276-.276-.414-.638-.414-1s.138-.724.414-1m3-3l-3 3" fill="none" stroke-opacity=".024472"/><path d="M2102.5 5.5l-4.788 13.156" fill="#000000" stroke-opacity=".793893"/><path d="M2106 8l1 1m0 0l.984.984L2109 11m0 0c.276.276.414.638.414 1s-.138.724-.414 1m-2 2l1.092-1.092L2109 13m-3 3l1-1" fill="none" stroke-linejoin="round"/></g><g stroke="#000000" stroke-linecap="round"><path d="M2118 16l-3-3m0 0c-.276-.276-.414-.638-.414-1s.138-.724.414-1m3-3l-3 3" fill="none" stroke-opacity=".010926"/><path d="M2126.5 5.5l-4.788 13.156" fill="#000000" stroke-opacity=".75"/><path d="M2130 8l1 1m0 0l.984.984L2133 11m0 0c.276.276.414.638.414 1s-.138.724-.414 1m-2 2l1.092-1.092L2133 13m-3 3l1-1" fill="none" stroke-linejoin="round"/></g><g stroke="#000000" stroke-linecap="round"><path d="M2142 16l-3-3m0 0c-.276-.276-.414-.638-.414-1s.138-.724.414-1m3-3l-3 3" fill="none" stroke-opacity=".002739"/><path d="M2150.5 5.5l-4.788 13.156" fill="#000000" stroke-opacity=".703368"/><path d="M2154 8l1 1m0 0l.984.984L2157 11m0 0c.276.276.414.638.414 1s-.138.724-.414 1m-2 2l1.092-1.092L2157 13m-3 3l1-1" fill="none" stroke-linejoin="round"/></g><path d="M2166 16l-3-3m0 0c-.276-.276-.414-.638-.414-1s.138-.724.414-1m3-3l-3 3" fill="none"/><path d="M2174.5 5.5l-4.788 13.156" fill="#000000" stroke="#000000" stroke-opacity=".654508" stroke-linecap="round"/><path d="M2178 8l1 1m0 0l.984.984L2181 11m0 0c.276.276.414.638.414 1s-.138.724-.414 1m-2 2l1.092-1.092L2181 13m-3 3l1-1" fill="none" stroke="#000000" stroke-linecap="round" stroke-linejoin="round"/><g stroke="#000000" stroke-linecap="round"><path d="M2190 16l-3-3m0 0c-.276-.276-.414-.638-.414-1s.138-.724.414-1m3-3l-3 3" fill="none" stroke-opacity=".002739"/><path d="M2198.5 5.5l-4.788 13.156" fill="#000000" stroke-opacity=".603956"/><path d="M2202 8l1 1m0 0l.984.984L2205 11m0 0c.276.276.414.638.414 1s-.138.724-.414 1m-2 2l1.092-1.092L2205 13m-3 3l1-1" fill="none" stroke-linejoin="round"/></g><g stroke="#000000" stroke-linecap="round"><path d="M2214 16l-3-3m0 0c-.276-.276-.414-.638-.414-1s.138-.724.414-1m3-3l-3 3" fill="none" stroke-opacity=".010926"/><path d="M2222.5 5.5l-4.788 13.156" fill="#000000" stroke-opacity=".552264"/><path d="M2226 8l1 1m0 0l.984.984L2229 11m0 0c.276.276.414.638.414 1s-.138.724-.414 1m-2 2l1.092-1.092L2229 13m-3 3l1-1" fill="none" stroke-linejoin="round"/></g><g stroke="#000000" stroke-linecap="round"><path d="M2238 16l-3-3m0 0c-.276-.276-.414-.638-.414-1s.138-.724.414-1m3-3l-3 3" fill="none" stroke-opacity=".024472"/><path d="M2246.5 5.5l-4.788 13.156" fill="#000000" stroke-opacity=".5"/><path d="M2250 8l1 1m0 0l.984.984L2253 11m0 0c.276.276.414.638.414 1s-.138.724-.414 1m-2 2l1.092-1.092L2253 13m-3 3l1-1" fill="none" stroke-linejoin="round"/></g><g stroke="#000000" stroke-linecap="round"><path d="M2262 16l-3-3m0 0c-.276-.276-.414-.638-.414-1s.138-.724.414-1m3-3l-3 3" fill="none" stroke-opacity=".043227"/><path d="M2270.5 5.5l-4.788 13.156" fill="#000000" stroke-opacity=".447736"/><path d="M2274 8l1 1m0 0l.984.984L2277 11m0 0c.276.276.414.638.414 1s-.138.724-.414 1m-2 2l1.092-1.092L2277 13m-3 3l1-1" fill="none" stroke-linejoin="round"/></g><g stroke="#000000" stroke-linecap="round"><path d="M2286 16l-3-3m0 0c-.276-.276-.414-.638-.414-1s.138-.724.414-1m3-3l-3 3" fill="none" stroke-opacity=".066987"/><path d="M2294.5 5.5l-4.788 13.156" fill="#000000" stroke-opacity=".396044"/><path d="M2298 8l1 1m0 0l.984.984L2301 11m0 0c.276.276.414.638.414 1s-.138.724-.414 1m-2 2l1.092-1.092L2301 13m-3 3l1-1" fill="none" stroke-linejoin="round"/></g><g stroke="#000000" stroke-linecap="round"><path d="M2310 16l-3-3m0 0c-.276-.276-.414-.638-.414-1s.138-.724.414-1m3-3l-3 3" fill="none" stroke-opacity=".095492"/><path d="M2318.5 5.5l-4.788 13.156" fill="#000000" stroke-opacity=".345492"/><path d="M2322 8l1 1m0 0l.984.984L2325 11m0 0c.276.276.414.638.414 1s-.138.724-.414 1m-2 2l1.092-1.092L2325 13m-3 3l1-1" fill="none" stroke-linejoin="round"/></g><g stroke="#000000" stroke-linecap="round"><path d="M2334 16l-3-3m0 0c-.276-.276-.414-.638-.414-1s.138-.724.414-1m3-3l-3 3" fill="none" stroke-opacity=".128428"/><path d="M2342.5 5.5l-4.788 13.156" fill="#000000" stroke-opacity=".296632"/><path d="M2346 8l1 1m0 0l.984.984L2349 11m0 0c.276.276.414.638.414 1s-.138.724-.414 1m-2 2l1.092-1.092L2349 13m-3 3l1-1" fill="none" stroke-opacity=".997261" stroke-linejoin="round"/></g><g stroke="#000000" stroke-linecap="round"><path d="M2358 16l-3-3m0 0c-.276-.276-.414-.638-.414-1s.138-.724.414-1m3-3l-3 3" fill="none" stroke-opacity=".165435"/><path d="M2366.5 5.5l-4.788 13.156" fill="#000000" stroke-opacity=".25"/><path d="M2370 8l1 1m0 0l.984.984L2373 11m0 0c.276.276.414.638.414 1s-.138.724-.414 1m-2 2l1.092-1.092L2373 13m-3 3l1-1" fill="none" stroke-opacity=".989074" stroke-linejoin="round"/></g><g stroke="#000000" stroke-linecap="round"><path d="M2382 16l-3-3m0 0c-.276-.276-.414-.638-.414-1s.138-.724.414-1m3-3l-3 3" fill="none" stroke-opacity=".206107"/><path d="M2390.5 5.5l-4.788 13.156" fill="#000000" stroke-opacity=".206107"/><path d="M2394 8l1 1m0 0l.984.984L2397 11m0 0c.276.276.414.638.414 1s-.138.724-.414 1m-2 2l1.092-1.092L2397 13m-3 3l1-1" fill="none" stroke-opacity=".975528" stroke-linejoin="round"/></g><g stroke="#000000" stroke-linecap="round"><path d="M2406 16l-3-3m0 0c-.276-.276-.414-.638-.414-1s.138-.724.414-1m3-3l-3 3" fill="none" stroke-opacity=".25"/><path d="M2414.5 5.5l-4.788 13.156" fill="#000000" stroke-opacity=".165435"/><path d="M2418 8l1 1m0 0l.984.984L2421 11m0 0c.276.276.414.638.414 1s-.138.724-.414 1m-2 2l1.092-1.092L2421 13m-3 3l1-1" fill="none" stroke-opacity=".956773" stroke-linejoin="round"/></g><g stroke="#000000" stroke-linecap="round"><path d="M2430 16l-3-3m0 0c-.276-.276-.414-.638-.414-1s.138-.724.414-1m3-3l-3 3" fill="none" stroke-opacity=".296632"/><path d="M2438.5 5.5l-4.788 13.156" fill="#000000" stroke-opacity=".128428"/><path d="M2442 8l1 1m0 0l.984.984L2445 11m0 0c.276.276.414.638.414 1s-.138.724-.414 1m-2 2l1.092-1.092L2445 13m-3 3l1-1" fill="none" stroke-opacity=".933013" stroke-linejoin="round"/></g><g stroke="#000000" stroke-linecap="round"><path d="M2454 16l-3-3m0 0c-.276-.276-.414-.638-.414-1s.138-.724.414-1m3-3l-3 3" fill="none" stroke-opacity=".345492"/><path d="M2462.5 5.5l-4.788 13.156" fill="#000000" stroke-opacity=".095492"/><path d="M2466 8l1 1m0 0l.984.984L2469 11m0 0c.276.276.414.638.414 1s-.138.724-.414 1m-2 2l1.092-1.092L2469 13m-3 3l1-1" fill="none" stroke-opacity=".904508" stroke-linejoin="round"/></g><g stroke="#000000" stroke-linecap="round"><path d="M2478 16l-3-3m0 0c-.276-.276-.414-.638-.414-1s.138-.724.414-1m3-3l-3 3" fill="none" stroke-opacity=".396044"/><path d="M2486.5 5.5l-4.788 13.156" fill="#000000" stroke-opacity=".066987"/><path d="M2490 8l1 1m0 0l.984.984L2493 11m0 0c.276.276.414.638.414 1s-.138.724-.414 1m-2 2l1.092-1.092L2493 13m-3 3l1-1" fill="none" stroke-opacity=".871572" stroke-linejoin="round"/></g><g stroke="#000000" stroke-linecap="round"><path d="M2502 16l-3-3m0 0c-.276-.276-.414-.638-.414-1s.138-.724.414-1m3-3l-3 3" fill="none" stroke-opacity=".447736"/><path d="M2510.5 5.5l-4.788 13.156" fill="#000000" stroke-opacity=".043227"/><path d="M2514 8l1 1m0 0l.984.984L2517 11m0 0c.276.276.414.638.414 1s-.138.724-.414 1m-2 2l1.092-1.092L2517 13m-3 3l1-1" fill="none" stroke-opacity=".834565" stroke-linejoin="round"/></g><g stroke="#000000" stroke-linecap="round"><path d="M2526 16l-3-3m0 0c-.276-.276-.414-.638-.414-1s.138-.724.414-1m3-3l-3 3" fill="none" stroke-opacity=".5"/><path d="M2534.5 5.5l-4.788 13.156" fill="#000000" stroke-opacity=".024472"/><path d="M2538 8l1 1m0 0l.984.984L2541 11m0 0c.276.276.414.638.414 1s-.138.724-.414 1m-2 2l1.092-1.092L2541 13m-3 3l1-1" fill="none" stroke-opacity=".793893" stroke-linejoin="round"/></g><g stroke="#000000" stroke-linecap="round"><path d="M2550 16l-3-3m0 0c-.276-.276-.414-.638-.414-1s.138-.724.414-1m3-3l-3 3" fill="none" stroke-opacity=".552264"/><path d="M2558.5 5.5l-4.788 13.156" fill="#000000" stroke-opacity=".010926"/><path d="M2562 8l1 1m0 0l.984.984L2565 11m0 0c.276.276.414.638.414 1s-.138.724-.414 1m-2 2l1.092-1.092L2565 13m-3 3l1-1" fill="none" stroke-opacity=".75" stroke-linejoin="round"/></g><g stroke="#000000" stroke-linecap="round"><path d="M2574 16l-3-3m0 0c-.276-.276-.414-.638-.414-1s.138-.724.414-1m3-3l-3 3" fill="none" stroke-opacity=".603956"/><path d="M2582.5 5.5l-4.788 13.156" fill="#000000" stroke-opacity=".002739"/><path d="M2586 8l1 1m0 0l.984.984L2589 11m0 0c.276.276.414.638.414 1s-.138.724-.414 1m-2 2l1.092-1.092L2589 13m-3 3l1-1" fill="none" stroke-opacity=".703368" stroke-linejoin="round"/></g><path d="M2598 16l-3-3m0 0c-.276-.276-.414-.638-.414-1s.138-.724.414-1m3-3l-3 3" fill="none" stroke="#000000" stroke-opacity=".654508" stroke-linecap="round"/><path d="M2606.5 5.5l-4.788 13.156" fill="#000000"/><path d="M2610 8l1 1m0 0l.984.984L2613 11m0 0c.276.276.414.638.414 1s-.138.724-.414 1m-2 2l1.092-1.092L2613 13m-3 3l1-1" fill="none" stroke="#000000" stroke-opacity=".654508" stroke-linecap="round" stroke-linejoin="round"/><g stroke="#000000" stroke-linecap="round"><path d="M2622 16l-3-3m0 0c-.276-.276-.414-.638-.414-1s.138-.724.414-1m3-3l-3 3" fill="none" stroke-opacity=".703368"/><path d="M2630.5 5.5l-4.788 13.156" fill="#000000" stroke-opacity=".002739"/><path d="M2634 8l1 1m0 0l.984.984L2637 11m0 0c.276.276.414.638.414 1s-.138.724-.414 1m-2 2l1.092-1.092L2637 13m-3 3l1-1" fill="none" stroke-opacity=".603956" stroke-linejoin="round"/></g><g stroke="#000000" stroke-linecap="round"><path d="M2646 16l-3-3m0 0c-.276-.276-.414-.638-.414-1s.138-.724.414-1m3-3l-3 3" fill="none" stroke-opacity=".75"/><path d="M2654.5 5.5l-4.788 13.156" fill="#000000" stroke-opacity=".010926"/><path d="M2658 8l1 1m0 0l.984.984L2661 11m0 0c.276.276.414.638.414 1s-.138.724-.414 1m-2 2l1.092-1.092L2661 13m-3 3l1-1" fill="none" stroke-opacity=".552264" stroke-linejoin="round"/></g><g stroke="#000000" stroke-linecap="round"><path d="M2670 16l-3-3m0 0c-.276-.276-.414-.638-.414-1s.138-.724.414-1m3-3l-3 3" fill="none" stroke-opacity=".793893"/><path d="M2678.5 5.5l-4.788 13.156" fill="#000000" stroke-opacity=".024472"/><path d="M2682 8l1 1m0 0l.984.984L2685 11m0 0c.276.276.414.638.414 1s-.138.724-.414 1m-2 2l1.092-1.092L2685 13m-3 3l1-1" fill="none" stroke-opacity=".5" stroke-linejoin="round"/></g><g stroke="#000000" stroke-linecap="round"><path d="M2694 16l-3-3m0 0c-.276-.276-.414-.638-.414-1s.138-.724.414-1m3-3l-3 3" fill="none" stroke-opacity=".834565"/><path d="M2702.5 5.5l-4.788 13.156" fill="#000000" stroke-opacity=".043227"/><path d="M2706 8l1 1m0 0l.984.984L2709 11m0 0c.276.276.414.638.414 1s-.138.724-.414 1m-2 2l1.092-1.092L2709 13m-3 3l1-1" fill="none" stroke-opacity=".447736" stroke-linejoin="round"/></g><g stroke="#000000" stroke-linecap="round"><path d="M2718 16l-3-3m0 0c-.276-.276-.414-.638-.414-1s.138-.724.414-1m3-3l-3 3" fill="none" stroke-opacity=".871572"/><path d="M2726.5 5.5l-4.788 13.156" fill="#000000" stroke-opacity=".066987"/><path d="M2730 8l1 1m0 0l.984.984L2733 11m0 0c.276.276.414.638.414 1s-.138.724-.414 1m-2 2l1.092-1.092L2733 13m-3 3l1-1" fill="none" stroke-opacity=".396044" stroke-linejoin="round"/></g><g stroke="#000000" stroke-linecap="round"><path d="M2742 16l-3-3m0 0c-.276-.276-.414-.638-.414-1s.138-.724.414-1m3-3l-3 3" fill="none" stroke-opacity=".904508"/><path d="M2750.5 5.5l-4.788 13.156" fill="#000000" stroke-opacity=".095492"/><path d="M2754 8l1 1m0 0l.984.984L2757 11m0 0c.276.276.414.638.414 1s-.138.724-.414 1m-2 2l1.092-1.092L2757 13m-3 3l1-1" fill="none" stroke-opacity=".345492" stroke-linejoin="round"/></g><g stroke="#000000" stroke-linecap="round"><path d="M2766 16l-3-3m0 0c-.276-.276-.414-.638-.414-1s.138-.724.414-1m3-3l-3 3" fill="none" stroke-opacity=".933013"/><path d="M2774.5 5.5l-4.788 13.156" fill="#000000" stroke-opacity=".128428"/><path d="M2778 8l1 1m0 0l.984.984L2781 11m0 0c.276.276.414.638.414 1s-.138.724-.414 1m-2 2l1.092-1.092L2781 13m-3 3l1-1" fill="none" stroke-opacity=".296632" stroke-linejoin="round"/></g><g stroke="#000000" stroke-linecap="round"><path d="M2790 16l-3-3m0 0c-.276-.276-.414-.638-.414-1s.138-.724.414-1m3-3l-3 3" fill="none" stroke-opacity=".956773"/><path d="M2798.5 5.5l-4.788 13.156" fill="#000000" stroke-opacity=".165435"/><path d="M2802 8l1 1m0 0l.984.984L2805 11m0 0c.276.276.414.638.414 1s-.138.724-.414 1m-2 2l1.092-1.092L2805 13m-3 3l1-1" fill="none" stroke-opacity=".25" stroke-linejoin="round"/></g><g stroke="#000000" stroke-linecap="round"><path d="M2814 16l-3-3m0 0c-.276-.276-.414-.638-.414-1s.138-.724.414-1m3-3l-3 3" fill="none" stroke-opacity=".975528"/><path d="M2822.5 5.5l-4.788 13.156" fill="#000000" stroke-opacity=".206107"/><path d="M2826 8l1 1m0 0l.984.984L2829 11m0 0c.276.276.414.638.414 1s-.138.724-.414 1m-2 2l1.092-1.092L2829 13m-3 3l1-1" fill="none" stroke-opacity=".206107" stroke-linejoin="round"/></g><g stroke="#000000" stroke-linecap="round"><path d="M2838 16l-3-3m0 0c-.276-.276-.414-.638-.414-1s.138-.724.414-1m3-3l-3 3" fill="none" stroke-opacity=".989074"/><path d="M2846.5 5.5l-4.788 13.156" fill="#000000" stroke-opacity=".25"/><path d="M2850 8l1 1m0 0l.984.984L2853 11m0 0c.276.276.414.638.414 1s-.138.724-.414 1m-2 2l1.092-1.092L2853 13m-3 3l1-1" fill="none" stroke-opacity=".165435" stroke-linejoin="round"/></g><g stroke="#000000" stroke-linecap="round"><path d="M2862 16l-3-3m0 0c-.276-.276-.414-.638-.414-1s.138-.724.414-1m3-3l-3 3" fill="none" stroke-opacity=".997261"/><path d="M2870.5 5.5l-4.788 13.156" fill="#000000" stroke-opacity=".296632"/><path d="M2874 8l1 1m0 0l.984.984L2877 11m0 0c.276.276.414.638.414 1s-.138.724-.414 1m-2 2l1.092-1.092L2877 13m-3 3l1-1" fill="none" stroke-opacity=".128428" stroke-linejoin="round"/></g><g stroke="#000000" stroke-linecap="round"><path d="M2886 16l-3-3m0 0c-.276-.276-.414-.638-.414-1s.138-.724.414-1m3-3l-3 3" fill="none"/><path d="M2894.5 5.5l-4.788 13.156" fill="#000000" stroke-opacity=".345492"/><path d="M2898 8l1 1m0 0l.984.984L2901 11m0 0c.276.276.414.638.414 1s-.138.724-.414 1m-2 2l1.092-1.092L2901 13m-3 3l1-1" fill="none" stroke-opacity=".095492" stroke-linejoin="round"/></g><g stroke="#000000" stroke-linecap="round"><path d="M2910 16l-3-3m0 0c-.276-.276-.414-.638-.414-1s.138-.724.414-1m3-3l-3 3" fill="none"/><path d="M2918.5 5.5l-4.788 13.156" fill="#000000" stroke-opacity=".396044"/><path d="M2922 8l1 1m0 0l.984.984L2925 11m0 0c.276.276.414.638.414 1s-.138.724-.414 1m-2 2l1.092-1.092L2925 13m-3 3l1-1" fill="none" stroke-opacity=".066987" stroke-linejoin="round"/></g><g stroke="#000000" stroke-linecap="round"><path d="M2934 16l-3-3m0 0c-.276-.276-.414-.638-.414-1s.138-.724.414-1m3-3l-3 3" fill="none"/><path d="M2942.5 5.5l-4.788 13.156" fill="#000000" stroke-opacity=".447736"/><path d="M2946 8l1 1m0 0l.984.984L2949 11m0 0c.276.276.414.638.414 1s-.138.724-.414 1m-2 2l1.092-1.092L2949 13m-3 3l1-1" fill="none" stroke-opacity=".043227" stroke-linejoin="round"/></g><g stroke="#000000" stroke-linecap="round"><path d="M2958 16l-3-3m0 0c-.276-.276-.414-.638-.414-1s.138-.724.414-1m3-3l-3 3" fill="none"/><path d="M2966.5 5.5l-4.788 13.156" fill="#000000" stroke-opacity=".5"/><path d="M2970 8l1 1m0 0l.984.984L2973 11m0 0c.276.276.414.638.414 1s-.138.724-.414 1m-2 2l1.092-1.092L2973 13m-3 3l1-1" fill="none" stroke-opacity=".024472" stroke-linejoin="round"/></g><g stroke="#000000" stroke-linecap="round"><path d="M2982 16l-3-3m0 0c-.276-.276-.414-.638-.414-1s.138-.724.414-1m3-3l-3 3" fill="none"/><path d="M2990.5 5.5l-4.788 13.156" fill="#000000" stroke-opacity=".552264"/><path d="M2994 8l1 1m0 0l.984.984L2997 11m0 0c.276.276.414.638.414 1s-.138.724-.414 1m-2 2l1.092-1.092L2997 13m-3 3l1-1" fill="none" stroke-opacity=".010926" stroke-linejoin="round"/></g><g stroke="#000000" stroke-linecap="round"><path d="M3006 16l-3-3m0 0c-.276-.276-.414-.638-.414-1s.138-.724.414-1m3-3l-3 3" fill="none"/><path d="M3014.5 5.5l-4.788 13.156" fill="#000000" stroke-opacity=".603956"/><path d="M3018 8l1 1m0 0l.984.984L3021 11m0 0c.276.276.414.638.414 1s-.138.724-.414 1m-2 2l1.092-1.092L3021 13m-3 3l1-1" fill="none" stroke-opacity=".002739" stroke-linejoin="round"/></g><path d="M3030 16l-3-3m0 0c-.276-.276-.414-.638-.414-1s.138-.724.414-1m3-3l-3 3" fill="none" stroke="#000000" stroke-linecap="round"/><path d="M3038.5 5.5l-4.788 13.156" fill="#000000" stroke="#000000" stroke-opacity=".654508" stroke-linecap="round"/><path d="M3042 8l1 1m0 0l.984.984L3045 11m0 0c.276.276.414.638.414 1s-.138.724-.414 1m-2 2l1.092-1.092L3045 13m-3 3l1-1" fill="none"/><g stroke="#000000" stroke-linecap="round"><path d="M3054 16l-3-3m0 0c-.276-.276-.414-.638-.414-1s.138-.724.414-1m3-3l-3 3" fill="none"/><path d="M3062.5 5.5l-4.788 13.156" fill="#000000" stroke-opacity=".703368"/><path d="M3066 8l1 1m0 0l.984.984L3069 11m0 0c.276.276.414.638.414 1s-.138.724-.414 1m-2 2l1.092-1.092L3069 13m-3 3l1-1" fill="none" stroke-opacity=".002739" stroke-linejoin="round"/></g><g stroke="#000000" stroke-linecap="round"><path d="M3078 16l-3-3m0 0c-.276-.276-.414-.638-.414-1s.138-.724.414-1m3-3l-3 3" fill="none"/><path d="M3086.5 5.5l-4.788 13.156" fill="#000000" stroke-opacity=".75"/><path d="M3090 8l1 1m0 0l.984.984L3093 11m0 0c.276.276.414.638.414 1s-.138.724-.414 1m-2 2l1.092-1.092L3093 13m-3 3l1-1" fill="none" stroke-opacity=".010926" stroke-linejoin="round"/></g><g stroke="#000000" stroke-linecap="round"><path d="M3102 16l-3-3m0 0c-.276-.276-.414-.638-.414-1s.138-.724.414-1m3-3l-3 3" fill="none"/><path d="M3110.5 5.5l-4.788 13.156" fill="#000000" stroke-opacity=".793893"/><path d="M3114 8l1 1m0 0l.984.984L3117 11m0 0c.276.276.414.638.414 1s-.138.724-.414 1m-2 2l1.092-1.092L3117 13m-3 3l1-1" fill="none" stroke-opacity=".024472" stroke-linejoin="round"/></g><g stroke="#000000" stroke-linecap="round"><path d="M3126 16l-3-3m0 0c-.276-.276-.414-.638-.414-1s.138-.724.414-1m3-3l-3 3" fill="none"/><path d="M3134.5 5.5l-4.788 13.156" fill="#000000" stroke-opacity=".834565"/><path d="M3138 8l1 1m0 0l.984.984L3141 11m0 0c.276.276.414.638.414 1s-.138.724-.414 1m-2 2l1.092-1.092L3141 13m-3 3l1-1" fill="none" stroke-opacity=".043227" stroke-linejoin="round"/></g><g stroke="#000000" stroke-linecap="round"><path d="M3150 16l-3-3m0 0c-.276-.276-.414-.638-.414-1s.138-.724.414-1m3-3l-3 3" fill="none"/><path d="M3158.5 5.5l-4.788 13.156" fill="#000000" stroke-opacity=".871572"/><path d="M3162 8l1 1m0 0l.984.984L3165 11m0 0c.276.276.414.638.414 1s-.138.724-.414 1m-2 2l1.092-1.092L3165 13m-3 3l1-1" fill="none" stroke-opacity=".066987" stroke-linejoin="round"/></g><g stroke="#000000" stroke-linecap="round"><path d="M3174 16l-3-3m0 0c-.276-.276-.414-.638-.414-1s.138-.724.414-1m3-3l-3 3" fill="none"/><path d="M3182.5 5.5l-4.788 13.156" fill="#000000" stroke-opacity=".904508"/><path d="M3186 8l1 1m0 0l.984.984L3189 11m0 0c.276.276.414.638.414 1s-.138.724-.414 1m-2 2l1.092-1.092L3189 13m-3 3l1-1" fill="none" stroke-opacity=".095492" stroke-linejoin="round"/></g><g stroke="#000000" stroke-linecap="round"><path d="M3198 16l-3-3m0 0c-.276-.276-.414-.638-.414-1s.138-.724.414-1m3-3l-3 3" fill="none"/><path d="M3206.5 5.5l-4.788 13.156" fill="#000000" stroke-opacity=".933013"/><path d="M3210 8l1 1m0 0l.984.984L3213 11m0 0c.276.276.414.638.414 1s-.138.724-.414 1m-2 2l1.092-1.092L3213 13m-3 3l1-1" fill="none" stroke-opacity=".128428" stroke-linejoin="round"/></g><g stroke="#000000" stroke-linecap="round"><path d="M3222 16l-3-3m0 0c-.276-.276-.414-.638-.414-1s.138-.724.414-1m3-3l-3 3" fill="none"/><path d="M3230.5 5.5l-4.788 13.156" fill="#000000" stroke-opacity=".956773"/><path d="M3234 8l1 1m0 0l.984.984L3237 11m0 0c.276.276.414.638.414 1s-.138.724-.414 1m-2 2l1.092-1.092L3237 13m-3 3l1-1" fill="none" stroke-opacity=".165435" stroke-linejoin="round"/></g><g stroke="#000000" stroke-linecap="round"><path d="M3246 16l-3-3m0 0c-.276-.276-.414-.638-.414-1s.138-.724.414-1m3-3l-3 3" fill="none"/><path d="M3254.5 5.5l-4.788 13.156" fill="#000000" stroke-opacity=".975528"/><path d="M3258 8l1 1m0 0l.984.984L3261 11m0 0c.276.276.414.638.414 1s-.138.724-.414 1m-2 2l1.092-1.092L3261 13m-3 3l1-1" fill="none" stroke-opacity=".206107" stroke-linejoin="round"/></g><g stroke="#000000" stroke-linecap="round"><path d="M3270 16l-3-3m0 0c-.276-.276-.414-.638-.414-1s.138-.724.414-1m3-3l-3 3" fill="none"/><path d="M3278.5 5.5l-4.788 13.156" fill="#000000" stroke-opacity=".989074"/><path d="M3282 8l1 1m0 0l.984.984L3285 11m0 0c.276.276.414.638.414 1s-.138.724-.414 1m-2 2l1.092-1.092L3285 13m-3 3l1-1" fill="none" stroke-opacity=".25" stroke-linejoin="round"/></g><g stroke="#000000" stroke-linecap="round"><path d="M3294 16l-3-3m0 0c-.276-.276-.414-.638-.414-1s.138-.724.414-1m3-3l-3 3" fill="none"/><path d="M3302.5 5.5l-4.788 13.156" fill="#000000" stroke-opacity=".997261"/><path d="M3306 8l1 1m0 0l.984.984L3309 11m0 0c.276.276.414.638.414 1s-.138.724-.414 1m-2 2l1.092-1.092L3309 13m-3 3l1-1" fill="none" stroke-opacity=".296632" stroke-linejoin="round"/></g><g stroke="#000000" stroke-linecap="round"><path d="M3318 16l-3-3m0 0c-.276-.276-.414-.638-.414-1s.138-.724.414-1m3-3l-3 3" fill="none"/><path d="M3326.5 5.5l-4.788 13.156" fill="#000000"/><path d="M3330 8l1 1m0 0l.984.984L3333 11m0 0c.276.276.414.638.414 1s-.138.724-.414 1m-2 2l1.092-1.092L3333 13m-3 3l1-1" fill="none" stroke-opacity=".345492" stroke-linejoin="round"/></g><g stroke="#000000" stroke-linecap="round"><path d="M3342 16l-3-3m0 0c-.276-.276-.414-.638-.414-1s.138-.724.414-1m3-3l-3 3" fill="none"/><path d="M3350.5 5.5l-4.788 13.156" fill="#000000"/><path d="M3354 8l1 1m0 0l.984.984L3357 11m0 0c.276.276.414.638.414 1s-.138.724-.414 1m-2 2l1.092-1.092L3357 13m-3 3l1-1" fill="none" stroke-opacity=".396044" stroke-linejoin="round"/></g><g stroke="#000000" stroke-linecap="round"><path d="M3366 16l-3-3m0 0c-.276-.276-.414-.638-.414-1s.138-.724.414-1m3-3l-3 3" fill="none"/><path d="M3374.5 5.5l-4.788 13.156" fill="#000000"/><path d="M3378 8l1 1m0 0l.984.984L3381 11m0 0c.276.276.414.638.414 1s-.138.724-.414 1m-2 2l1.092-1.092L3381 13m-3 3l1-1" fill="none" stroke-opacity=".447736" stroke-linejoin="round"/></g><g stroke="#000000" stroke-linecap="round"><path d="M3390 16l-3-3m0 0c-.276-.276-.414-.638-.414-1s.138-.724.414-1m3-3l-3 3" fill="none"/><path d="M3398.5 5.5l-4.788 13.156" fill="#000000"/><path d="M3402 8l1 1m0 0l.984.984L3405 11m0 0c.276.276.414.638.414 1s-.138.724-.414 1m-2 2l1.092-1.092L3405 13m-3 3l1-1" fill="none" stroke-opacity=".5" stroke-linejoin="round"/></g><g stroke="#000000" stroke-linecap="round"><path d="M3414 16l-3-3m0 0c-.276-.276-.414-.638-.414-1s.138-.724.414-1m3-3l-3 3" fill="none"/><path d="M3422.5 5.5l-4.788 13.156" fill="#000000"/><path d="M3426 8l1 1m0 0l.984.984L3429 11m0 0c.276.276.414.638.414 1s-.138.724-.414 1m-2 2l1.092-1.092L3429 13m-3 3l1-1" fill="none" stroke-opacity=".552264" stroke-linejoin="round"/></g><g stroke="#000000" stroke-linecap="round"><path d="M3438 16l-3-3m0 0c-.276-.276-.414-.638-.414-1s.138-.724.414-1m3-3l-3 3" fill="none"/><path d="M3446.5 5.5l-4.788 13.156" fill="#000000"/><path d="M3450 8l1 1m0 0l.984.984L3453 11m0 0c.276.276.414.638.414 1s-.138.724-.414 1m-2 2l1.092-1.092L3453 13m-3 3l1-1" fill="none" stroke-opacity=".603956" stroke-linejoin="round"/></g><g stroke="#000000" stroke-linecap="round"><path d="M3462 16l-3-3m0 0c-.276-.276-.414-.638-.414-1s.138-.724.414-1m3-3l-3 3" fill="none"/><path d="M3470.5 5.5l-4.788 13.156" fill="#000000"/><path d="M3474 8l1 1m0 0l.984.984L3477 11m0 0c.276.276.414.638.414 1s-.138.724-.414 1m-2 2l1.092-1.092L3477 13m-3 3l1-1" fill="none" stroke-opacity=".654508" stroke-linejoin="round"/></g><g stroke="#000000" stroke-linecap="round"><path d="M3486 16l-3-3m0 0c-.276-.276-.414-.638-.414-1s.138-.724.414-1m3-3l-3 3" fill="none"/><path d="M3494.5 5.5l-4.788 13.156" fill="#000000"/><path d="M3498 8l1 1m0 0l.984.984L3501 11m0 0c.276.276.414.638.414 1s-.138.724-.414 1m-2 2l1.092-1.092L3501 13m-3 3l1-1" fill="none" stroke-opacity=".703368" stroke-linejoin="round"/></g><g stroke="#000000" stroke-linecap="round"><path d="M3510 16l-3-3m0 0c-.276-.276-.414-.638-.414-1s.138-.724.414-1m3-3l-3 3" fill="none"/><path d="M3518.5 5.5l-4.788 13.156" fill="#000000"/><path d="M3522 8l1 1m0 0l.984.984L3525 11m0 0c.276.276.414.638.414 1s-.138.724-.414 1m-2 2l1.092-1.092L3525 13m-3 3l1-1" fill="none" stroke-opacity=".75" stroke-linejoin="round"/></g><g stroke="#000000" stroke-linecap="round"><path d="M3534 16l-3-3m0 0c-.276-.276-.414-.638-.414-1s.138-.724.414-1m3-3l-3 3" fill="none"/><path d="M3542.5 5.5l-4.788 13.156" fill="#000000"/><path d="M3546 8l1 1m0 0l.984.984L3549 11m0 0c.276.276.414.638.414 1s-.138.724-.414 1m-2 2l1.092-1.092L3549 13m-3 3l1-1" fill="none" stroke-opacity=".793893" stroke-linejoin="round"/></g><g stroke="#000000" stroke-linecap="round"><path d="M3558 16l-3-3m0 0c-.276-.276-.414-.638-.414-1s.138-.724.414-1m3-3l-3 3" fill="none"/><path d="M3566.5 5.5l-4.788 13.156" fill="#000000"/><path d="M3570 8l1 1m0 0l.984.984L3573 11m0 0c.276.276.414.638.414 1s-.138.724-.414 1m-2 2l1.092-1.092L3573 13m-3 3l1-1" fill="none" stroke-opacity=".834565" stroke-linejoin="round"/></g><g stroke="#000000" stroke-linecap="round"><path d="M3582 16l-3-3m0 0c-.276-.276-.414-.638-.414-1s.138-.724.414-1m3-3l-3 3" fill="none"/><path d="M3590.5 5.5l-4.788 13.156" fill="#000000"/><path d="M3594 8l1 1m0 0l.984.984L3597 11m0 0c.276.276.414.638.414 1s-.138.724-.414 1m-2 2l1.092-1.092L3597 13m-3 3l1-1" fill="none" stroke-opacity=".871572" stroke-linejoin="round"/></g><g stroke="#000000" stroke-linecap="round"><path d="M3606 16l-3-3m0 0c-.276-.276-.414-.638-.414-1s.138-.724.414-1m3-3l-3 3" fill="none"/><path d="M3614.5 5.5l-4.788 13.156" fill="#000000"/><path d="M3618 8l1 1m0 0l.984.984L3621 11m0 0c.276.276.414.638.414 1s-.138.724-.414 1m-2 2l1.092-1.092L3621 13m-3 3l1-1" fill="none" stroke-opacity=".904508" stroke-linejoin="round"/></g><g stroke="#000000" stroke-linecap="round"><path d="M3630 16l-3-3m0 0c-.276-.276-.414-.638-.414-1s.138-.724.414-1m3-3l-3 3" fill="none"/><path d="M3638.5 5.5l-4.788 13.156" fill="#000000"/><path d="M3642 8l1 1m0 0l.984.984L3645 11m0 0c.276.276.414.638.414 1s-.138.724-.414 1m-2 2l1.092-1.092L3645 13m-3 3l1-1" fill="none" stroke-opacity=".933013" stroke-linejoin="round"/></g><g stroke="#000000" stroke-linecap="round"><path d="M3654 16l-3-3m0 0c-.276-.276-.414-.638-.414-1s.138-.724.414-1m3-3l-3 3" fill="none"/><path d="M3662.5 5.5l-4.788 13.156" fill="#000000"/><path d="M3666 8l1 1m0 0l.984.984L3669 11m0 0c.276.276.414.638.414 1s-.138.724-.414 1m-2 2l1.092-1.092L3669 13m-3 3l1-1" fill="none" stroke-opacity=".956773" stroke-linejoin="round"/></g><g stroke="#000000" stroke-linecap="round"><path d="M3678 16l-3-3m0 0c-.276-.276-.414-.638-.414-1s.138-.724.414-1m3-3l-3 3" fill="none"/><path d="M3686.5 5.5l-4.788 13.156" fill="#000000"/><path d="M3690 8l1 1m0 0l.984.984L3693 11m0 0c.276.276.414.638.414 1s-.138.724-.414 1m-2 2l1.092-1.092L3693 13m-3 3l1-1" fill="none" stroke-opacity=".975528" stroke-linejoin="round"/></g><g stroke="#000000" stroke-linecap="round"><path d="M3702 16l-3-3m0 0c-.276-.276-.414-.638-.414-1s.138-.724.414-1m3-3l-3 3" fill="none"/><path d="M3710.5 5.5l-4.788 13.156" fill="#000000"/><path d="M3714 8l1 1m0 0l.984.984L3717 11m0 0c.276.276.414.638.414 1s-.138.724-.414 1m-2 2l1.092-1.092L3717 13m-3 3l1-1" fill="none" stroke-opacity=".989074" stroke-linejoin="round"/></g><g stroke="#000000" stroke-linecap="round"><path d="M3726 16l-3-3m0 0c-.276-.276-.414-.638-.414-1s.138-.724.414-1m3-3l-3 3" fill="none"/><path d="M3734.5 5.5l-4.788 13.156" fill="#000000"/><path d="M3738 8l1 1m0 0l.984.984L3741 11m0 0c.276.276.414.638.414 1s-.138.724-.414 1m-2 2l1.092-1.092L3741 13m-3 3l1-1" fill="none" stroke-opacity=".997261" stroke-linejoin="round"/></g><g stroke="#000000" stroke-linecap="round"><path d="M3750 16l-3-3m0 0c-.276-.276-.414-.638-.414-1s.138-.724.414-1m3-3l-3 3" fill="none"/><path d="M3758.5 5.5l-4.788 13.156" fill="#000000"/><path d="M3762 8l1 1m0 0l.984.984L3765 11m0 0c.276.276.414.638.414 1s-.138.724-.414 1m-2 2l1.092-1.092L3765 13m-3 3l1-1" fill="none" stroke-linejoin="round"/></g><g stroke="#000000" stroke-linecap="round"><path d="M3774 16l-3-3m0 0c-.276-.276-.414-.638-.414-1s.138-.724.414-1m3-3l-3 3" fill="none"/><path d="M3782.5 5.5l-4.788 13.156" fill="#000000"/><path d="M3786 8l1 1m0 0l.984.984L3789 11m0 0c.276.276.414.638.414 1s-.138.724-.414 1m-2 2l1.092-1.092L3789 13m-3 3l1-1" fill="none" stroke-linejoin="round"/></g><g stroke="#000000" stroke-linecap="round"><path d="M3798 16l-3-3m0 0c-.276-.276-.414-.638-.414-1s.138-.724.414-1m3-3l-3 3" fill="none"/><path d="M3806.5 5.5l-4.788 13.156" fill="#000000"/><path d="M3810 8l1 1m0 0l.984.984L3813 11m0 0c.276.276.414.638.414 1s-.138.724-.414 1m-2 2l1.092-1.092L3813 13m-3 3l1-1" fill="none" stroke-linejoin="round"/></g><g stroke="#000000" stroke-linecap="round"><path d="M3822 16l-3-3m0 0c-.276-.276-.414-.638-.414-1s.138-.724.414-1m3-3l-3 3" fill="none"/><path d="M3830.5 5.5l-4.788 13.156" fill="#000000"/><path d="M3834 8l1 1m0 0l.984.984L3837 11m0 0c.276.276.414.638.414 1s-.138.724-.414 1m-2 2l1.092-1.092L3837 13m-3 3l1-1" fill="none" stroke-linejoin="round"/></g><g stroke="#000000" stroke-linecap="round"><path d="M3846 16l-3-3m0 0c-.276-.276-.414-.638-.414-1s.138-.724.414-1m3-3l-3 3" fill="none"/><path d="M3854.5 5.5l-4.788 13.156" fill="#000000"/><path d="M3858 8l1 1m0 0l.984.984L3861 11m0 0c.276.276.414.638.414 1s-.138.724-.414 1m-2 2l1.092-1.092L3861 13m-3 3l1-1" fill="none" stroke-linejoin="round"/></g><g stroke="#000000" stroke-linecap="round"><path d="M3870 16l-3-3m0 0c-.276-.276-.414-.638-.414-1s.138-.724.414-1m3-3l-3 3" fill="none"/><path d="M3878.5 5.5l-4.788 13.156" fill="#000000"/><path d="M3882 8l1 1m0 0l.984.984L3885 11m0 0c.276.276.414.638.414 1s-.138.724-.414 1m-2 2l1.092-1.092L3885 13m-3 3l1-1" fill="none" stroke-linejoin="round"/></g><g stroke="#000000" stroke-linecap="round"><path d="M3894 16l-3-3m0 0c-.276-.276-.414-.638-.414-1s.138-.724.414-1m3-3l-3 3" fill="none"/><path d="M3902.5 5.5l-4.788 13.156" fill="#000000"/><path d="M3906 8l1 1m0 0l.984.984L3909 11m0 0c.276.276.414.638.414 1s-.138.724-.414 1m-2 2l1.092-1.092L3909 13m-3 3l1-1" fill="none" stroke-linejoin="round"/></g><g stroke="#000000" stroke-linecap="round"><path d="M3918 16l-3-3m0 0c-.276-.276-.414-.638-.414-1s.138-.724.414-1m3-3l-3 3" fill="none"/><path d="M3926.5 5.5l-4.788 13.156" fill="#000000"/><path d="M3930 8l1 1m0 0l.984.984L3933 11m0 0c.276.276.414.638.414 1s-.138.724-.414 1m-2 2l1.092-1.092L3933 13m-3 3l1-1" fill="none" stroke-linejoin="round"/></g><g stroke="#000000" stroke-linecap="round"><path d="M3942 16l-3-3m0 0c-.276-.276-.414-.638-.414-1s.138-.724.414-1m3-3l-3 3" fill="none"/><path d="M3950.5 5.5l-4.788 13.156" fill="#000000"/><path d="M3954 8l1 1m0 0l.984.984L3957 11m0 0c.276.276.414.638.414 1s-.138.724-.414 1m-2 2l1.092-1.092L3957 13m-3 3l1-1" fill="none" stroke-linejoin="round"/></g><g stroke="#000000" stroke-linecap="round"><path d="M3966 16l-3-3m0 0c-.276-.276-.414-.638-.414-1s.138-.724.414-1m3-3l-3 3" fill="none"/><path d="M3974.5 5.5l-4.788 13.156" fill="#000000"/><path d="M3978 8l1 1m0 0l.984.984L3981 11m0 0c.276.276.414.638.414 1s-.138.724-.414 1m-2 2l1.092-1.092L3981 13m-3 3l1-1" fill="none" stroke-linejoin="round"/></g><g stroke="#000000" stroke-linecap="round"><path d="M3990 16l-3-3m0 0c-.276-.276-.414-.638-.414-1s.138-.724.414-1m3-3l-3 3" fill="none"/><path d="M3998.5 5.5l-4.788 13.156" fill="#000000"/><path d="M4002 8l1 1m0 0l.984.984L4005 11m0 0c.276.276.414.638.414 1s-.138.724-.414 1m-2 2l1.092-1.092L4005 13m-3 3l1-1" fill="none" stroke-linejoin="round"/></g><g stroke="#000000" stroke-linecap="round"><path d="M4014 16l-3-3m0 0c-.276-.276-.414-.638-.414-1s.138-.724.414-1m3-3l-3 3" fill="none"/><path d="M4022.5 5.5l-4.788 13.156" fill="#000000"/><path d="M4026 8l1 1m0 0l.984.984L4029 11m0 0c.276.276.414.638.414 1s-.138.724-.414 1m-2 2l1.092-1.092L4029 13m-3 3l1-1" fill="none" stroke-linejoin="round"/></g><g stroke="#000000" stroke-linecap="round"><path d="M4038 16l-3-3m0 0c-.276-.276-.414-.638-.414-1s.138-.724.414-1m3-3l-3 3" fill="none"/><path d="M4046.5 5.5l-4.788 13.156" fill="#000000"/><path d="M4050 8l1 1m0 0l.984.984L4053 11m0 0c.276.276.414.638.414 1s-.138.724-.414 1m-2 2l1.092-1.092L4053 13m-3 3l1-1" fill="none" stroke-linejoin="round"/></g><g stroke="#000000" stroke-linecap="round"><path d="M4062 16l-3-3m0 0c-.276-.276-.414-.638-.414-1s.138-.724.414-1m3-3l-3 3" fill="none"/><path d="M4070.5 5.5l-4.788 13.156" fill="#000000"/><path d="M4074 8l1 1m0 0l.984.984L4077 11m0 0c.276.276.414.638.414 1s-.138.724-.414 1m-2 2l1.092-1.092L4077 13m-3 3l1-1" fill="none" stroke-linejoin="round"/></g><g stroke="#000000" stroke-linecap="round"><path d="M4086 16l-3-3m0 0c-.276-.276-.414-.638-.414-1s.138-.724.414-1m3-3l-3 3" fill="none"/><path d="M4094.5 5.5l-4.788 13.156" fill="#000000"/><path d="M4098 8l1 1m0 0l.984.984L4101 11m0 0c.276.276.414.638.414 1s-.138.724-.414 1m-2 2l1.092-1.092L4101 13m-3 3l1-1" fill="none" stroke-linejoin="round"/></g><g stroke="#000000" stroke-linecap="round"><path d="M4110 16l-3-3m0 0c-.276-.276-.414-.638-.414-1s.138-.724.414-1m3-3l-3 3" fill="none"/><path d="M4118.5 5.5l-4.788 13.156" fill="#000000"/><path d="M4122 8l1 1m0 0l.984.984L4125 11m0 0c.276.276.414.638.414 1s-.138.724-.414 1m-2 2l1.092-1.092L4125 13m-3 3l1-1" fill="none" stroke-linejoin="round"/></g><g stroke="#000000" stroke-linecap="round"><path d="M4134 16l-3-3m0 0c-.276-.276-.414-.638-.414-1s.138-.724.414-1m3-3l-3 3" fill="none"/><path d="M4142.5 5.5l-4.788 13.156" fill="#000000"/><path d="M4146 8l1 1m0 0l.984.984L4149 11m0 0c.276.276.414.638.414 1s-.138.724-.414 1m-2 2l1.092-1.092L4149 13m-3 3l1-1" fill="none" stroke-linejoin="round"/></g><g stroke="#000000" stroke-linecap="round"><path d="M4158 16l-3-3m0 0c-.276-.276-.414-.638-.414-1s.138-.724.414-1m3-3l-3 3" fill="none"/><path d="M4166.5 5.5l-4.788 13.156" fill="#000000"/><path d="M4170 8l1 1m0 0l.984.984L4173 11m0 0c.276.276.414.638.414 1s-.138.724-.414 1m-2 2l1.092-1.092L4173 13m-3 3l1-1" fill="none" stroke-linejoin="round"/></g><g stroke="#000000" stroke-linecap="round"><path d="M4182 16l-3-3m0 0c-.276-.276-.414-.638-.414-1s.138-.724.414-1m3-3l-3 3" fill="none"/><path d="M4190.5 5.5l-4.788 13.156" fill="#000000"/><path d="M4194 8l1 1m0 0l.984.984L4197 11m0 0c.276.276.414.638.414 1s-.138.724-.414 1m-2 2l1.092-1.092L4197 13m-3 3l1-1" fill="none" stroke-linejoin="round"/></g><g stroke="#000000" stroke-linecap="round"><path d="M4206 16l-3-3m0 0c-.276-.276-.414-.638-.414-1s.138-.724.414-1m3-3l-3 3" fill="none"/><path d="M4214.5 5.5l-4.788 13.156" fill="#000000"/><path d="M4218 8l1 1m0 0l.984.984L4221 11m0 0c.276.276.414.638.414 1s-.138.724-.414 1m-2 2l1.092-1.092L4221 13m-3 3l1-1" fill="none" stroke-linejoin="round"/></g><g stroke="#000000" stroke-linecap="round"><path d="M4230 16l-3-3m0 0c-.276-.276-.414-.638-.414-1s.138-.724.414-1m3-3l-3 3" fill="none"/><path d="M4238.5 5.5l-4.788 13.156" fill="#000000"/><path d="M4242 8l1 1m0 0l.984.984L4245 11m0 0c.276.276.414.638.414 1s-.138.724-.414 1m-2 2l1.092-1.092L4245 13m-3 3l1-1" fill="none" stroke-linejoin="round"/></g><g stroke="#000000" stroke-linecap="round"><path d="M4254 16l-3-3m0 0c-.276-.276-.414-.638-.414-1s.138-.724.414-1m3-3l-3 3" fill="none"/><path d="M4262.5 5.5l-4.788 13.156" fill="#000000"/><path d="M4266 8l1 1m0 0l.984.984L4269 11m0 0c.276.276.414.638.414 1s-.138.724-.414 1m-2 2l1.092-1.092L4269 13m-3 3l1-1" fill="none" stroke-linejoin="round"/></g><g stroke="#000000" stroke-linecap="round"><path d="M4278 16l-3-3m0 0c-.276-.276-.414-.638-.414-1s.138-.724.414-1m3-3l-3 3" fill="none"/><path d="M4286.5 5.5l-4.788 13.156" fill="#000000"/><path d="M4290 8l1 1m0 0l.984.984L4293 11m0 0c.276.276.414.638.414 1s-.138.724-.414 1m-2 2l1.092-1.092L4293 13m-3 3l1-1" fill="none" stroke-linejoin="round"/></g><g stroke="#000000" stroke-linecap="round"><path d="M4302 16l-3-3m0 0c-.276-.276-.414-.638-.414-1s.138-.724.414-1m3-3l-3 3" fill="none"/><path d="M4310.5 5.5l-4.788 13.156" fill="#000000"/><path d="M4314 8l1 1m0 0l.984.984L4317 11m0 0c.276.276.414.638.414 1s-.138.724-.414 1m-2 2l1.092-1.092L4317 13m-3 3l1-1" fill="none" stroke-linejoin="round"/></g><g stroke="#000000" stroke-linecap="round"><path d="M4326 16l-3-3m0 0c-.276-.276-.414-.638-.414-1s.138-.724.414-1m3-3l-3 3" fill="none"/><path d="M4334.5 5.5l-4.788 13.156" fill="#000000"/><path d="M4338 8l1 1m0 0l.984.984L4341 11m0 0c.276.276.414.638.414 1s-.138.724-.414 1m-2 2l1.092-1.092L4341 13m-3 3l1-1" fill="none" stroke-linejoin="round"/></g></svg>