<?xml version="1.0" encoding="UTF-8" standalone="no"?>
<svg
   xmlns:dc="http://purl.org/dc/elements/1.1/"
   xmlns:cc="http://creativecommons.org/ns#"
   xmlns:rdf="http://www.w3.org/1999/02/22-rdf-syntax-ns#"
   xmlns:svg="http://www.w3.org/2000/svg"
   xmlns="http://www.w3.org/2000/svg"
   xmlns:sodipodi="http://sodipodi.sourceforge.net/DTD/sodipodi-0.dtd"
   xmlns:inkscape="http://www.inkscape.org/namespaces/inkscape"
   viewBox="0 0 1366.0001 767.99999"
   id="vector"
   width="1366"
   height="768"
   version="1.1"
   sodipodi:docname="concept.svg"
   inkscape:version="1.0.1 (1.0.1+r73)">
  <style></style>
  <metadata
     id="metadata126">
    <rdf:RDF>
      <cc:Work
         rdf:about="">
        <dc:format>image/svg+xml</dc:format>
        <dc:type
           rdf:resource="http://purl.org/dc/dcmitype/StillImage" />
        <dc:title></dc:title>
      </cc:Work>
    </rdf:RDF>
  </metadata>
  <defs
     id="defs124" />
  <sodipodi:namedview
     pagecolor="#ffffff"
     bordercolor="#666666"
     borderopacity="1"
     objecttolerance="10"
     gridtolerance="10"
     guidetolerance="10"
     inkscape:pageopacity="0"
     inkscape:pageshadow="2"
     inkscape:window-width="1920"
     inkscape:window-height="1056"
     id="namedview122"
     showgrid="false"
     inkscape:zoom="0.67838542"
     inkscape:cx="611.19888"
     inkscape:cy="471.96912"
     inkscape:window-x="1366"
     inkscape:window-y="0"
     inkscape:window-maximized="1"
     inkscape:current-layer="vector"
     units="px"
     width="1366mm"
     inkscape:snap-bbox="true"
     inkscape:snap-global="true"
     inkscape:bbox-paths="true"
     inkscape:bbox-nodes="true"
     inkscape:snap-bbox-edge-midpoints="true"
     inkscape:snap-bbox-midpoints="true"
     inkscape:snap-object-midpoints="true"
     inkscape:snap-page="true"
     inkscape:snap-center="true"
     inkscape:snap-midpoints="true"
     showguides="true"
     inkscape:guide-bbox="true">
    <sodipodi:guide
       position="683.00002,708.00002"
       orientation="0,1"
       id="guide1008"
       inkscape:label=""
       inkscape:locked="true"
       inkscape:color="rgb(0,0,255)" />
  </sodipodi:namedview>
  <g
     id="g1000"
     transform="matrix(2.5214987,0,0,2.5214987,654.00276,9.651585)">
    <path
       id="a1"
       d="m 0.5,10.5 v -5 m 0,0 c 0,-2.761 2.239,-5 5,-5 2.761,0 5,2.239 5,5 m 0,5 v -5"
       fill="#000000"
       fill-opacity="0"
       stroke="#000000"
       stroke-width="1"
       stroke-linecap="round"
       style="fill:none" />
    <path
       id="a2"
       d="m 2.5,6.5 h 6"
       fill="#000000"
       stroke="#000000"
       stroke-width="1"
       stroke-linecap="round"
       style="fill:#4d4d4d" />
    <path
       id="s"
       d="M 22.5,0.5 H 15 m 0,0 c -1.381,0 -2.5,1.119 -2.5,2.5 0,1.381 1.119,2.5 2.5,2.5 m 0,0 c 0.859,0 1.717,0 2.576,0 0.808,0 1.616,0 2.424,0 m 0,5 c 1.381,0 2.5,-1.119 2.5,-2.5 0,-1.381 -1.119,-2.5 -2.5,-2.5 m -7.5,5 H 20"
       fill="#000000"
       fill-opacity="0"
       stroke="#000000"
       stroke-width="1"
       stroke-linecap="round"
       stroke-linejoin="round"
       style="fill:none" />
  </g>
  <path
     style="fill:#7c6f91;fill-opacity:0.553568;stroke:#000000;stroke-width:1px;stroke-linecap:butt;stroke-linejoin:miter;stroke-opacity:1"
     d="M 948.8612,0 C 683,60.000001 683,60.000001 416.62046,0 Z"
     id="path1002"
     sodipodi:nodetypes="cc" />
  <path
     style="fill:#ffffff;fill-opacity:0;stroke:#000000;stroke-width:1.82451px;stroke-linecap:butt;stroke-linejoin:miter;stroke-opacity:1"
     d="M 1168.2791,0.38995862 C 925.74637,55.12516 804.47999,82.492756 683.09539,82.492756 561.7108,82.492756 440.20798,55.12516 197.20235,0.38995862"
     id="path1029"
     sodipodi:nodetypes="csc" />
</svg>
