<svg xmlns="http://www.w3.org/2000/svg" viewBox="0 0 2184 24" width="2184" height="24"><g stroke="#000000" stroke-linecap="round"><path d="M1 17v-5m0 0c0-2.761 2.239-5 5-5s5 2.239 5 5m0 5v-5" fill="none"/><path d="M3 13h6" fill="#000000"/><path d="M23 7h-7.5m0 0C14.119 7 13 8.119 13 9.5s1.119 2.5 2.5 2.5m0 0h5m0 5c1.381 0 2.5-1.119 2.5-2.5S21.881 12 20.5 12M13 17h7.5" fill="none" stroke-linejoin="round"/></g><g stroke="#000000" stroke-linecap="round"><path d="M25.014 16.997l-.009-4.994m0 0c0-2.754 2.232-4.988 4.986-4.989 2.753-.001 4.986 2.231 4.987 4.983m.008 4.978l-.008-4.978" fill="none"/><path d="M27 13h6" fill="#000000" stroke-dasharray="5.940740740740741,0.05925925925925912" stroke-dashoffset="5.977778"/><path d="M46.986 7.003l-7.476.002m0 0c-1.377.001-2.492 1.118-2.491 2.496.001 1.378 1.118 2.495 2.496 2.496m0 0l2.57.003 2.416.003m-.005 4.992c1.378-.001 2.495-1.118 2.496-2.497.001-1.378-1.114-2.494-2.491-2.495m-7.487 4.994l7.482-.002" fill="none" stroke-linejoin="round"/></g><g stroke="#000000" stroke-linecap="round"><path d="M49.055 16.989l-.033-4.978m0 0c-.003-2.734 2.21-4.952 4.941-4.956 2.731-.004 4.947 2.206 4.95 4.934m.032 4.913l-.032-4.913" fill="none"/><path d="M51 13h6" fill="#000000" stroke-dasharray="5.762962962962963,0.23703703703703716" stroke-dashoffset="5.911111"/><path d="M70.945 7.011l-7.407.011m0 0c-1.362.003-2.465 1.114-2.462 2.483.004 1.37 1.114 2.48 2.484 2.484m0 0c.852.003 1.703.007 2.552.011.8.004 1.597.008 2.393.011m-.021 4.967c1.369-.004 2.48-1.115 2.484-2.484.004-1.37-1.1-2.48-2.463-2.483m-7.45 4.978l7.429-.011" fill="none" stroke-linejoin="round"/></g><g stroke="#000000" stroke-linecap="round"><path d="M73.122 16.976l-.073-4.952m0 0c-.007-2.7 2.174-4.893 4.867-4.902 2.694-.009 4.881 2.167 4.888 4.854m.074 4.804l-.074-4.804" fill="none"/><path d="M75 13h6" fill="#000000" stroke-dasharray="5.466666666666667,0.5333333333333334" stroke-dashoffset="5.8"/><path d="M94.878 7.024l-7.292.025m0 0c-1.34.008-2.423 1.108-2.415 2.463.008 1.355 1.108 2.455 2.464 2.464m0 0c.844.006 1.685.015 2.523.024.788.009 1.573.018 2.354.024m-.049 4.927c1.356-.009 2.457-1.109 2.466-2.465.007-1.355-1.077-2.454-2.417-2.462m-7.39 4.952l7.341-.025" fill="none" stroke-linejoin="round"/></g><g stroke="#000000" stroke-linecap="round"><path d="M97.216 16.957l-.13-4.914m0 0c-.011-2.653 2.125-4.811 4.766-4.827 2.642-.016 4.79 2.111 4.802 4.741m.13 4.654l-.13-4.654" fill="none"/><path d="M99 13h6" fill="#000000" stroke-dasharray="5.051851851851852,0.948148148148148" stroke-dashoffset="5.644444"/><path d="M118.784 7.043l-7.133.043m0 0c-1.307.015-2.363 1.099-2.349 2.435.015 1.336 1.1 2.421 2.436 2.436m0 0c.833.012 1.661.027 2.482.043.773.016 1.54.031 2.302.043m-.087 4.871c1.337-.016 2.424-1.103 2.439-2.44.013-1.334-1.044-2.418-2.352-2.431m-7.306 4.914l7.219-.043" fill="none" stroke-linejoin="round"/></g><g stroke="#000000" stroke-linecap="round"><path d="M121.335 16.933l-.201-4.866m0 0c-.019-2.595 2.061-4.708 4.637-4.732 2.576-.024 4.675 2.04 4.693 4.598m.201 4.464l-.201-4.464" fill="none"/><path d="M123 13h6" fill="#000000" stroke-dasharray="4.518518518518519,1.4814814814814814" stroke-dashoffset="5.444444"/><path d="M142.665 7.067l-6.931.067m0 0c-1.266.022-2.288 1.088-2.266 2.398.023 1.312 1.089 2.378 2.4 2.401m0 0c.82.019 1.63.043 2.432.067.753.024 1.498.048 2.233.067m-.133 4.799c1.312-.024 2.381-1.093 2.405-2.406.02-1.308-1.003-2.373-2.272-2.393m-7.198 4.866l7.065-.067" fill="none" stroke-linejoin="round"/></g><g stroke="#000000" stroke-linecap="round"><path d="M145.477 16.905l-.286-4.81m0 0c-.026-2.523 1.986-4.583 4.483-4.618 2.497-.034 4.536 1.957 4.562 4.428m.287 4.236l-.287-4.236" fill="none"/><path d="M147 13h6" fill="#000000" stroke-dasharray="3.866666666666667,2.133333333333333" stroke-dashoffset="5.2"/><path d="M166.523 7.095l-6.689.096m0 0c-1.218.031-2.198 1.075-2.167 2.355.032 1.282 1.077 2.326 2.358 2.359m0 0c.803.026 1.593.06 2.37.095.731.035 1.448.069 2.153.095m-.191 4.714c1.284-.035 2.331-1.082 2.365-2.366.029-1.278-.954-2.319-2.174-2.348m-7.071 4.81l6.88-.096" fill="none" stroke-linejoin="round"/></g><g stroke="#000000" stroke-linecap="round"><path d="M169.642 16.872l-.385-4.744m0 0c-.036-2.441 1.898-4.439 4.305-4.486 2.406-.046 4.375 1.859 4.411 4.23m.385 3.972l-.385-3.972" fill="none"/><path d="M171 13h6" fill="#000000" stroke-dasharray="3.0962962962962965,2.9037037037037035" stroke-dashoffset="4.911111"/><path d="M190.358 7.128l-6.409.129m0 0c-1.161.042-2.094 1.059-2.052 2.305.043 1.247 1.062 2.266 2.309 2.31m0 0c.784.035 1.55.082 2.299.128.704.046 1.39.093 2.059.128m-.257 4.615c1.251-.047 2.273-1.069 2.32-2.319.038-1.243-.898-2.257-2.063-2.296m-6.922 4.744l6.665-.129" fill="none" stroke-linejoin="round"/></g><g stroke="#000000" stroke-linecap="round"><path d="M193.827 16.835l-.496-4.67m0 0c-.046-2.349 1.8-4.278 4.104-4.338 2.304-.06 4.196 1.749 4.242 4.008m.496 3.676l-.496-3.676" fill="none"/><path d="M195 13h6" fill="#000000" stroke-dasharray="2.2074074074074073,3.7925925925925927" stroke-dashoffset="4.577778"/><path d="M214.173 7.165l-6.094.166m0 0c-1.098.054-1.978 1.042-1.924 2.249.056 1.209 1.046 2.199 2.255 2.255m0 0c.762.045 1.502.105 2.218.165.675.06 1.326.12 1.955.165m-.331 4.504c1.213-.06 2.207-1.054 2.267-2.267.05-1.203-.834-2.187-1.936-2.237m-6.756 4.67l6.425-.166" fill="none" stroke-linejoin="round"/></g><g stroke="#000000" stroke-linecap="round"><path d="M218.031 16.794l-.619-4.588m0 0c-.057-2.249 1.692-4.101 3.884-4.175 2.192-.075 3.998 1.628 4.055 3.763m.618 3.351l-.618-3.351" fill="none"/><path d="M225 13h-6" fill="#000000" stroke-dasharray="1.1999999999999997,4.800000000000001" stroke-dashoffset="3"/><path d="M237.969 7.206l-5.748.206m0 0c-1.028.068-1.849 1.024-1.782 2.188.07 1.166 1.028 2.124 2.195 2.194m0 0c.738.057 1.448.131 2.13.206.641.075 1.254.149 1.839.206m-.412 4.382c1.171-.075 2.135-1.039 2.21-2.21.062-1.159-.764-2.11-1.798-2.172m-6.572 4.588l6.16-.206" fill="none" stroke-linejoin="round"/></g><g stroke="#000000" stroke-linecap="round"><path d="M242.25 16.75l-.75-4.5m0 0c-.069-2.14 1.576-3.909 3.646-4 2.071-.091 3.785 1.498 3.854 3.5m.75 3l-.75-3" fill="none"/><path d="M248.959 13.056l-6.009-.098" fill="#000000" stroke-dasharray="1.2121154860006182,4.797666945439779" stroke-dashoffset="3.01505"/><path d="M261.75 7.25l-5.375.25m0 0c-.954.082-1.711 1.003-1.629 2.121.085 1.12 1.009 2.044 2.129 2.129m0 0c.713.069 1.391.159 2.035.25.606.091 1.178.181 1.715.25m-.5 4.25c1.127-.091 2.057-1.021 2.148-2.148.076-1.111-.688-2.026-1.648-2.102m-6.375 4.5l5.875-.25" fill="none" stroke-linejoin="round"/></g><g stroke="#000000" stroke-linecap="round"><path d="M266.483 16.703l-.89-4.406m0 0c-.082-2.024 1.452-3.706 3.394-3.814 1.942-.107 3.558 1.36 3.64 3.22m.89 2.627l-.89-2.627" fill="none"/><path d="M272.855 13.198l-6.032-.347" fill="#000000" stroke-dasharray="1.249120799437776,4.792903755454841" stroke-dashoffset="3.061728"/><path d="M285.517 7.297l-4.979.296m0 0c-.874.098-1.564.982-1.466 2.05.1 1.072.988 1.96 2.059 2.06m0 0c.686.082 1.331.19 1.935.297.568.107 1.096.215 1.582.297m-.593 4.11c1.079-.108 1.974-1.003 2.082-2.083.09-1.061-.607-1.938-1.489-2.027m-6.165 4.406l5.572-.296" fill="none" stroke-linejoin="round"/></g><g stroke="#000000" stroke-linecap="round"><path d="M290.727 16.655l-1.036-4.31m0 0c-.095-1.902 1.322-3.492 3.129-3.618 1.808-.125 3.321 1.216 3.416 2.928m1.037 2.236l-1.037-2.236" fill="none"/><path d="M296.713 13.391l-6.063-.686" fill="#000000" stroke-dasharray="1.3123635612200117,4.789472098582804" stroke-dashoffset="3.142914"/><path d="M309.273 7.345l-4.564.346m0 0c-.79.113-1.409.959-1.296 1.976.117 1.021.966 1.87 1.987 1.988m0 0c.658.095 1.267.22 1.829.345.529.125 1.01.25 1.444.345m-.691 3.964c1.029-.126 1.888-.984 2.013-2.014.105-1.008-.523-1.845-1.322-1.95m-5.946 4.31l5.255-.346" fill="none" stroke-linejoin="round"/></g><g stroke="#000000" stroke-linecap="round"><path d="M314.98 16.604l-1.188-4.208m0 0c-.109-1.777 1.188-3.272 2.856-3.416 1.667-.143 3.074 1.066 3.184 2.624m1.188 1.832l-1.188-1.832" fill="none"/><path d="M320.562 13.597l-6.097-1.048" fill="#000000" stroke-dasharray="1.4016922040997184,4.784286093264715" stroke-dashoffset="3.257486"/><path d="M333.02 7.396l-4.134.396m0 0c-.704.13-1.25.936-1.12 1.9.134.968.944 1.778 1.912 1.912m0 0c.628.109 1.201.253 1.72.396.488.143.921.287 1.3.396m-.792 3.812c.978-.144 1.798-.964 1.942-1.943.12-.953-.436-1.749-1.15-1.869m-5.718 4.208l4.926-.396" fill="none" stroke-linejoin="round"/></g><g stroke="#000000" stroke-linecap="round"><path d="M339.239 16.552l-1.344-4.104m0 0c-.123-1.649 1.052-3.047 2.576-3.209 1.525-.162 2.824.912 2.947 2.313m1.343 1.418l-1.343-1.418" fill="none"/><path d="M344.427 13.781l-6.126-1.37" fill="#000000" stroke-dasharray="1.5137037181716027,4.763889187685039" stroke-dashoffset="3.396982"/><path d="M356.761 7.448l-3.694.447m0 0c-.616.147-1.087.912-.94 1.822.152.914.921 1.684 1.836 1.835m0 0c.597.124 1.133.286 1.608.448.446.162.83.324 1.153.448m-.896 3.657c.926-.163 1.707-.944 1.87-1.87.136-.898-.347-1.652-.974-1.787m-5.485 4.104l4.589-.447" fill="none" stroke-linejoin="round"/></g><g stroke="#000000" stroke-linecap="round"><path d="M363.5 16.5l-1.5-4m0 0c-.138-1.518.913-2.819 2.293-3 1.38-.181 2.569.758 2.707 2m1.5 1l-1.5-1" fill="none"/><path d="M368.336 13.905l-6.146-1.588" fill="#000000" stroke-dasharray="1.6409288079855244,4.70723111848353" stroke-dashoffset="3.545377"/><path d="M380.5 7.5l-3.25.5m0 0c-.527.164-.922.887-.758 1.742.169.86.898 1.589 1.758 1.758m0 0c.567.138 1.066.319 1.495.5.404.181.739.362 1.005.5m-1 3.5c.873-.182 1.614-.924 1.796-1.796.151-.842-.257-1.553-.796-1.704m-5.25 4l4.25-.5" fill="none" stroke-linejoin="round"/></g><g stroke="#000000" stroke-linecap="round"><path d="M387.761 16.448l-1.656-3.896m0 0c-.153-1.388.773-2.591 2.01-2.791 1.236-.2 2.314.603 2.467 1.687m1.657.582l-1.657-.582" fill="none"/><path d="M392.315 13.934l-6.15-1.638" fill="#000000" stroke-dasharray="1.7723005477937548,4.592816368239325" stroke-dashoffset="3.681836"/><path d="M404.239 7.552l-2.806.553m0 0c-.437.181-.757.863-.576 1.662.187.806.875 1.494 1.68 1.681m0 0c.537.152.998.352 1.382.552.362.2.648.4.857.552m-1.104 3.343c.819-.201 1.521-.903 1.722-1.722.167-.785-.167-1.454-.618-1.621m-5.015 3.896l3.911-.553" fill="none" stroke-linejoin="round"/></g><g stroke="#000000" stroke-linecap="round"><path d="M412.02 16.396l-1.812-3.792m0 0c-.167-1.26.637-2.366 1.73-2.584 1.094-.219 2.064.449 2.23 1.376m1.812.168l-1.812-.168" fill="none"/><path d="M416.392 13.829l-6.134-1.454" fill="#000000" stroke-dasharray="1.895696245152489,4.4083642305709265" stroke-dashoffset="3.786914"/><path d="M427.98 7.604l-2.366.604m0 0c-.349.198-.594.839-.396 1.584.204.752.852 1.399 1.604 1.604m0 0c.507.167.93.385 1.27.604.32.219.557.437.71.604m-1.208 3.188c.767-.22 1.43-.883 1.65-1.65.183-.729-.078-1.355-.442-1.538m-4.782 3.792l3.574-.604" fill="none" stroke-linejoin="round"/></g><g stroke="#000000" stroke-linecap="round"><path d="M436.273 16.345l-1.964-3.69m0 0c-.181-1.135.503-2.146 1.457-2.382.953-.237 1.817.299 1.998 1.072m1.963-.236l-1.963.236" fill="none"/><path d="M440.593 13.556l-6.09-.975" fill="#000000" stroke-dasharray="2.0043590736247694,4.1628996144514465" stroke-dashoffset="3.854537"/><path d="M451.727 7.655l-1.936.654m0 0c-.263.215-.435.816-.22 1.508.222.698.83 1.307 1.529 1.528m0 0c.477.181.864.418 1.161.655.279.237.468.474.566.655m-1.309 3.036c.716-.238 1.341-.863 1.579-1.579.198-.675.009-1.259-.27-1.457m-4.554 3.69l3.245-.654" fill="none" stroke-linejoin="round"/></g><g stroke="#000000" stroke-linecap="round"><path d="M460.517 16.297l-2.11-3.594m0 0c-.194-1.013.373-1.932 1.192-2.186.819-.255 1.58.155 1.774.78m2.11-.627l-2.11.627" fill="none"/><path d="M464.944 13.076l-6.012-.133" fill="#000000" stroke-dasharray="2.1162926069438464,3.8975085236481344" stroke-dashoffset="3.914865"/><path d="M475.483 7.703l-1.521.704m0 0c-.179.23-.281.793-.05 1.433.238.648.809 1.218 1.457 1.457m0 0c.448.194.8.448 1.055.703.24.255.382.509.428.703m-1.407 2.89c.666-.256 1.254-.844 1.51-1.51.213-.622.093-1.167-.103-1.38m-4.335 3.594l2.928-.704" fill="none" stroke-linejoin="round"/></g><g stroke="#000000" stroke-linecap="round"><path d="M484.75 16.25l-2.25-3.5m0 0c-.207-.897.249-1.729.939-2 .691-.271 1.354.017 1.561.5m2.25-1l-2.25 1" fill="none"/><path d="M489.473 12.355l-5.895 1.132" fill="#000000" stroke-dasharray="2.293327765553042,3.7101025550356335" stroke-dashoffset="4.072122"/><path d="M499.25 7.75l-1.125.75m0 0c-.099.246-.133.772.113 1.363.254.599.788 1.133 1.387 1.387m0 0c.422.207.74.479.954.75.202.271.301.543.296.75m-1.5 2.75c.618-.273 1.171-.826 1.444-1.444.227-.572.174-1.079.056-1.306m-4.125 3.5l2.625-.75" fill="none" stroke-linejoin="round"/></g><g stroke="#000000" stroke-linecap="round"><path d="M508.969 16.206l-2.381-3.412m0 0c-.219-.788.133-1.537.702-1.825.569-.287 1.14-.113 1.359.237m2.382-1.351l-2.382 1.351" fill="none"/><path d="M514.207 11.354l-5.734 2.887" fill="#000000" stroke-dasharray="2.6637849808846656,3.7561916557445705" stroke-dashoffset="4.536278"/><path d="M523.031 7.794l-.752.794m0 0c-.025.26.005.751.265 1.296.269.554.769 1.053 1.322 1.322m0 0c.396.219.683.507.86.794.167.287.224.575.171.794m-1.588 2.618c.574-.289 1.094-.808 1.383-1.382.24-.525.249-.996.205-1.236m-3.928 3.412l2.34-.794" fill="none" stroke-linejoin="round"/></g><g stroke="#000000" stroke-linecap="round"><path d="M533.173 16.165l-2.504-3.33m0 0c-.23-.688.025-1.36.482-1.662.457-.302.942-.234 1.172-.008m2.504-1.676l-2.504 1.676" fill="none"/><path d="M539.172 10.038l-5.521 5.196" fill="#000000" stroke-dasharray="3.4139390054379892,4.167897990397718" stroke-dashoffset="5.576167"/><path d="M546.827 7.835l-.406.834m0 0c.045.274.134.733.407 1.235.283.511.751.979 1.262 1.261m0 0c.372.231.63.533.772.835.133.302.152.604.055.835m-1.669 2.496c.532-.304 1.021-.793 1.325-1.325.253-.481.32-.919.344-1.171m-3.744 3.33l2.075-.834" fill="none" stroke-linejoin="round"/></g><g stroke="#000000" stroke-linecap="round"><path d="M557.358 16.128l-2.615-3.256m0 0c-.24-.596-.073-1.199.281-1.514.355-.316.763-.344 1.003-.23m2.615-1.972l-2.615 1.972" fill="none"/><path d="M564.328 8.462l-5.267 7.96" fill="#000000" stroke-dasharray="4.654719769555638,4.889813940099896" stroke-dashoffset="7.297142"/><path d="M570.642 7.872l-.091.871m0 0c.108.286.25.715.536 1.179.295.472.734.911 1.207 1.206m0 0c.35.241.581.556.691.872.104.316.088.631-.049.872m-1.743 2.385c.494-.317.955-.778 1.273-1.273.263-.441.383-.849.47-1.112m-3.578 3.256l1.835-.871" fill="none" stroke-linejoin="round"/></g><g stroke="#000000" stroke-linecap="round"><path d="M581.523 16.095l-2.714-3.19m0 0c-.25-.514-.161-1.055.103-1.382.264-.328.602-.442.852-.428m2.713-2.236l-2.713 2.236" fill="none"/><path d="M589.293 7.146l-5.054 10.269" fill="#000000" stroke-dasharray="6.0285511688591304,5.416354517089961" stroke-dashoffset="9.080526"/><path d="M594.477 7.905l.189.904m0 0c.165.297.354.7.651 1.129.306.438.72.851 1.158 1.157m0 0c.331.25.538.578.62.905.077.327.03.655-.143.905m-1.809 2.286c.461-.329.898-.765 1.227-1.227.274-.405.44-.786.582-1.059m-3.429 3.19l1.62-.904" fill="none" stroke-linejoin="round"/></g><g stroke="#000000" stroke-linecap="round"><path d="M605.665 16.067l-2.799-3.134m0 0c-.257-.442-.236-.93-.051-1.268.185-.338.463-.525.721-.598m2.799-2.464l-2.799 2.464" fill="none"/><path d="M614.027 6.145l-4.893 12.024" fill="#000000" stroke-dasharray="7.361121887319247,5.619826829146523" stroke-dashoffset="10.666456"/><path d="M618.335 7.933l.431.933m0 0c.213.306.444.687.75 1.085.316.409.707.8 1.116 1.116m0 0c.315.257.501.595.558.933.055.338-.02.676-.223.933m-1.867 2.201c.433-.34.847-.754 1.187-1.187.282-.374.49-.732.68-1.014m-3.302 3.134l1.435-.933" fill="none" stroke-linejoin="round"/></g><g stroke="#000000" stroke-linecap="round"><path d="M629.784 16.043l-2.87-3.086m0 0c-.265-.384-.3-.827-.18-1.173.119-.346.348-.596.612-.741m2.87-2.654l-2.87 2.654" fill="none"/><path d="M638.556 5.424l-4.776 13.289" fill="#000000" stroke-dasharray="8.589943223377508,5.531768011393022" stroke-dashoffset="11.989614"/><path d="M642.216 7.957l.633.957m0 0c.254.313.519.675.833 1.049.324.384.696.756 1.08 1.08m0 0c.301.264.471.611.508.957.035.346-.062.693-.292.957m-1.913 2.129c.408-.348.805-.745 1.153-1.153.289-.349.531-.687.76-.976m-3.194 3.086l1.281-.957" fill="none" stroke-linejoin="round"/></g><g stroke="#000000" stroke-linecap="round"><path d="M653.878 16.024l-2.927-3.048m0 0c-.269-.337-.349-.745-.281-1.098.067-.353.257-.652.526-.854m2.926-2.804l-2.926 2.804" fill="none"/><path d="M662.907 4.944l-4.698 14.131" fill="#000000" stroke-dasharray="9.679214704085831,5.211884840661609" stroke-dashoffset="13.029712"/><path d="M666.122 7.976l.792.975m0 0c.286.32.579.667.899 1.021.33.364.688.722 1.052 1.052m0 0c.291.27.446.623.467.976.02.353-.095.706-.344.976m-1.951 2.073c.389-.355.771-.738 1.126-1.127.296-.329.563-.651.825-.946m-3.11 3.048l1.159-.975" fill="none" stroke-linejoin="round"/></g><g stroke="#000000" stroke-linecap="round"><path d="M677.945 16.011l-2.967-3.022m0 0c-.273-.303-.385-.686-.355-1.044.03-.358.191-.691.464-.934m2.968-2.913l-2.968 2.913" fill="none"/><path d="M687.108 4.671l-4.654 14.61" fill="#000000" stroke-dasharray="10.609159635646348,4.724605294783181" stroke-dashoffset="13.789496"/><path d="M690.055 7.989l.907.989m0 0c.309.324.621.661.945 1 .335.351.683.698 1.033 1.033m0 0c.282.273.428.631.438.989.008.358-.119.716-.383.989m-1.979 2.033c.376-.36.748-.733 1.108-1.108.299-.314.586-.626.871-.925m-3.05 3.022l1.071-.989" fill="none" stroke-linejoin="round"/></g><g stroke="#000000" stroke-linecap="round"><path d="M701.986 16.003l-2.991-3.006m0 0c-.276-.283-.407-.65-.4-1.011.008-.361.152-.716.427-.983m2.992-2.978l-2.992 2.978" fill="none"/><path d="M711.185 4.566l-4.638 14.794" fill="#000000" stroke-dasharray="11.373188944402374,4.130121486404778" stroke-dashoffset="14.287237"/><path d="M714.014 7.997l.976.998m0 0c.324.327.648.657.975.987.337.342.678.683 1.02 1.021m0 0c.278.275.418.636.42.997.002.361-.133.722-.406.997m-1.995 2.008c.367-.363.733-.729 1.096-1.096.302-.305.601-.61.899-.912m-3.013 3.006l1.018-.998" fill="none" stroke-linejoin="round"/></g><g stroke="#000000" stroke-linecap="round"><path d="M726 16l-3-3m0 0c-.276-.276-.414-.638-.414-1s.138-.724.414-1m3-3l-3 3" fill="none"/><path d="M735.164 4.595l-4.642 14.744" fill="#000000" stroke-dasharray="11.977148992544414,3.480339389209429" stroke-dashoffset="14.553397"/><path d="M738 8l1 1m0 0l.984.984L741 11m0 0c.276.276.414.638.414 1s-.138.724-.414 1m-2 2l1.092-1.092L741 13m-3 3l1-1" fill="none" stroke-linejoin="round"/></g><g stroke="#000000" stroke-linecap="round"><path d="M750 16l-3-3m0 0c-.276-.276-.414-.638-.414-1s.138-.724.414-1m3-3l-3 3" fill="none" stroke-opacity=".989074"/><path d="M759.073 4.719l-4.662 14.526" fill="#000000" stroke-dasharray="12.438959024005854,2.816951480811452" stroke-dashoffset="14.628465"/><path d="M762 8l1 1m0 0l.984.984L765 11m0 0c.276.276.414.638.414 1s-.138.724-.414 1m-2 2l1.092-1.092L765 13m-3 3l1-1" fill="none" stroke-linejoin="round"/></g><g stroke="#000000" stroke-linecap="round"><path d="M774 16l-3-3m0 0c-.276-.276-.414-.638-.414-1s.138-.724.414-1m3-3l-3 3" fill="none" stroke-opacity=".956773"/><path d="M782.938 4.903l-4.691 14.204" fill="#000000" stroke-dasharray="12.788088888085207,2.1706710106949667" stroke-dashoffset="14.560979"/><path d="M786 8l1 1m0 0l.984.984L789 11m0 0c.276.276.414.638.414 1s-.138.724-.414 1m-2 2l1.092-1.092L789 13m-3 3l1-1" fill="none" stroke-linejoin="round"/></g><g stroke="#000000" stroke-linecap="round"><path d="M798 16l-3-3m0 0c-.276-.276-.414-.638-.414-1s.138-.724.414-1m3-3l-3 3" fill="none" stroke-opacity=".904508"/><path d="M806.787 5.109l-4.725 13.842" fill="#000000" stroke-dasharray="13.064730832229701,1.561225989794208" stroke-dashoffset="14.405444"/><path d="M810 8l1 1m0 0l.984.984L813 11m0 0c.276.276.414.638.414 1s-.138.724-.414 1m-2 2l1.092-1.092L813 13m-3 3l1-1" fill="none" stroke-linejoin="round"/></g><g stroke="#000000" stroke-linecap="round"><path d="M822 16l-3-3m0 0c-.276-.276-.414-.638-.414-1s.138-.724.414-1m3-3l-3 3" fill="none" stroke-opacity=".834565"/><path d="M830.645 5.302l-4.756 13.503" fill="#000000" stroke-dasharray="13.318726836557351,0.9978934188575513" stroke-dashoffset="14.220144"/><path d="M834 8l1 1m0 0l.984.984L837 11m0 0c.276.276.414.638.414 1s-.138.724-.414 1m-2 2l1.092-1.092L837 13m-3 3l1-1" fill="none" stroke-linejoin="round"/></g><g stroke="#000000" stroke-linecap="round"><path d="M846 16l-3-3m0 0c-.276-.276-.414-.638-.414-1s.138-.724.414-1m3-3l-3 3" fill="none" stroke-opacity=".75"/><path d="M854.541 5.444l-4.779 13.254" fill="#000000" stroke-dasharray="13.608477379032703,0.4803999754622985" stroke-dashoffset="14.065061"/><path d="M858 8l1 1m0 0l.984.984L861 11m0 0c.276.276.414.638.414 1s-.138.724-.414 1m-2 2l1.092-1.092L861 13m-3 3l1-1" fill="none" stroke-linejoin="round"/></g><g stroke="#000000" stroke-linecap="round"><path d="M870 16l-3-3m0 0c-.276-.276-.414-.638-.414-1s.138-.724.414-1m3-3l-3 3" fill="none" stroke-opacity=".654508"/><path d="M878.5 5.5l-4.788 13.156" fill="#000000"/><path d="M882 8l1 1m0 0l.984.984L885 11m0 0c.276.276.414.638.414 1s-.138.724-.414 1m-2 2l1.092-1.092L885 13m-3 3l1-1" fill="none" stroke-linejoin="round"/></g><g stroke="#000000" stroke-linecap="round"><path d="M894 16l-3-3m0 0c-.276-.276-.414-.638-.414-1s.138-.724.414-1m3-3l-3 3" fill="none" stroke-opacity=".552264"/><path d="M902.5 5.5l-4.788 13.156" fill="#000000"/><path d="M906 8l1 1m0 0l.984.984L909 11m0 0c.276.276.414.638.414 1s-.138.724-.414 1m-2 2l1.092-1.092L909 13m-3 3l1-1" fill="none" stroke-linejoin="round"/></g><g stroke="#000000" stroke-linecap="round"><path d="M918 16l-3-3m0 0c-.276-.276-.414-.638-.414-1s.138-.724.414-1m3-3l-3 3" fill="none" stroke-opacity=".447736"/><path d="M926.5 5.5l-4.788 13.156" fill="#000000"/><path d="M930 8l1 1m0 0l.984.984L933 11m0 0c.276.276.414.638.414 1s-.138.724-.414 1m-2 2l1.092-1.092L933 13m-3 3l1-1" fill="none" stroke-linejoin="round"/></g><g stroke="#000000" stroke-linecap="round"><path d="M942 16l-3-3m0 0c-.276-.276-.414-.638-.414-1s.138-.724.414-1m3-3l-3 3" fill="none" stroke-opacity=".345492"/><path d="M950.5 5.5l-4.788 13.156" fill="#000000"/><path d="M954 8l1 1m0 0l.984.984L957 11m0 0c.276.276.414.638.414 1s-.138.724-.414 1m-2 2l1.092-1.092L957 13m-3 3l1-1" fill="none" stroke-linejoin="round"/></g><g stroke="#000000" stroke-linecap="round"><path d="M966 16l-3-3m0 0c-.276-.276-.414-.638-.414-1s.138-.724.414-1m3-3l-3 3" fill="none" stroke-opacity=".25"/><path d="M974.5 5.5l-4.788 13.156" fill="#000000" stroke-opacity=".989074"/><path d="M978 8l1 1m0 0l.984.984L981 11m0 0c.276.276.414.638.414 1s-.138.724-.414 1m-2 2l1.092-1.092L981 13m-3 3l1-1" fill="none" stroke-linejoin="round"/></g><g stroke="#000000" stroke-linecap="round"><path d="M990 16l-3-3m0 0c-.276-.276-.414-.638-.414-1s.138-.724.414-1m3-3l-3 3" fill="none" stroke-opacity=".165435"/><path d="M998.5 5.5l-4.788 13.156" fill="#000000" stroke-opacity=".956773"/><path d="M1002 8l1 1m0 0l.984.984L1005 11m0 0c.276.276.414.638.414 1s-.138.724-.414 1m-2 2l1.092-1.092L1005 13m-3 3l1-1" fill="none" stroke-linejoin="round"/></g><g stroke="#000000" stroke-linecap="round"><path d="M1014 16l-3-3m0 0c-.276-.276-.414-.638-.414-1s.138-.724.414-1m3-3l-3 3" fill="none" stroke-opacity=".095492"/><path d="M1022.5 5.5l-4.788 13.156" fill="#000000" stroke-opacity=".904508"/><path d="M1026 8l1 1m0 0l.984.984L1029 11m0 0c.276.276.414.638.414 1s-.138.724-.414 1m-2 2l1.092-1.092L1029 13m-3 3l1-1" fill="none" stroke-linejoin="round"/></g><g stroke="#000000" stroke-linecap="round"><path d="M1038 16l-3-3m0 0c-.276-.276-.414-.638-.414-1s.138-.724.414-1m3-3l-3 3" fill="none" stroke-opacity=".043227"/><path d="M1046.5 5.5l-4.788 13.156" fill="#000000" stroke-opacity=".834565"/><path d="M1050 8l1 1m0 0l.984.984L1053 11m0 0c.276.276.414.638.414 1s-.138.724-.414 1m-2 2l1.092-1.092L1053 13m-3 3l1-1" fill="none" stroke-linejoin="round"/></g><g stroke="#000000" stroke-linecap="round"><path d="M1062 16l-3-3m0 0c-.276-.276-.414-.638-.414-1s.138-.724.414-1m3-3l-3 3" fill="none" stroke-opacity=".010926"/><path d="M1070.5 5.5l-4.788 13.156" fill="#000000" stroke-opacity=".75"/><path d="M1074 8l1 1m0 0l.984.984L1077 11m0 0c.276.276.414.638.414 1s-.138.724-.414 1m-2 2l1.092-1.092L1077 13m-3 3l1-1" fill="none" stroke-linejoin="round"/></g><path d="M1086 16l-3-3m0 0c-.276-.276-.414-.638-.414-1s.138-.724.414-1m3-3l-3 3" fill="none"/><path d="M1094.5 5.5l-4.788 13.156" fill="#000000" stroke="#000000" stroke-opacity=".654508" stroke-linecap="round"/><path d="M1098 8l1 1m0 0l.984.984L1101 11m0 0c.276.276.414.638.414 1s-.138.724-.414 1m-2 2l1.092-1.092L1101 13m-3 3l1-1" fill="none" stroke="#000000" stroke-linecap="round" stroke-linejoin="round"/><g stroke="#000000" stroke-linecap="round"><path d="M1110 16l-3-3m0 0c-.276-.276-.414-.638-.414-1s.138-.724.414-1m3-3l-3 3" fill="none" stroke-opacity=".010926"/><path d="M1118.5 5.5l-4.788 13.156" fill="#000000" stroke-opacity=".552264"/><path d="M1122 8l1 1m0 0l.984.984L1125 11m0 0c.276.276.414.638.414 1s-.138.724-.414 1m-2 2l1.092-1.092L1125 13m-3 3l1-1" fill="none" stroke-linejoin="round"/></g><g stroke="#000000" stroke-linecap="round"><path d="M1134 16l-3-3m0 0c-.276-.276-.414-.638-.414-1s.138-.724.414-1m3-3l-3 3" fill="none" stroke-opacity=".043227"/><path d="M1142.5 5.5l-4.788 13.156" fill="#000000" stroke-opacity=".447736"/><path d="M1146 8l1 1m0 0l.984.984L1149 11m0 0c.276.276.414.638.414 1s-.138.724-.414 1m-2 2l1.092-1.092L1149 13m-3 3l1-1" fill="none" stroke-linejoin="round"/></g><g stroke="#000000" stroke-linecap="round"><path d="M1158 16l-3-3m0 0c-.276-.276-.414-.638-.414-1s.138-.724.414-1m3-3l-3 3" fill="none" stroke-opacity=".095492"/><path d="M1166.5 5.5l-4.788 13.156" fill="#000000" stroke-opacity=".345492"/><path d="M1170 8l1 1m0 0l.984.984L1173 11m0 0c.276.276.414.638.414 1s-.138.724-.414 1m-2 2l1.092-1.092L1173 13m-3 3l1-1" fill="none" stroke-linejoin="round"/></g><g stroke="#000000" stroke-linecap="round"><path d="M1182 16l-3-3m0 0c-.276-.276-.414-.638-.414-1s.138-.724.414-1m3-3l-3 3" fill="none" stroke-opacity=".165435"/><path d="M1190.5 5.5l-4.788 13.156" fill="#000000" stroke-opacity=".25"/><path d="M1194 8l1 1m0 0l.984.984L1197 11m0 0c.276.276.414.638.414 1s-.138.724-.414 1m-2 2l1.092-1.092L1197 13m-3 3l1-1" fill="none" stroke-opacity=".989074" stroke-linejoin="round"/></g><g stroke="#000000" stroke-linecap="round"><path d="M1206 16l-3-3m0 0c-.276-.276-.414-.638-.414-1s.138-.724.414-1m3-3l-3 3" fill="none" stroke-opacity=".25"/><path d="M1214.5 5.5l-4.788 13.156" fill="#000000" stroke-opacity=".165435"/><path d="M1218 8l1 1m0 0l.984.984L1221 11m0 0c.276.276.414.638.414 1s-.138.724-.414 1m-2 2l1.092-1.092L1221 13m-3 3l1-1" fill="none" stroke-opacity=".956773" stroke-linejoin="round"/></g><g stroke="#000000" stroke-linecap="round"><path d="M1230 16l-3-3m0 0c-.276-.276-.414-.638-.414-1s.138-.724.414-1m3-3l-3 3" fill="none" stroke-opacity=".345492"/><path d="M1238.5 5.5l-4.788 13.156" fill="#000000" stroke-opacity=".095492"/><path d="M1242 8l1 1m0 0l.984.984L1245 11m0 0c.276.276.414.638.414 1s-.138.724-.414 1m-2 2l1.092-1.092L1245 13m-3 3l1-1" fill="none" stroke-opacity=".904508" stroke-linejoin="round"/></g><g stroke="#000000" stroke-linecap="round"><path d="M1254 16l-3-3m0 0c-.276-.276-.414-.638-.414-1s.138-.724.414-1m3-3l-3 3" fill="none" stroke-opacity=".447736"/><path d="M1262.5 5.5l-4.788 13.156" fill="#000000" stroke-opacity=".043227"/><path d="M1266 8l1 1m0 0l.984.984L1269 11m0 0c.276.276.414.638.414 1s-.138.724-.414 1m-2 2l1.092-1.092L1269 13m-3 3l1-1" fill="none" stroke-opacity=".834565" stroke-linejoin="round"/></g><g stroke="#000000" stroke-linecap="round"><path d="M1278 16l-3-3m0 0c-.276-.276-.414-.638-.414-1s.138-.724.414-1m3-3l-3 3" fill="none" stroke-opacity=".552264"/><path d="M1286.5 5.5l-4.788 13.156" fill="#000000" stroke-opacity=".010926"/><path d="M1290 8l1 1m0 0l.984.984L1293 11m0 0c.276.276.414.638.414 1s-.138.724-.414 1m-2 2l1.092-1.092L1293 13m-3 3l1-1" fill="none" stroke-opacity=".75" stroke-linejoin="round"/></g><path d="M1302 16l-3-3m0 0c-.276-.276-.414-.638-.414-1s.138-.724.414-1m3-3l-3 3" fill="none" stroke="#000000" stroke-opacity=".654508" stroke-linecap="round"/><path d="M1310.5 5.5l-4.788 13.156" fill="#000000"/><path d="M1314 8l1 1m0 0l.984.984L1317 11m0 0c.276.276.414.638.414 1s-.138.724-.414 1m-2 2l1.092-1.092L1317 13m-3 3l1-1" fill="none" stroke="#000000" stroke-opacity=".654508" stroke-linecap="round" stroke-linejoin="round"/><g stroke="#000000" stroke-linecap="round"><path d="M1326 16l-3-3m0 0c-.276-.276-.414-.638-.414-1s.138-.724.414-1m3-3l-3 3" fill="none" stroke-opacity=".75"/><path d="M1334.5 5.5l-4.788 13.156" fill="#000000" stroke-opacity=".010926"/><path d="M1338 8l1 1m0 0l.984.984L1341 11m0 0c.276.276.414.638.414 1s-.138.724-.414 1m-2 2l1.092-1.092L1341 13m-3 3l1-1" fill="none" stroke-opacity=".552264" stroke-linejoin="round"/></g><g stroke="#000000" stroke-linecap="round"><path d="M1350 16l-3-3m0 0c-.276-.276-.414-.638-.414-1s.138-.724.414-1m3-3l-3 3" fill="none" stroke-opacity=".834565"/><path d="M1358.5 5.5l-4.788 13.156" fill="#000000" stroke-opacity=".043227"/><path d="M1362 8l1 1m0 0l.984.984L1365 11m0 0c.276.276.414.638.414 1s-.138.724-.414 1m-2 2l1.092-1.092L1365 13m-3 3l1-1" fill="none" stroke-opacity=".447736" stroke-linejoin="round"/></g><g stroke="#000000" stroke-linecap="round"><path d="M1374 16l-3-3m0 0c-.276-.276-.414-.638-.414-1s.138-.724.414-1m3-3l-3 3" fill="none" stroke-opacity=".904508"/><path d="M1382.5 5.5l-4.788 13.156" fill="#000000" stroke-opacity=".095492"/><path d="M1386 8l1 1m0 0l.984.984L1389 11m0 0c.276.276.414.638.414 1s-.138.724-.414 1m-2 2l1.092-1.092L1389 13m-3 3l1-1" fill="none" stroke-opacity=".345492" stroke-linejoin="round"/></g><g stroke="#000000" stroke-linecap="round"><path d="M1398 16l-3-3m0 0c-.276-.276-.414-.638-.414-1s.138-.724.414-1m3-3l-3 3" fill="none" stroke-opacity=".956773"/><path d="M1406.5 5.5l-4.788 13.156" fill="#000000" stroke-opacity=".165435"/><path d="M1410 8l1 1m0 0l.984.984L1413 11m0 0c.276.276.414.638.414 1s-.138.724-.414 1m-2 2l1.092-1.092L1413 13m-3 3l1-1" fill="none" stroke-opacity=".25" stroke-linejoin="round"/></g><g stroke="#000000" stroke-linecap="round"><path d="M1422 16l-3-3m0 0c-.276-.276-.414-.638-.414-1s.138-.724.414-1m3-3l-3 3" fill="none" stroke-opacity=".989074"/><path d="M1430.5 5.5l-4.788 13.156" fill="#000000" stroke-opacity=".25"/><path d="M1434 8l1 1m0 0l.984.984L1437 11m0 0c.276.276.414.638.414 1s-.138.724-.414 1m-2 2l1.092-1.092L1437 13m-3 3l1-1" fill="none" stroke-opacity=".165435" stroke-linejoin="round"/></g><g stroke="#000000" stroke-linecap="round"><path d="M1446 16l-3-3m0 0c-.276-.276-.414-.638-.414-1s.138-.724.414-1m3-3l-3 3" fill="none"/><path d="M1454.5 5.5l-4.788 13.156" fill="#000000" stroke-opacity=".345492"/><path d="M1458 8l1 1m0 0l.984.984L1461 11m0 0c.276.276.414.638.414 1s-.138.724-.414 1m-2 2l1.092-1.092L1461 13m-3 3l1-1" fill="none" stroke-opacity=".095492" stroke-linejoin="round"/></g><g stroke="#000000" stroke-linecap="round"><path d="M1470 16l-3-3m0 0c-.276-.276-.414-.638-.414-1s.138-.724.414-1m3-3l-3 3" fill="none"/><path d="M1478.5 5.5l-4.788 13.156" fill="#000000" stroke-opacity=".447736"/><path d="M1482 8l1 1m0 0l.984.984L1485 11m0 0c.276.276.414.638.414 1s-.138.724-.414 1m-2 2l1.092-1.092L1485 13m-3 3l1-1" fill="none" stroke-opacity=".043227" stroke-linejoin="round"/></g><g stroke="#000000" stroke-linecap="round"><path d="M1494 16l-3-3m0 0c-.276-.276-.414-.638-.414-1s.138-.724.414-1m3-3l-3 3" fill="none"/><path d="M1502.5 5.5l-4.788 13.156" fill="#000000" stroke-opacity=".552264"/><path d="M1506 8l1 1m0 0l.984.984L1509 11m0 0c.276.276.414.638.414 1s-.138.724-.414 1m-2 2l1.092-1.092L1509 13m-3 3l1-1" fill="none" stroke-opacity=".010926" stroke-linejoin="round"/></g><path d="M1518 16l-3-3m0 0c-.276-.276-.414-.638-.414-1s.138-.724.414-1m3-3l-3 3" fill="none" stroke="#000000" stroke-linecap="round"/><path d="M1526.5 5.5l-4.788 13.156" fill="#000000" stroke="#000000" stroke-opacity=".654508" stroke-linecap="round"/><path d="M1530 8l1 1m0 0l.984.984L1533 11m0 0c.276.276.414.638.414 1s-.138.724-.414 1m-2 2l1.092-1.092L1533 13m-3 3l1-1" fill="none"/><g stroke="#000000" stroke-linecap="round"><path d="M1542 16l-3-3m0 0c-.276-.276-.414-.638-.414-1s.138-.724.414-1m3-3l-3 3" fill="none"/><path d="M1550.5 5.5l-4.788 13.156" fill="#000000" stroke-opacity=".75"/><path d="M1554 8l1 1m0 0l.984.984L1557 11m0 0c.276.276.414.638.414 1s-.138.724-.414 1m-2 2l1.092-1.092L1557 13m-3 3l1-1" fill="none" stroke-opacity=".010926" stroke-linejoin="round"/></g><g stroke="#000000" stroke-linecap="round"><path d="M1566 16l-3-3m0 0c-.276-.276-.414-.638-.414-1s.138-.724.414-1m3-3l-3 3" fill="none"/><path d="M1574.5 5.5l-4.788 13.156" fill="#000000" stroke-opacity=".834565"/><path d="M1578 8l1 1m0 0l.984.984L1581 11m0 0c.276.276.414.638.414 1s-.138.724-.414 1m-2 2l1.092-1.092L1581 13m-3 3l1-1" fill="none" stroke-opacity=".043227" stroke-linejoin="round"/></g><g stroke="#000000" stroke-linecap="round"><path d="M1590 16l-3-3m0 0c-.276-.276-.414-.638-.414-1s.138-.724.414-1m3-3l-3 3" fill="none"/><path d="M1598.5 5.5l-4.788 13.156" fill="#000000" stroke-opacity=".904508"/><path d="M1602 8l1 1m0 0l.984.984L1605 11m0 0c.276.276.414.638.414 1s-.138.724-.414 1m-2 2l1.092-1.092L1605 13m-3 3l1-1" fill="none" stroke-opacity=".095492" stroke-linejoin="round"/></g><g stroke="#000000" stroke-linecap="round"><path d="M1614 16l-3-3m0 0c-.276-.276-.414-.638-.414-1s.138-.724.414-1m3-3l-3 3" fill="none"/><path d="M1622.5 5.5l-4.788 13.156" fill="#000000" stroke-opacity=".956773"/><path d="M1626 8l1 1m0 0l.984.984L1629 11m0 0c.276.276.414.638.414 1s-.138.724-.414 1m-2 2l1.092-1.092L1629 13m-3 3l1-1" fill="none" stroke-opacity=".165435" stroke-linejoin="round"/></g><g stroke="#000000" stroke-linecap="round"><path d="M1638 16l-3-3m0 0c-.276-.276-.414-.638-.414-1s.138-.724.414-1m3-3l-3 3" fill="none"/><path d="M1646.5 5.5l-4.788 13.156" fill="#000000" stroke-opacity=".989074"/><path d="M1650 8l1 1m0 0l.984.984L1653 11m0 0c.276.276.414.638.414 1s-.138.724-.414 1m-2 2l1.092-1.092L1653 13m-3 3l1-1" fill="none" stroke-opacity=".25" stroke-linejoin="round"/></g><g stroke="#000000" stroke-linecap="round"><path d="M1662 16l-3-3m0 0c-.276-.276-.414-.638-.414-1s.138-.724.414-1m3-3l-3 3" fill="none"/><path d="M1670.5 5.5l-4.788 13.156" fill="#000000"/><path d="M1674 8l1 1m0 0l.984.984L1677 11m0 0c.276.276.414.638.414 1s-.138.724-.414 1m-2 2l1.092-1.092L1677 13m-3 3l1-1" fill="none" stroke-opacity=".345492" stroke-linejoin="round"/></g><g stroke="#000000" stroke-linecap="round"><path d="M1686 16l-3-3m0 0c-.276-.276-.414-.638-.414-1s.138-.724.414-1m3-3l-3 3" fill="none"/><path d="M1694.5 5.5l-4.788 13.156" fill="#000000"/><path d="M1698 8l1 1m0 0l.984.984L1701 11m0 0c.276.276.414.638.414 1s-.138.724-.414 1m-2 2l1.092-1.092L1701 13m-3 3l1-1" fill="none" stroke-opacity=".447736" stroke-linejoin="round"/></g><g stroke="#000000" stroke-linecap="round"><path d="M1710 16l-3-3m0 0c-.276-.276-.414-.638-.414-1s.138-.724.414-1m3-3l-3 3" fill="none"/><path d="M1718.5 5.5l-4.788 13.156" fill="#000000"/><path d="M1722 8l1 1m0 0l.984.984L1725 11m0 0c.276.276.414.638.414 1s-.138.724-.414 1m-2 2l1.092-1.092L1725 13m-3 3l1-1" fill="none" stroke-opacity=".552264" stroke-linejoin="round"/></g><g stroke="#000000" stroke-linecap="round"><path d="M1734 16l-3-3m0 0c-.276-.276-.414-.638-.414-1s.138-.724.414-1m3-3l-3 3" fill="none"/><path d="M1742.5 5.5l-4.788 13.156" fill="#000000"/><path d="M1746 8l1 1m0 0l.984.984L1749 11m0 0c.276.276.414.638.414 1s-.138.724-.414 1m-2 2l1.092-1.092L1749 13m-3 3l1-1" fill="none" stroke-opacity=".654508" stroke-linejoin="round"/></g><g stroke="#000000" stroke-linecap="round"><path d="M1758 16l-3-3m0 0c-.276-.276-.414-.638-.414-1s.138-.724.414-1m3-3l-3 3" fill="none"/><path d="M1766.5 5.5l-4.788 13.156" fill="#000000"/><path d="M1770 8l1 1m0 0l.984.984L1773 11m0 0c.276.276.414.638.414 1s-.138.724-.414 1m-2 2l1.092-1.092L1773 13m-3 3l1-1" fill="none" stroke-opacity=".75" stroke-linejoin="round"/></g><g stroke="#000000" stroke-linecap="round"><path d="M1782 16l-3-3m0 0c-.276-.276-.414-.638-.414-1s.138-.724.414-1m3-3l-3 3" fill="none"/><path d="M1790.5 5.5l-4.788 13.156" fill="#000000"/><path d="M1794 8l1 1m0 0l.984.984L1797 11m0 0c.276.276.414.638.414 1s-.138.724-.414 1m-2 2l1.092-1.092L1797 13m-3 3l1-1" fill="none" stroke-opacity=".834565" stroke-linejoin="round"/></g><g stroke="#000000" stroke-linecap="round"><path d="M1806 16l-3-3m0 0c-.276-.276-.414-.638-.414-1s.138-.724.414-1m3-3l-3 3" fill="none"/><path d="M1814.5 5.5l-4.788 13.156" fill="#000000"/><path d="M1818 8l1 1m0 0l.984.984L1821 11m0 0c.276.276.414.638.414 1s-.138.724-.414 1m-2 2l1.092-1.092L1821 13m-3 3l1-1" fill="none" stroke-opacity=".904508" stroke-linejoin="round"/></g><g stroke="#000000" stroke-linecap="round"><path d="M1830 16l-3-3m0 0c-.276-.276-.414-.638-.414-1s.138-.724.414-1m3-3l-3 3" fill="none"/><path d="M1838.5 5.5l-4.788 13.156" fill="#000000"/><path d="M1842 8l1 1m0 0l.984.984L1845 11m0 0c.276.276.414.638.414 1s-.138.724-.414 1m-2 2l1.092-1.092L1845 13m-3 3l1-1" fill="none" stroke-opacity=".956773" stroke-linejoin="round"/></g><g stroke="#000000" stroke-linecap="round"><path d="M1854 16l-3-3m0 0c-.276-.276-.414-.638-.414-1s.138-.724.414-1m3-3l-3 3" fill="none"/><path d="M1862.5 5.5l-4.788 13.156" fill="#000000"/><path d="M1866 8l1 1m0 0l.984.984L1869 11m0 0c.276.276.414.638.414 1s-.138.724-.414 1m-2 2l1.092-1.092L1869 13m-3 3l1-1" fill="none" stroke-opacity=".989074" stroke-linejoin="round"/></g><g stroke="#000000" stroke-linecap="round"><path d="M1878 16l-3-3m0 0c-.276-.276-.414-.638-.414-1s.138-.724.414-1m3-3l-3 3" fill="none"/><path d="M1886.5 5.5l-4.788 13.156" fill="#000000"/><path d="M1890 8l1 1m0 0l.984.984L1893 11m0 0c.276.276.414.638.414 1s-.138.724-.414 1m-2 2l1.092-1.092L1893 13m-3 3l1-1" fill="none" stroke-linejoin="round"/></g><g stroke="#000000" stroke-linecap="round"><path d="M1902 16l-3-3m0 0c-.276-.276-.414-.638-.414-1s.138-.724.414-1m3-3l-3 3" fill="none"/><path d="M1910.5 5.5l-4.788 13.156" fill="#000000"/><path d="M1914 8l1 1m0 0l.984.984L1917 11m0 0c.276.276.414.638.414 1s-.138.724-.414 1m-2 2l1.092-1.092L1917 13m-3 3l1-1" fill="none" stroke-linejoin="round"/></g><g stroke="#000000" stroke-linecap="round"><path d="M1926 16l-3-3m0 0c-.276-.276-.414-.638-.414-1s.138-.724.414-1m3-3l-3 3" fill="none"/><path d="M1934.5 5.5l-4.788 13.156" fill="#000000"/><path d="M1938 8l1 1m0 0l.984.984L1941 11m0 0c.276.276.414.638.414 1s-.138.724-.414 1m-2 2l1.092-1.092L1941 13m-3 3l1-1" fill="none" stroke-linejoin="round"/></g><g stroke="#000000" stroke-linecap="round"><path d="M1950 16l-3-3m0 0c-.276-.276-.414-.638-.414-1s.138-.724.414-1m3-3l-3 3" fill="none"/><path d="M1958.5 5.5l-4.788 13.156" fill="#000000"/><path d="M1962 8l1 1m0 0l.984.984L1965 11m0 0c.276.276.414.638.414 1s-.138.724-.414 1m-2 2l1.092-1.092L1965 13m-3 3l1-1" fill="none" stroke-linejoin="round"/></g><g stroke="#000000" stroke-linecap="round"><path d="M1974 16l-3-3m0 0c-.276-.276-.414-.638-.414-1s.138-.724.414-1m3-3l-3 3" fill="none"/><path d="M1982.5 5.5l-4.788 13.156" fill="#000000"/><path d="M1986 8l1 1m0 0l.984.984L1989 11m0 0c.276.276.414.638.414 1s-.138.724-.414 1m-2 2l1.092-1.092L1989 13m-3 3l1-1" fill="none" stroke-linejoin="round"/></g><g stroke="#000000" stroke-linecap="round"><path d="M1998 16l-3-3m0 0c-.276-.276-.414-.638-.414-1s.138-.724.414-1m3-3l-3 3" fill="none"/><path d="M2006.5 5.5l-4.788 13.156" fill="#000000"/><path d="M2010 8l1 1m0 0l.984.984L2013 11m0 0c.276.276.414.638.414 1s-.138.724-.414 1m-2 2l1.092-1.092L2013 13m-3 3l1-1" fill="none" stroke-linejoin="round"/></g><g stroke="#000000" stroke-linecap="round"><path d="M2022 16l-3-3m0 0c-.276-.276-.414-.638-.414-1s.138-.724.414-1m3-3l-3 3" fill="none"/><path d="M2030.5 5.5l-4.788 13.156" fill="#000000"/><path d="M2034 8l1 1m0 0l.984.984L2037 11m0 0c.276.276.414.638.414 1s-.138.724-.414 1m-2 2l1.092-1.092L2037 13m-3 3l1-1" fill="none" stroke-linejoin="round"/></g><g stroke="#000000" stroke-linecap="round"><path d="M2046 16l-3-3m0 0c-.276-.276-.414-.638-.414-1s.138-.724.414-1m3-3l-3 3" fill="none"/><path d="M2054.5 5.5l-4.788 13.156" fill="#000000"/><path d="M2058 8l1 1m0 0l.984.984L2061 11m0 0c.276.276.414.638.414 1s-.138.724-.414 1m-2 2l1.092-1.092L2061 13m-3 3l1-1" fill="none" stroke-linejoin="round"/></g><g stroke="#000000" stroke-linecap="round"><path d="M2070 16l-3-3m0 0c-.276-.276-.414-.638-.414-1s.138-.724.414-1m3-3l-3 3" fill="none"/><path d="M2078.5 5.5l-4.788 13.156" fill="#000000"/><path d="M2082 8l1 1m0 0l.984.984L2085 11m0 0c.276.276.414.638.414 1s-.138.724-.414 1m-2 2l1.092-1.092L2085 13m-3 3l1-1" fill="none" stroke-linejoin="round"/></g><g stroke="#000000" stroke-linecap="round"><path d="M2094 16l-3-3m0 0c-.276-.276-.414-.638-.414-1s.138-.724.414-1m3-3l-3 3" fill="none"/><path d="M2102.5 5.5l-4.788 13.156" fill="#000000"/><path d="M2106 8l1 1m0 0l.984.984L2109 11m0 0c.276.276.414.638.414 1s-.138.724-.414 1m-2 2l1.092-1.092L2109 13m-3 3l1-1" fill="none" stroke-linejoin="round"/></g><g stroke="#000000" stroke-linecap="round"><path d="M2118 16l-3-3m0 0c-.276-.276-.414-.638-.414-1s.138-.724.414-1m3-3l-3 3" fill="none"/><path d="M2126.5 5.5l-4.788 13.156" fill="#000000"/><path d="M2130 8l1 1m0 0l.984.984L2133 11m0 0c.276.276.414.638.414 1s-.138.724-.414 1m-2 2l1.092-1.092L2133 13m-3 3l1-1" fill="none" stroke-linejoin="round"/></g><g stroke="#000000" stroke-linecap="round"><path d="M2142 16l-3-3m0 0c-.276-.276-.414-.638-.414-1s.138-.724.414-1m3-3l-3 3" fill="none"/><path d="M2150.5 5.5l-4.788 13.156" fill="#000000"/><path d="M2154 8l1 1m0 0l.984.984L2157 11m0 0c.276.276.414.638.414 1s-.138.724-.414 1m-2 2l1.092-1.092L2157 13m-3 3l1-1" fill="none" stroke-linejoin="round"/></g><g stroke="#000000" stroke-linecap="round"><path d="M2166 16l-3-3m0 0c-.276-.276-.414-.638-.414-1s.138-.724.414-1m3-3l-3 3" fill="none"/><path d="M2174.5 5.5l-4.788 13.156" fill="#000000"/><path d="M2178 8l1 1m0 0l.984.984L2181 11m0 0c.276.276.414.638.414 1s-.138.724-.414 1m-2 2l1.092-1.092L2181 13m-3 3l1-1" fill="none" stroke-linejoin="round"/></g></svg>